G04*
G04 #@! TF.GenerationSoftware,Altium Limited,Altium Designer,23.3.1 (30)*
G04*
G04 Layer_Physical_Order=2*
G04 Layer_Color=16711680*
%FSLAX44Y44*%
%MOMM*%
G71*
G04*
G04 #@! TF.SameCoordinates,649CD447-C1A0-469D-A239-E437E7B1C979*
G04*
G04*
G04 #@! TF.FilePolarity,Positive*
G04*
G01*
G75*
%ADD12C,0.6000*%
%ADD17R,1.2000X1.2000*%
%ADD23C,1.2000*%
%ADD31C,1.2500*%
%ADD32R,1.2500X1.2500*%
%ADD33C,0.3500*%
%ADD34C,0.3000*%
G04:AMPARAMS|DCode=35|XSize=1.905mm|YSize=1.524mm|CornerRadius=0mm|HoleSize=0mm|Usage=FLASHONLY|Rotation=180.000|XOffset=0mm|YOffset=0mm|HoleType=Round|Shape=Octagon|*
%AMOCTAGOND35*
4,1,8,-0.9525,0.3810,-0.9525,-0.3810,-0.5715,-0.7620,0.5715,-0.7620,0.9525,-0.3810,0.9525,0.3810,0.5715,0.7620,-0.5715,0.7620,-0.9525,0.3810,0.0*
%
%ADD35OCTAGOND35*%

%ADD36C,2.0000*%
%ADD37C,1.1200*%
%ADD38C,1.3000*%
%ADD39R,1.2000X1.2000*%
%ADD40C,1.6500*%
%ADD41R,1.6500X1.6500*%
%ADD42C,1.5000*%
%ADD43R,1.5000X1.5000*%
%ADD44R,1.4000X1.4000*%
%ADD45C,1.4000*%
%ADD46R,2.0000X2.0000*%
%ADD47C,0.8000*%
%ADD48C,0.6000*%
G36*
X796500Y882000D02*
Y7250D01*
X7000D01*
Y882001D01*
X796500Y882000D01*
D02*
G37*
%LPC*%
G36*
X449844Y877000D02*
X447656D01*
X445634Y876163D01*
X444087Y874615D01*
X443250Y872594D01*
Y870406D01*
X443265Y870370D01*
X435073Y862177D01*
X434405Y861178D01*
X434171Y860000D01*
Y649178D01*
X434134Y649163D01*
X432587Y647616D01*
X431750Y645594D01*
Y643406D01*
X432587Y641385D01*
X434134Y639837D01*
X436156Y639000D01*
X438344D01*
X440365Y639837D01*
X441913Y641385D01*
X442750Y643406D01*
Y645594D01*
X441913Y647616D01*
X440365Y649163D01*
X440329Y649178D01*
Y858725D01*
X447620Y866015D01*
X447656Y866000D01*
X449844D01*
X451866Y866837D01*
X453413Y868384D01*
X454250Y870406D01*
Y872594D01*
X453413Y874615D01*
X451866Y876163D01*
X449844Y877000D01*
D02*
G37*
G36*
X778974Y876000D02*
X775526D01*
X772145Y875328D01*
X768961Y874008D01*
X766094Y872093D01*
X763657Y869656D01*
X761742Y866789D01*
X760423Y863605D01*
X759750Y860224D01*
Y856776D01*
X760423Y853395D01*
X761742Y850211D01*
X763657Y847344D01*
X766094Y844907D01*
X768961Y842992D01*
X772145Y841673D01*
X775526Y841000D01*
X778974D01*
X782355Y841673D01*
X785539Y842992D01*
X788406Y844907D01*
X790843Y847344D01*
X792758Y850211D01*
X794078Y853395D01*
X794750Y856776D01*
Y860224D01*
X794078Y863605D01*
X792758Y866789D01*
X790843Y869656D01*
X788406Y872093D01*
X785539Y874008D01*
X782355Y875328D01*
X778974Y876000D01*
D02*
G37*
G36*
X28974D02*
X25526D01*
X22145Y875328D01*
X18961Y874008D01*
X16094Y872093D01*
X13657Y869656D01*
X11742Y866789D01*
X10423Y863605D01*
X9750Y860224D01*
Y856776D01*
X10423Y853395D01*
X11742Y850211D01*
X13657Y847344D01*
X16094Y844907D01*
X18961Y842992D01*
X22145Y841673D01*
X25526Y841000D01*
X28974D01*
X32355Y841673D01*
X35539Y842992D01*
X38406Y844907D01*
X40843Y847344D01*
X42758Y850211D01*
X44078Y853395D01*
X44750Y856776D01*
Y860224D01*
X44078Y863605D01*
X42758Y866789D01*
X40843Y869656D01*
X38406Y872093D01*
X35539Y874008D01*
X32355Y875328D01*
X28974Y876000D01*
D02*
G37*
G36*
X633213Y827146D02*
X630245D01*
X627379Y826378D01*
X624809Y824894D01*
X622711Y822796D01*
X621227Y820226D01*
X620459Y817359D01*
Y814392D01*
X621227Y811526D01*
X622711Y808956D01*
X624809Y806858D01*
X627379Y805374D01*
X630245Y804606D01*
X633213D01*
X636079Y805374D01*
X638649Y806858D01*
X640747Y808956D01*
X642231Y811526D01*
X642999Y814392D01*
Y817359D01*
X642231Y820226D01*
X640747Y822796D01*
X638649Y824894D01*
X636079Y826378D01*
X633213Y827146D01*
D02*
G37*
G36*
X575755D02*
X572787D01*
X569921Y826378D01*
X567351Y824894D01*
X565253Y822796D01*
X563769Y820226D01*
X563001Y817359D01*
Y814392D01*
X563769Y811526D01*
X565253Y808956D01*
X567351Y806858D01*
X569921Y805374D01*
X572787Y804606D01*
X575755D01*
X578621Y805374D01*
X581191Y806858D01*
X583289Y808956D01*
X584773Y811526D01*
X585541Y814392D01*
Y817359D01*
X584773Y820226D01*
X583289Y822796D01*
X581191Y824894D01*
X578621Y826378D01*
X575755Y827146D01*
D02*
G37*
G36*
X231463D02*
X228495D01*
X225629Y826378D01*
X223059Y824894D01*
X220961Y822796D01*
X219477Y820226D01*
X218709Y817359D01*
Y814392D01*
X219477Y811526D01*
X220961Y808956D01*
X223059Y806858D01*
X225629Y805374D01*
X228495Y804606D01*
X231463D01*
X234329Y805374D01*
X236899Y806858D01*
X238997Y808956D01*
X240481Y811526D01*
X241249Y814392D01*
Y817359D01*
X240481Y820226D01*
X238997Y822796D01*
X236899Y824894D01*
X234329Y826378D01*
X231463Y827146D01*
D02*
G37*
G36*
X281223Y798417D02*
X278255D01*
X275389Y797649D01*
X272819Y796165D01*
X270721Y794067D01*
X270296Y793332D01*
X279506Y788014D01*
X284824Y797225D01*
X284089Y797649D01*
X281223Y798417D01*
D02*
G37*
G36*
X285924Y796590D02*
X280606Y787379D01*
X289816Y782062D01*
X290241Y782797D01*
X291009Y785663D01*
Y788631D01*
X290241Y791497D01*
X288757Y794067D01*
X286659Y796165D01*
X285924Y796590D01*
D02*
G37*
G36*
X269661Y792232D02*
X269237Y791497D01*
X268469Y788631D01*
Y785663D01*
X268536Y785412D01*
X250073Y766948D01*
X249405Y765949D01*
X249171Y764771D01*
Y644250D01*
X249405Y643072D01*
X250073Y642073D01*
X251072Y641405D01*
X252250Y641171D01*
X253428Y641405D01*
X254427Y642073D01*
X255095Y643072D01*
X255329Y644250D01*
Y763496D01*
X271390Y779557D01*
X272819Y778129D01*
X273554Y777704D01*
X278871Y786914D01*
X269661Y792232D01*
D02*
G37*
G36*
X525995Y798417D02*
X523027D01*
X520161Y797649D01*
X517591Y796165D01*
X515493Y794067D01*
X514009Y791497D01*
X513241Y788631D01*
Y785663D01*
X514009Y782797D01*
X515493Y780227D01*
X517591Y778129D01*
X520161Y776645D01*
X523027Y775877D01*
X525995D01*
X528861Y776645D01*
X531431Y778129D01*
X533529Y780227D01*
X535013Y782797D01*
X535781Y785663D01*
Y788631D01*
X535013Y791497D01*
X533529Y794067D01*
X531431Y796165D01*
X528861Y797649D01*
X525995Y798417D01*
D02*
G37*
G36*
X682973Y798417D02*
X680005D01*
X677139Y797649D01*
X674569Y796165D01*
X672471Y794067D01*
X670987Y791497D01*
X670219Y788631D01*
Y785663D01*
X670987Y782797D01*
X672471Y780227D01*
X674569Y778129D01*
X677139Y776645D01*
X680005Y775877D01*
X682973D01*
X685839Y776645D01*
X688409Y778129D01*
X690507Y780227D01*
X691991Y782797D01*
X692759Y785663D01*
Y788631D01*
X691991Y791497D01*
X690507Y794067D01*
X688409Y796165D01*
X685839Y797649D01*
X682973Y798417D01*
D02*
G37*
G36*
X279971Y786279D02*
X274654Y777069D01*
X275389Y776645D01*
X278255Y775877D01*
X281223D01*
X284089Y776645D01*
X286659Y778129D01*
X288757Y780227D01*
X289181Y780962D01*
X279971Y786279D01*
D02*
G37*
G36*
X623734Y753270D02*
X620766D01*
X617900Y752502D01*
X615330Y751018D01*
X613232Y748920D01*
X611748Y746350D01*
X610980Y743484D01*
Y740516D01*
X611748Y737650D01*
X613232Y735080D01*
X615330Y732982D01*
X617900Y731498D01*
X620766Y730730D01*
X623734D01*
X626600Y731498D01*
X629170Y732982D01*
X631268Y735080D01*
X632752Y737650D01*
X633520Y740516D01*
Y743484D01*
X632752Y746350D01*
X631268Y748920D01*
X629170Y751018D01*
X626600Y752502D01*
X623734Y753270D01*
D02*
G37*
G36*
X167000Y847079D02*
X104500D01*
X103322Y846845D01*
X102323Y846177D01*
X19323Y763177D01*
X18655Y762178D01*
X18421Y761000D01*
Y213000D01*
X18421Y213000D01*
Y175949D01*
X17837Y175366D01*
X17000Y173344D01*
Y171156D01*
X17837Y169135D01*
X19384Y167587D01*
X21406Y166750D01*
X23594D01*
X25615Y167587D01*
X25901Y167873D01*
X27171Y167347D01*
Y145428D01*
X27134Y145413D01*
X25587Y143865D01*
X24750Y141844D01*
Y139656D01*
X25587Y137634D01*
X27134Y136087D01*
X29156Y135250D01*
X31344D01*
X33156Y136000D01*
X34426Y135488D01*
Y90240D01*
X33635Y89913D01*
X32087Y88365D01*
X31250Y86344D01*
Y84156D01*
X32087Y82135D01*
X33635Y80587D01*
X35656Y79750D01*
X37844D01*
X39866Y80587D01*
X41413Y82135D01*
X42250Y84156D01*
Y86344D01*
X41413Y88365D01*
X40074Y89704D01*
Y684548D01*
X85504Y729977D01*
X87112Y728369D01*
X89682Y726885D01*
X92549Y726117D01*
X95516D01*
X98382Y726885D01*
X100952Y728369D01*
X103050Y730467D01*
X104534Y733037D01*
X105302Y735903D01*
Y738871D01*
X104534Y741737D01*
X103050Y744307D01*
X100952Y746405D01*
X98382Y747889D01*
X95516Y748657D01*
X92549D01*
X89682Y747889D01*
X87112Y746405D01*
X85014Y744307D01*
X83530Y741737D01*
X82762Y738871D01*
Y735903D01*
X82906Y735368D01*
X35253Y687715D01*
X34641Y686799D01*
X34599Y686590D01*
X33329Y686715D01*
Y754975D01*
X87775Y809421D01*
X125725D01*
X156514Y778632D01*
Y724315D01*
Y718071D01*
X155830Y717676D01*
X153732Y715578D01*
X152248Y713008D01*
X151480Y710142D01*
Y707174D01*
X152248Y704308D01*
X153732Y701738D01*
X155830Y699640D01*
X158400Y698156D01*
X161266Y697388D01*
X164234D01*
X167100Y698156D01*
X169670Y699640D01*
X171768Y701738D01*
X173252Y704308D01*
X174020Y707174D01*
Y710142D01*
X173252Y713008D01*
X171768Y715578D01*
X169670Y717676D01*
X167100Y719160D01*
X164234Y719928D01*
X162672D01*
Y724315D01*
Y779907D01*
X162672Y779907D01*
X162438Y781085D01*
X161770Y782084D01*
X161770Y782084D01*
X129177Y814677D01*
X128178Y815345D01*
X127000Y815579D01*
X86500D01*
X86500Y815579D01*
X85322Y815345D01*
X84323Y814677D01*
X28073Y758427D01*
X27405Y757428D01*
X27171Y756250D01*
Y177153D01*
X25901Y176627D01*
X25615Y176913D01*
X24579Y177342D01*
Y213000D01*
X24579Y213000D01*
Y759725D01*
X105775Y840921D01*
X165725D01*
X214264Y792382D01*
Y757657D01*
Y751413D01*
X213580Y751018D01*
X211482Y748920D01*
X209998Y746350D01*
X209230Y743484D01*
Y740516D01*
X209998Y737650D01*
X211482Y735080D01*
X213580Y732982D01*
X216150Y731498D01*
X219016Y730730D01*
X221984D01*
X224850Y731498D01*
X227420Y732982D01*
X229518Y735080D01*
X231002Y737650D01*
X231770Y740516D01*
Y743484D01*
X231002Y746350D01*
X229518Y748920D01*
X227420Y751018D01*
X224850Y752502D01*
X221984Y753270D01*
X220422D01*
Y757657D01*
Y793657D01*
X220188Y794835D01*
X219520Y795834D01*
X169177Y846177D01*
X168178Y846845D01*
X167000Y847079D01*
D02*
G37*
G36*
X497266Y748657D02*
X494299D01*
X491432Y747889D01*
X488862Y746405D01*
X486764Y744307D01*
X485280Y741737D01*
X484512Y738871D01*
Y735903D01*
X485280Y733037D01*
X486764Y730467D01*
X488862Y728369D01*
X491432Y726885D01*
X494299Y726117D01*
X497266D01*
X500132Y726885D01*
X502702Y728369D01*
X504800Y730467D01*
X506284Y733037D01*
X507052Y735903D01*
Y738871D01*
X506284Y741737D01*
X504800Y744307D01*
X502702Y746405D01*
X500132Y747889D01*
X497266Y748657D01*
D02*
G37*
G36*
X711702Y748657D02*
X708734D01*
X705868Y747889D01*
X703298Y746405D01*
X701199Y744307D01*
X699716Y741737D01*
X698948Y738871D01*
Y735903D01*
X699716Y733037D01*
X701199Y730467D01*
X703298Y728369D01*
X705868Y726885D01*
X708734Y726117D01*
X711702D01*
X714568Y726885D01*
X717138Y728369D01*
X719236Y730467D01*
X720720Y733037D01*
X721488Y735903D01*
Y738871D01*
X720720Y741737D01*
X719236Y744307D01*
X717138Y746405D01*
X714568Y747889D01*
X711702Y748657D01*
D02*
G37*
G36*
X309951D02*
X306984D01*
X304118Y747889D01*
X301548Y746405D01*
X299450Y744307D01*
X297966Y741737D01*
X297198Y738871D01*
Y735903D01*
X297966Y733037D01*
X299450Y730467D01*
X301548Y728369D01*
X304118Y726885D01*
X306984Y726117D01*
X309951D01*
X312818Y726885D01*
X315388Y728369D01*
X317486Y730467D01*
X318970Y733037D01*
X319738Y735903D01*
Y738871D01*
X318970Y741737D01*
X317486Y744307D01*
X315388Y746405D01*
X312818Y747889D01*
X309951Y748657D01*
D02*
G37*
G36*
X565984Y719928D02*
X563016D01*
X560150Y719160D01*
X557580Y717676D01*
X555482Y715578D01*
X553998Y713008D01*
X553230Y710142D01*
Y707174D01*
X553998Y704308D01*
X555482Y701738D01*
X557580Y699640D01*
X560150Y698156D01*
X563016Y697388D01*
X565984D01*
X568850Y698156D01*
X571420Y699640D01*
X573518Y701738D01*
X575002Y704308D01*
X575770Y707174D01*
Y710142D01*
X575002Y713008D01*
X573518Y715578D01*
X571420Y717676D01*
X568850Y719160D01*
X565984Y719928D01*
D02*
G37*
G36*
X497266Y691199D02*
X494299D01*
X491432Y690431D01*
X488862Y688947D01*
X486764Y686849D01*
X485280Y684279D01*
X484512Y681413D01*
Y678445D01*
X485280Y675579D01*
X486764Y673009D01*
X488862Y670911D01*
X491432Y669427D01*
X494299Y668659D01*
X497266D01*
X500132Y669427D01*
X502702Y670911D01*
X504800Y673009D01*
X506284Y675579D01*
X507052Y678445D01*
Y681413D01*
X506284Y684279D01*
X504800Y686849D01*
X502702Y688947D01*
X500132Y690431D01*
X497266Y691199D01*
D02*
G37*
G36*
X95516D02*
X92549D01*
X89682Y690431D01*
X87112Y688947D01*
X85014Y686849D01*
X83530Y684279D01*
X82762Y681413D01*
Y678445D01*
X83530Y675579D01*
X85014Y673009D01*
X87112Y670911D01*
X89682Y669427D01*
X92549Y668659D01*
X95516D01*
X98382Y669427D01*
X100952Y670911D01*
X103050Y673009D01*
X104534Y675579D01*
X105302Y678445D01*
Y681413D01*
X104534Y684279D01*
X103050Y686849D01*
X100952Y688947D01*
X98382Y690431D01*
X95516Y691199D01*
D02*
G37*
G36*
X721488Y691199D02*
X698948D01*
Y668659D01*
X721488D01*
Y691199D01*
D02*
G37*
G36*
X623734Y686586D02*
X620766D01*
X617900Y685818D01*
X615330Y684334D01*
X613232Y682236D01*
X611748Y679666D01*
X610980Y676800D01*
Y673832D01*
X611748Y670966D01*
X613232Y668396D01*
X615330Y666298D01*
X617900Y664814D01*
X620766Y664046D01*
X623734D01*
X626600Y664814D01*
X629170Y666298D01*
X631268Y668396D01*
X632752Y670966D01*
X633520Y673832D01*
Y676800D01*
X632752Y679666D01*
X631268Y682236D01*
X629170Y684334D01*
X626600Y685818D01*
X623734Y686586D01*
D02*
G37*
G36*
X221984D02*
X219016D01*
X216150Y685818D01*
X213580Y684334D01*
X211482Y682236D01*
X209998Y679666D01*
X209230Y676800D01*
Y673832D01*
X209998Y670966D01*
X211482Y668396D01*
X213580Y666298D01*
X216150Y664814D01*
X219016Y664046D01*
X221984D01*
X224850Y664814D01*
X227420Y666298D01*
X229518Y668396D01*
X231002Y670966D01*
X231770Y673832D01*
Y676800D01*
X231002Y679666D01*
X229518Y682236D01*
X227420Y684334D01*
X224850Y685818D01*
X221984Y686586D01*
D02*
G37*
G36*
X403344Y877500D02*
X401156D01*
X399134Y876663D01*
X397587Y875116D01*
X396750Y873094D01*
Y870906D01*
X397587Y868885D01*
X398171Y868301D01*
Y831250D01*
X398405Y830072D01*
X399073Y829073D01*
X413171Y814975D01*
Y642635D01*
X412635Y642413D01*
X411087Y640865D01*
X410250Y638844D01*
Y636656D01*
X411087Y634635D01*
X412635Y633087D01*
X414656Y632250D01*
X416844D01*
X418866Y633087D01*
X420413Y634635D01*
X421250Y636656D01*
Y638844D01*
X420413Y640865D01*
X419329Y641949D01*
Y816250D01*
X419095Y817428D01*
X418427Y818427D01*
X404329Y832525D01*
Y866908D01*
X405365Y867337D01*
X406913Y868885D01*
X407750Y870906D01*
Y873094D01*
X406913Y875116D01*
X405365Y876663D01*
X403344Y877500D01*
D02*
G37*
G36*
X319738Y691199D02*
X297198D01*
Y673337D01*
X294003Y670142D01*
X293391Y669226D01*
X293176Y668145D01*
X293176Y668145D01*
Y637464D01*
Y608670D01*
X289135Y604629D01*
X288844Y604750D01*
X286656D01*
X284634Y603913D01*
X283087Y602365D01*
X282250Y600344D01*
Y598156D01*
X283087Y596134D01*
X284634Y594587D01*
X286656Y593750D01*
X288844D01*
X290865Y594587D01*
X292413Y596134D01*
X293250Y598156D01*
Y600344D01*
X293129Y600635D01*
X297997Y605503D01*
X297997Y605503D01*
X298609Y606419D01*
X298824Y607500D01*
X298824Y607500D01*
Y637464D01*
Y666161D01*
X299123Y666365D01*
X300394Y665694D01*
Y663032D01*
X300394Y663032D01*
X300609Y661952D01*
X301221Y661035D01*
X315320Y646936D01*
Y640823D01*
X314500Y638844D01*
Y636656D01*
X315337Y634635D01*
X316884Y633087D01*
X318906Y632250D01*
X321094D01*
X323116Y633087D01*
X324663Y634635D01*
X325500Y636656D01*
Y638844D01*
X324663Y640865D01*
X323116Y642413D01*
X321094Y643250D01*
X320968D01*
Y648106D01*
X320753Y649187D01*
X320141Y650103D01*
X320141Y650103D01*
X306042Y664202D01*
Y668659D01*
X319738D01*
Y691199D01*
D02*
G37*
G36*
X174005Y827146D02*
X171037D01*
X168171Y826378D01*
X165601Y824894D01*
X163503Y822796D01*
X162019Y820226D01*
X161251Y817359D01*
Y814392D01*
X162019Y811526D01*
X163503Y808956D01*
X165601Y806858D01*
X168171Y805374D01*
X171037Y804606D01*
X174005D01*
X175998Y805140D01*
X178394Y802743D01*
X178394Y802743D01*
X186676Y794462D01*
Y655500D01*
X186676Y655500D01*
X186891Y654419D01*
X187503Y653503D01*
X199176Y641830D01*
Y639783D01*
X198885Y639663D01*
X197337Y638116D01*
X196500Y636094D01*
Y633906D01*
X197337Y631884D01*
X198885Y630337D01*
X200906Y629500D01*
X203094D01*
X205116Y630337D01*
X206663Y631884D01*
X207500Y633906D01*
Y636094D01*
X206663Y638116D01*
X205116Y639663D01*
X204824Y639783D01*
Y643000D01*
X204609Y644081D01*
X203997Y644997D01*
X203997Y644997D01*
X192324Y656670D01*
Y795631D01*
X192324Y795631D01*
X192109Y796712D01*
X191497Y797628D01*
X182388Y806737D01*
X182388Y806737D01*
X180854Y808271D01*
X181539Y808956D01*
X183023Y811526D01*
X183791Y814392D01*
Y817359D01*
X183023Y820226D01*
X181539Y822796D01*
X179441Y824894D01*
X176871Y826378D01*
X174005Y827146D01*
D02*
G37*
G36*
X525995Y641439D02*
X523027D01*
X520161Y640671D01*
X517591Y639187D01*
X515493Y637089D01*
X514009Y634519D01*
X513241Y631653D01*
Y628685D01*
X514009Y625819D01*
X515493Y623249D01*
X517591Y621151D01*
X520161Y619667D01*
X523027Y618899D01*
X525995D01*
X528861Y619667D01*
X531431Y621151D01*
X533529Y623249D01*
X535013Y625819D01*
X535781Y628685D01*
Y631653D01*
X535013Y634519D01*
X533529Y637089D01*
X531431Y639187D01*
X528861Y640671D01*
X525995Y641439D01*
D02*
G37*
G36*
X124245D02*
X121277D01*
X118411Y640671D01*
X115841Y639187D01*
X113743Y637089D01*
X112259Y634519D01*
X111491Y631653D01*
Y628685D01*
X112259Y625819D01*
X113743Y623249D01*
X115841Y621151D01*
X118411Y619667D01*
X121277Y618899D01*
X124245D01*
X127111Y619667D01*
X129681Y621151D01*
X131779Y623249D01*
X133263Y625819D01*
X134031Y628685D01*
Y631653D01*
X133263Y634519D01*
X131779Y637089D01*
X129681Y639187D01*
X127111Y640671D01*
X124245Y641439D01*
D02*
G37*
G36*
X682973Y641439D02*
X680005D01*
X677139Y640671D01*
X674569Y639187D01*
X672471Y637089D01*
X670987Y634519D01*
X670219Y631653D01*
Y628685D01*
X670987Y625819D01*
X672471Y623249D01*
X674569Y621151D01*
X677139Y619667D01*
X680005Y618899D01*
X682973D01*
X685839Y619667D01*
X688409Y621151D01*
X690507Y623249D01*
X691991Y625819D01*
X692759Y628685D01*
Y631653D01*
X691991Y634519D01*
X690507Y637089D01*
X688409Y639187D01*
X685839Y640671D01*
X682973Y641439D01*
D02*
G37*
G36*
X281223D02*
X278255D01*
X275389Y640671D01*
X272819Y639187D01*
X270721Y637089D01*
X269237Y634519D01*
X268469Y631653D01*
Y628685D01*
X269237Y625819D01*
X270721Y623249D01*
X272819Y621151D01*
X275389Y619667D01*
X278255Y618899D01*
X281223D01*
X284089Y619667D01*
X286659Y621151D01*
X288757Y623249D01*
X290241Y625819D01*
X291009Y628685D01*
Y631653D01*
X290241Y634519D01*
X288757Y637089D01*
X286659Y639187D01*
X284089Y640671D01*
X281223Y641439D01*
D02*
G37*
G36*
X581789Y652329D02*
X508000D01*
X506822Y652095D01*
X505823Y651427D01*
X469935Y615539D01*
X411790D01*
X410612Y615305D01*
X409613Y614637D01*
X409613Y614637D01*
X365823Y570847D01*
X365155Y569848D01*
X364921Y568670D01*
Y557928D01*
X364884Y557913D01*
X363337Y556366D01*
X362500Y554344D01*
Y552156D01*
X363337Y550135D01*
X364884Y548587D01*
X366906Y547750D01*
X369094D01*
X371115Y548587D01*
X372663Y550135D01*
X373500Y552156D01*
Y554344D01*
X372663Y556366D01*
X371115Y557913D01*
X371079Y557928D01*
Y567395D01*
X373681Y569997D01*
X374778Y569458D01*
X374861Y569380D01*
Y546139D01*
X373837Y545116D01*
X373000Y543094D01*
Y540906D01*
X373837Y538885D01*
X375384Y537337D01*
X377406Y536500D01*
X379594D01*
X381615Y537337D01*
X383163Y538885D01*
X384000Y540906D01*
Y543094D01*
X383163Y545116D01*
X381615Y546663D01*
X381019Y546910D01*
Y568142D01*
X412898Y600021D01*
X563001D01*
Y599957D01*
X563769Y597090D01*
X565253Y594520D01*
X567351Y592422D01*
X569921Y590938D01*
X572787Y590170D01*
X575755D01*
X578621Y590938D01*
X581191Y592422D01*
X583289Y594520D01*
X584773Y597090D01*
X585541Y599957D01*
Y602924D01*
X584773Y605790D01*
X583289Y608360D01*
X581191Y610458D01*
X578621Y611942D01*
X575755Y612710D01*
X572787D01*
X569921Y611942D01*
X567351Y610458D01*
X565253Y608360D01*
X563994Y606179D01*
X411660D01*
X411582Y606262D01*
X411043Y607359D01*
X413065Y609381D01*
X471210D01*
X472388Y609615D01*
X473387Y610283D01*
X509275Y646171D01*
X580514D01*
X617038Y609647D01*
X621157Y605528D01*
X620459Y602924D01*
Y599957D01*
X621227Y597090D01*
X622711Y594520D01*
X624809Y592422D01*
X627379Y590938D01*
X630245Y590170D01*
X633213D01*
X636079Y590938D01*
X638649Y592422D01*
X640747Y594520D01*
X642231Y597090D01*
X642999Y599957D01*
Y602924D01*
X642231Y605790D01*
X640747Y608360D01*
X638649Y610458D01*
X636079Y611942D01*
X633213Y612710D01*
X630245D01*
X627379Y611942D01*
X624889Y610505D01*
X621393Y614002D01*
X583967Y651427D01*
X582968Y652095D01*
X581789Y652329D01*
D02*
G37*
G36*
X231463Y612710D02*
X228495D01*
X225629Y611942D01*
X223059Y610458D01*
X220961Y608360D01*
X219477Y605790D01*
X218709Y602924D01*
Y599957D01*
X219477Y597090D01*
X220961Y594520D01*
X223059Y592422D01*
X225629Y590938D01*
X228495Y590170D01*
X231463D01*
X234329Y590938D01*
X236899Y592422D01*
X238997Y594520D01*
X240481Y597090D01*
X241249Y599957D01*
Y602924D01*
X240481Y605790D01*
X238997Y608360D01*
X236899Y610458D01*
X234329Y611942D01*
X231463Y612710D01*
D02*
G37*
G36*
X124245Y798417D02*
X121277D01*
X118411Y797649D01*
X115841Y796165D01*
X113743Y794067D01*
X112259Y791497D01*
X111491Y788631D01*
Y785663D01*
X112259Y782797D01*
X113743Y780227D01*
X115841Y778129D01*
X116684Y777642D01*
Y669242D01*
X116684Y669242D01*
X116899Y668161D01*
X117511Y667245D01*
X169697Y615059D01*
Y612351D01*
X168171Y611942D01*
X165601Y610458D01*
X163503Y608360D01*
X162019Y605790D01*
X161251Y602924D01*
Y599957D01*
X162019Y597090D01*
X163503Y594520D01*
X165601Y592422D01*
X168171Y590938D01*
X171037Y590170D01*
X174005D01*
X176871Y590938D01*
X179441Y592422D01*
X181539Y594520D01*
X183023Y597090D01*
X183791Y599957D01*
Y602924D01*
X183023Y605790D01*
X181539Y608360D01*
X179441Y610458D01*
X176871Y611942D01*
X175345Y612351D01*
Y616229D01*
X175130Y617310D01*
X174518Y618226D01*
X174518Y618226D01*
X122333Y670412D01*
Y775877D01*
X124245D01*
X127111Y776645D01*
X129681Y778129D01*
X131779Y780227D01*
X133263Y782797D01*
X134031Y785663D01*
Y788631D01*
X133263Y791497D01*
X131779Y794067D01*
X129681Y796165D01*
X127111Y797649D01*
X124245Y798417D01*
D02*
G37*
G36*
X111844Y590500D02*
X109656D01*
X107634Y589663D01*
X106087Y588116D01*
X105250Y586094D01*
Y583906D01*
X106087Y581884D01*
X107634Y580337D01*
X109656Y579500D01*
X111844D01*
X112135Y579621D01*
X117753Y574003D01*
X117753Y574003D01*
X118669Y573391D01*
X119750Y573176D01*
X119750Y573176D01*
X260080D01*
X266767Y566489D01*
X266500Y565844D01*
Y563656D01*
X267337Y561634D01*
X268885Y560087D01*
X270906Y559250D01*
X273094D01*
X275116Y560087D01*
X276663Y561634D01*
X277500Y563656D01*
Y565844D01*
X276663Y567865D01*
X275116Y569413D01*
X273094Y570250D01*
X270994D01*
X263247Y577997D01*
X262331Y578609D01*
X261250Y578824D01*
X261250Y578824D01*
X120920D01*
X116129Y583615D01*
X116250Y583906D01*
Y586094D01*
X115413Y588116D01*
X113865Y589663D01*
X111844Y590500D01*
D02*
G37*
G36*
X237307Y522240D02*
X236985D01*
Y515605D01*
X243620D01*
Y515927D01*
X243125Y517776D01*
X242167Y519434D01*
X240814Y520787D01*
X239156Y521744D01*
X237307Y522240D01*
D02*
G37*
G36*
X235715D02*
X235393D01*
X233544Y521744D01*
X231886Y520787D01*
X230533Y519434D01*
X229575Y517776D01*
X229080Y515927D01*
Y515605D01*
X235715D01*
Y522240D01*
D02*
G37*
G36*
X559455Y517620D02*
X558935D01*
Y509485D01*
X567070D01*
Y510005D01*
X566472Y512235D01*
X565318Y514235D01*
X563685Y515868D01*
X561685Y517022D01*
X559455Y517620D01*
D02*
G37*
G36*
X557665D02*
X557145D01*
X554915Y517022D01*
X552915Y515868D01*
X551282Y514235D01*
X550128Y512235D01*
X549530Y510005D01*
Y509485D01*
X557665D01*
Y517620D01*
D02*
G37*
G36*
X202913Y526730D02*
X200407D01*
X197985Y526081D01*
X195815Y524828D01*
X194042Y523055D01*
X192789Y520885D01*
X192140Y518463D01*
Y515957D01*
X192789Y513535D01*
X194042Y511365D01*
X195815Y509592D01*
X197985Y508339D01*
X200407Y507690D01*
X202913D01*
X205335Y508339D01*
X207505Y509592D01*
X209278Y511365D01*
X210531Y513535D01*
X211180Y515957D01*
Y518463D01*
X210531Y520885D01*
X209278Y523055D01*
X207505Y524828D01*
X205335Y526081D01*
X202913Y526730D01*
D02*
G37*
G36*
X711855Y517620D02*
X709545D01*
X707315Y517022D01*
X705315Y515868D01*
X703682Y514235D01*
X702528Y512235D01*
X701930Y510005D01*
Y507695D01*
X702528Y505465D01*
X703682Y503465D01*
X705315Y501832D01*
X707315Y500678D01*
X709545Y500080D01*
X711855D01*
X714085Y500678D01*
X716085Y501832D01*
X717718Y503465D01*
X718872Y505465D01*
X719470Y507695D01*
Y510005D01*
X718872Y512235D01*
X717718Y514235D01*
X716085Y515868D01*
X714085Y517022D01*
X711855Y517620D01*
D02*
G37*
G36*
X686455D02*
X684145D01*
X681915Y517022D01*
X679915Y515868D01*
X678282Y514235D01*
X677128Y512235D01*
X676530Y510005D01*
Y507695D01*
X677128Y505465D01*
X678282Y503465D01*
X679915Y501832D01*
X681915Y500678D01*
X684145Y500080D01*
X686455D01*
X688685Y500678D01*
X690685Y501832D01*
X692318Y503465D01*
X693472Y505465D01*
X694070Y507695D01*
Y510005D01*
X693472Y512235D01*
X692318Y514235D01*
X690685Y515868D01*
X688685Y517022D01*
X686455Y517620D01*
D02*
G37*
G36*
X661055D02*
X658745D01*
X656515Y517022D01*
X654515Y515868D01*
X652882Y514235D01*
X651728Y512235D01*
X651130Y510005D01*
Y507695D01*
X651728Y505465D01*
X652882Y503465D01*
X654515Y501832D01*
X656515Y500678D01*
X658745Y500080D01*
X661055D01*
X663285Y500678D01*
X665285Y501832D01*
X666918Y503465D01*
X668072Y505465D01*
X668670Y507695D01*
Y510005D01*
X668072Y512235D01*
X666918Y514235D01*
X665285Y515868D01*
X663285Y517022D01*
X661055Y517620D01*
D02*
G37*
G36*
X610255D02*
X607945D01*
X605715Y517022D01*
X603715Y515868D01*
X602082Y514235D01*
X600928Y512235D01*
X600330Y510005D01*
Y507695D01*
X600928Y505465D01*
X602082Y503465D01*
X603715Y501832D01*
X605715Y500678D01*
X607945Y500080D01*
X610255D01*
X612485Y500678D01*
X614485Y501832D01*
X616118Y503465D01*
X617272Y505465D01*
X617870Y507695D01*
Y510005D01*
X617272Y512235D01*
X616118Y514235D01*
X614485Y515868D01*
X612485Y517022D01*
X610255Y517620D01*
D02*
G37*
G36*
X584855D02*
X582545D01*
X580315Y517022D01*
X578315Y515868D01*
X576682Y514235D01*
X575528Y512235D01*
X574930Y510005D01*
Y507695D01*
X575528Y505465D01*
X576682Y503465D01*
X578315Y501832D01*
X580315Y500678D01*
X582545Y500080D01*
X584855D01*
X587085Y500678D01*
X589085Y501832D01*
X590718Y503465D01*
X591872Y505465D01*
X592470Y507695D01*
Y510005D01*
X591872Y512235D01*
X590718Y514235D01*
X589085Y515868D01*
X587085Y517022D01*
X584855Y517620D01*
D02*
G37*
G36*
X557665Y508215D02*
X549530D01*
Y507695D01*
X550128Y505465D01*
X551282Y503465D01*
X552915Y501832D01*
X554915Y500678D01*
X557145Y500080D01*
X557665D01*
Y508215D01*
D02*
G37*
G36*
X534055Y517620D02*
X531745D01*
X529515Y517022D01*
X527515Y515868D01*
X525882Y514235D01*
X524728Y512235D01*
X524130Y510005D01*
Y507695D01*
X524728Y505465D01*
X525882Y503465D01*
X527515Y501832D01*
X529515Y500678D01*
X531745Y500080D01*
X534055D01*
X536285Y500678D01*
X538285Y501832D01*
X539918Y503465D01*
X541072Y505465D01*
X541670Y507695D01*
Y510005D01*
X541072Y512235D01*
X539918Y514235D01*
X538285Y515868D01*
X536285Y517022D01*
X534055Y517620D01*
D02*
G37*
G36*
X483255D02*
X480945D01*
X478715Y517022D01*
X476715Y515868D01*
X475082Y514235D01*
X473928Y512235D01*
X473330Y510005D01*
Y507695D01*
X473928Y505465D01*
X475082Y503465D01*
X476715Y501832D01*
X478715Y500678D01*
X480945Y500080D01*
X483255D01*
X485485Y500678D01*
X487485Y501832D01*
X489118Y503465D01*
X490272Y505465D01*
X490870Y507695D01*
Y510005D01*
X490272Y512235D01*
X489118Y514235D01*
X487485Y515868D01*
X485485Y517022D01*
X483255Y517620D01*
D02*
G37*
G36*
X457855D02*
X455545D01*
X453315Y517022D01*
X451315Y515868D01*
X449682Y514235D01*
X448528Y512235D01*
X447930Y510005D01*
Y507695D01*
X448528Y505465D01*
X449682Y503465D01*
X451315Y501832D01*
X453315Y500678D01*
X455545Y500080D01*
X457855D01*
X460085Y500678D01*
X462085Y501832D01*
X463718Y503465D01*
X464872Y505465D01*
X465470Y507695D01*
Y510005D01*
X464872Y512235D01*
X463718Y514235D01*
X462085Y515868D01*
X460085Y517022D01*
X457855Y517620D01*
D02*
G37*
G36*
X438594Y595750D02*
X436406D01*
X434384Y594913D01*
X432837Y593366D01*
X432000Y591344D01*
Y589156D01*
X432015Y589120D01*
X429123Y586227D01*
X428455Y585228D01*
X428221Y584050D01*
Y517104D01*
X427915Y517022D01*
X425915Y515868D01*
X424282Y514235D01*
X423128Y512235D01*
X422530Y510005D01*
Y507695D01*
X423128Y505465D01*
X423286Y505191D01*
X417775Y499679D01*
X410096D01*
X409755Y500949D01*
X411285Y501832D01*
X412918Y503465D01*
X414072Y505465D01*
X414670Y507695D01*
Y510005D01*
X414072Y512235D01*
X413914Y512509D01*
X417427Y516023D01*
X418095Y517022D01*
X418329Y518200D01*
Y583422D01*
X418366Y583437D01*
X419913Y584985D01*
X420750Y587006D01*
Y589194D01*
X419913Y591216D01*
X418366Y592763D01*
X416344Y593600D01*
X414156D01*
X412135Y592763D01*
X410587Y591216D01*
X409750Y589194D01*
Y587006D01*
X410587Y584985D01*
X412135Y583437D01*
X412171Y583422D01*
Y519475D01*
X409559Y516864D01*
X409285Y517022D01*
X407055Y517620D01*
X404745D01*
X402515Y517022D01*
X402241Y516864D01*
X389677Y529427D01*
X388678Y530095D01*
X387500Y530329D01*
X312448D01*
X293121Y549656D01*
X293123Y549748D01*
X293517Y550926D01*
X296500D01*
X296500Y550926D01*
X297581Y551141D01*
X298497Y551753D01*
X306615Y559871D01*
X306906Y559750D01*
X309094D01*
X311115Y560587D01*
X312663Y562135D01*
X313500Y564156D01*
Y566344D01*
X312663Y568366D01*
X311115Y569913D01*
X309094Y570750D01*
X306906D01*
X304884Y569913D01*
X303337Y568366D01*
X302500Y566344D01*
Y564156D01*
X302621Y563865D01*
X295330Y556574D01*
X106283D01*
X106163Y556866D01*
X104615Y558413D01*
X102594Y559250D01*
X100406D01*
X98385Y558413D01*
X96837Y556866D01*
X96000Y554844D01*
Y552656D01*
X96837Y550634D01*
X98385Y549087D01*
X100406Y548250D01*
X102594D01*
X104615Y549087D01*
X106163Y550634D01*
X106283Y550926D01*
X168905D01*
X169299Y549748D01*
X169301Y549656D01*
X149285Y529640D01*
X138400D01*
X133955Y525195D01*
Y516305D01*
X138400Y511860D01*
X151100D01*
X155545Y516305D01*
Y525195D01*
X154547Y526193D01*
X172775Y544421D01*
X186563D01*
X186958Y543264D01*
X186962Y543151D01*
X148051Y504240D01*
X138400D01*
X133955Y499795D01*
Y490905D01*
X138400Y486460D01*
X151100D01*
X155545Y490905D01*
Y499795D01*
X153930Y501410D01*
X190441Y537921D01*
X193148D01*
X193543Y536764D01*
X193546Y536651D01*
X177823Y520927D01*
X177155Y519928D01*
X176921Y518750D01*
Y477928D01*
X176884Y477913D01*
X175337Y476366D01*
X174500Y474344D01*
Y472156D01*
X175337Y470135D01*
X176884Y468587D01*
X178906Y467750D01*
X181094D01*
X183116Y468587D01*
X184663Y470135D01*
X185500Y472156D01*
Y474344D01*
X184663Y476366D01*
X183116Y477913D01*
X183079Y477928D01*
Y517475D01*
X197025Y531421D01*
X283975D01*
X291853Y523543D01*
X291902Y523510D01*
X291516Y522240D01*
X279080D01*
Y507700D01*
X289265D01*
X323041Y473925D01*
Y455080D01*
X318850D01*
Y440540D01*
X333390D01*
Y445698D01*
X561350D01*
X561365Y445661D01*
X562912Y444114D01*
X564934Y443277D01*
X567122D01*
X569143Y444114D01*
X570690Y445661D01*
X571528Y447683D01*
Y449871D01*
X570690Y451892D01*
X569143Y453439D01*
X567122Y454277D01*
X564934D01*
X562912Y453439D01*
X561365Y451892D01*
X561350Y451856D01*
X333390D01*
Y455080D01*
X329199D01*
Y475200D01*
X328965Y476378D01*
X328297Y477377D01*
X293620Y512055D01*
Y520404D01*
X294793Y520890D01*
X305110Y510573D01*
X306109Y509905D01*
X307288Y509671D01*
X365224D01*
X386973Y487923D01*
X387972Y487255D01*
X389150Y487021D01*
X490600D01*
X491778Y487255D01*
X492777Y487923D01*
X505233Y500378D01*
X506345Y500080D01*
X508655D01*
X510885Y500678D01*
X512885Y501832D01*
X514518Y503465D01*
X515672Y505465D01*
X516270Y507695D01*
Y510005D01*
X515672Y512235D01*
X514518Y514235D01*
X512885Y515868D01*
X510885Y517022D01*
X508655Y517620D01*
X506345D01*
X504115Y517022D01*
X502115Y515868D01*
X500482Y514235D01*
X499328Y512235D01*
X498730Y510005D01*
Y507695D01*
X499328Y505465D01*
X500163Y504018D01*
X489325Y493179D01*
X421652D01*
X421257Y494336D01*
X421254Y494449D01*
X427641Y500836D01*
X427915Y500678D01*
X430145Y500080D01*
X432455D01*
X434685Y500678D01*
X436685Y501832D01*
X438318Y503465D01*
X439472Y505465D01*
X440070Y507695D01*
Y510005D01*
X439472Y512235D01*
X438318Y514235D01*
X436685Y515868D01*
X434685Y517022D01*
X434379Y517104D01*
Y582775D01*
X436370Y584765D01*
X436406Y584750D01*
X438594D01*
X440616Y585587D01*
X442163Y587135D01*
X443000Y589156D01*
Y591344D01*
X442163Y593366D01*
X440616Y594913D01*
X438594Y595750D01*
D02*
G37*
G36*
X737255Y517620D02*
X734945D01*
X732715Y517022D01*
X730715Y515868D01*
X729082Y514235D01*
X727928Y512235D01*
X727330Y510005D01*
Y507695D01*
X727928Y505465D01*
X729082Y503465D01*
X730715Y501832D01*
X732715Y500678D01*
X733021Y500596D01*
Y495782D01*
X733255Y494604D01*
X733923Y493605D01*
X739433Y488094D01*
X738907Y486824D01*
X660520D01*
X642382Y504962D01*
X642672Y505465D01*
X643270Y507695D01*
Y510005D01*
X642672Y512235D01*
X641518Y514235D01*
X639885Y515868D01*
X637885Y517022D01*
X635655Y517620D01*
X633345D01*
X631115Y517022D01*
X629115Y515868D01*
X627482Y514235D01*
X626328Y512235D01*
X625730Y510005D01*
Y507695D01*
X626328Y505465D01*
X627482Y503465D01*
X629115Y501832D01*
X631115Y500678D01*
X633345Y500080D01*
X635655D01*
X637885Y500678D01*
X638388Y500968D01*
X657353Y482003D01*
X657353Y482003D01*
X658269Y481391D01*
X659350Y481176D01*
X659350Y481176D01*
X738524D01*
X780176Y439524D01*
Y270009D01*
X703441Y193274D01*
X679045D01*
Y193445D01*
X674600Y197890D01*
X661900D01*
X657455Y193445D01*
Y184555D01*
X661900Y180110D01*
X674600D01*
X679045Y184555D01*
Y187626D01*
X704475D01*
X704731Y187308D01*
X705067Y186422D01*
X705023Y186377D01*
X704355Y185378D01*
X704250Y184848D01*
X680218Y160817D01*
X679045Y161303D01*
Y168045D01*
X674600Y172490D01*
X661900D01*
X657455Y168045D01*
Y159155D01*
X660761Y155849D01*
X660235Y154579D01*
X642678D01*
X642663Y154615D01*
X641115Y156163D01*
X639094Y157000D01*
X636906D01*
X634884Y156163D01*
X633337Y154615D01*
X632500Y152594D01*
Y150406D01*
X633337Y148385D01*
X634884Y146837D01*
X636906Y146000D01*
X639094D01*
X641115Y146837D01*
X642663Y148385D01*
X642678Y148421D01*
X675256D01*
X676434Y148655D01*
X677433Y149323D01*
X709377Y181267D01*
X709377Y181267D01*
X710045Y182266D01*
X710150Y182796D01*
X791927Y264573D01*
X792595Y265572D01*
X792829Y266750D01*
Y442132D01*
X792595Y443310D01*
X791927Y444309D01*
X739179Y497057D01*
Y500596D01*
X739485Y500678D01*
X741485Y501832D01*
X743118Y503465D01*
X744272Y505465D01*
X744870Y507695D01*
Y510005D01*
X744272Y512235D01*
X743118Y514235D01*
X741485Y515868D01*
X739485Y517022D01*
X737255Y517620D01*
D02*
G37*
G36*
X327077Y503880D02*
X325163D01*
X323314Y503385D01*
X321656Y502427D01*
X320303Y501074D01*
X319345Y499416D01*
X318850Y497567D01*
Y495653D01*
X319345Y493804D01*
X320303Y492146D01*
X321656Y490793D01*
X323314Y489835D01*
X325163Y489340D01*
X327077D01*
X328622Y489754D01*
X341053Y477323D01*
X341053Y477323D01*
X342052Y476655D01*
X343230Y476421D01*
X562822D01*
X562837Y476385D01*
X564384Y474837D01*
X566406Y474000D01*
X568594D01*
X570616Y474837D01*
X572163Y476385D01*
X573000Y478406D01*
Y480594D01*
X572163Y482616D01*
X570616Y484163D01*
X568594Y485000D01*
X566406D01*
X564384Y484163D01*
X562837Y482616D01*
X562822Y482579D01*
X344505D01*
X332976Y494108D01*
X333390Y495653D01*
Y497567D01*
X332895Y499416D01*
X331937Y501074D01*
X330584Y502427D01*
X328926Y503385D01*
X327077Y503880D01*
D02*
G37*
G36*
X243620Y514335D02*
X236350D01*
X229080D01*
Y514013D01*
X229575Y512164D01*
X230533Y510506D01*
X231886Y509153D01*
X233271Y508353D01*
Y480540D01*
X229080D01*
Y473905D01*
X243620D01*
Y480540D01*
X239429D01*
Y508353D01*
X240814Y509153D01*
X242167Y510506D01*
X243125Y512164D01*
X243620Y514013D01*
Y514335D01*
D02*
G37*
G36*
X287307Y480540D02*
X285393D01*
X283544Y480045D01*
X281886Y479087D01*
X280533Y477734D01*
X279575Y476076D01*
X279080Y474227D01*
Y472313D01*
X279575Y470464D01*
X280533Y468806D01*
X281886Y467453D01*
X283544Y466495D01*
X285393Y466000D01*
X287307D01*
X289156Y466495D01*
X290814Y467453D01*
X292167Y468806D01*
X293125Y470464D01*
X293620Y472313D01*
Y474227D01*
X293125Y476076D01*
X292167Y477734D01*
X290814Y479087D01*
X289156Y480045D01*
X287307Y480540D01*
D02*
G37*
G36*
X151100Y478840D02*
X138400D01*
X133955Y474395D01*
Y465505D01*
X138400Y461060D01*
X151100D01*
X155545Y465505D01*
Y474395D01*
X151100Y478840D01*
D02*
G37*
G36*
X144115Y453440D02*
X138400D01*
X133955Y448995D01*
Y445185D01*
X144115D01*
Y453440D01*
D02*
G37*
G36*
X414670Y441420D02*
X397130D01*
Y435729D01*
X292343D01*
X292167Y436034D01*
X290814Y437387D01*
X289156Y438345D01*
X287307Y438840D01*
X285393D01*
X283544Y438345D01*
X281886Y437387D01*
X280533Y436034D01*
X279575Y434376D01*
X279080Y432527D01*
Y430613D01*
X279575Y428764D01*
X280533Y427106D01*
X281886Y425753D01*
X283544Y424795D01*
X285393Y424300D01*
X287307D01*
X289156Y424795D01*
X290814Y425753D01*
X292167Y427106D01*
X293125Y428764D01*
X293341Y429571D01*
X397130D01*
Y423880D01*
X414670D01*
Y441420D01*
D02*
G37*
G36*
X144115Y443915D02*
X133955D01*
Y440105D01*
X138400Y435660D01*
X144115D01*
Y443915D01*
D02*
G37*
G36*
X151100Y453440D02*
X145385D01*
Y444550D01*
Y435660D01*
X151100D01*
X155545Y440105D01*
Y441471D01*
X183045D01*
X192140Y432375D01*
Y427845D01*
X201025D01*
Y436730D01*
X196495D01*
X186497Y446727D01*
X185498Y447395D01*
X184320Y447629D01*
X155545D01*
Y448995D01*
X151100Y453440D01*
D02*
G37*
G36*
X737255Y441420D02*
X734945D01*
X732715Y440822D01*
X730715Y439668D01*
X729082Y438035D01*
X727928Y436035D01*
X727330Y433805D01*
Y431495D01*
X727928Y429265D01*
X729082Y427265D01*
X730715Y425632D01*
X732715Y424478D01*
X734945Y423880D01*
X737255D01*
X739485Y424478D01*
X741485Y425632D01*
X743118Y427265D01*
X744272Y429265D01*
X744870Y431495D01*
Y433805D01*
X744272Y436035D01*
X743118Y438035D01*
X741485Y439668D01*
X739485Y440822D01*
X737255Y441420D01*
D02*
G37*
G36*
X711855D02*
X709545D01*
X707315Y440822D01*
X705315Y439668D01*
X703682Y438035D01*
X702528Y436035D01*
X701930Y433805D01*
Y431495D01*
X702528Y429265D01*
X702686Y428991D01*
X640823Y367127D01*
X640155Y366128D01*
X639921Y364950D01*
Y279271D01*
X639884Y279256D01*
X638337Y277709D01*
X637500Y275688D01*
Y273500D01*
X638337Y271478D01*
X639884Y269931D01*
X641906Y269093D01*
X644094D01*
X646115Y269931D01*
X647663Y271478D01*
X648500Y273500D01*
Y275688D01*
X647663Y277709D01*
X646115Y279256D01*
X646079Y279271D01*
Y363675D01*
X707041Y424636D01*
X707315Y424478D01*
X709545Y423880D01*
X711855D01*
X714085Y424478D01*
X716085Y425632D01*
X717718Y427265D01*
X718872Y429265D01*
X719470Y431495D01*
Y433805D01*
X718872Y436035D01*
X717718Y438035D01*
X716085Y439668D01*
X714085Y440822D01*
X711855Y441420D01*
D02*
G37*
G36*
X567070Y508215D02*
X558935D01*
Y499960D01*
X580621Y478275D01*
Y440904D01*
X580315Y440822D01*
X578315Y439668D01*
X576682Y438035D01*
X575528Y436035D01*
X574930Y433805D01*
Y433285D01*
X583700D01*
Y432650D01*
X584335D01*
Y423880D01*
X584855D01*
X587085Y424478D01*
X589085Y425632D01*
X590398Y426945D01*
X616421Y400922D01*
Y338500D01*
X616655Y337322D01*
X617323Y336323D01*
X618322Y335655D01*
X619500Y335421D01*
X620678Y335655D01*
X621677Y336323D01*
X622345Y337322D01*
X622401Y337604D01*
X623671Y337479D01*
Y149775D01*
X592630Y118735D01*
X592594Y118750D01*
X590406D01*
X588385Y117913D01*
X586837Y116365D01*
X586000Y114344D01*
Y112156D01*
X586837Y110134D01*
X588385Y108587D01*
X590406Y107750D01*
X592594D01*
X594616Y108587D01*
X596163Y110134D01*
X597000Y112156D01*
Y114344D01*
X596985Y114380D01*
X628927Y146323D01*
X628927Y146323D01*
X629595Y147322D01*
X629829Y148500D01*
X629829Y148500D01*
Y266053D01*
X631003Y266539D01*
X635421Y262120D01*
Y255928D01*
X635384Y255913D01*
X633837Y254366D01*
X633000Y252344D01*
Y250156D01*
X633837Y248134D01*
X635384Y246587D01*
X637406Y245750D01*
X639594D01*
X641616Y246587D01*
X643163Y248134D01*
X644000Y250156D01*
Y252344D01*
X643163Y254366D01*
X641616Y255913D01*
X641579Y255928D01*
Y263396D01*
X641345Y264574D01*
X640677Y265573D01*
X634979Y271271D01*
Y377975D01*
X681641Y424636D01*
X681915Y424478D01*
X684145Y423880D01*
X686455D01*
X688685Y424478D01*
X690685Y425632D01*
X692318Y427265D01*
X693472Y429265D01*
X694070Y431495D01*
Y433805D01*
X693472Y436035D01*
X692318Y438035D01*
X690685Y439668D01*
X688685Y440822D01*
X686455Y441420D01*
X684145D01*
X681915Y440822D01*
X679915Y439668D01*
X678282Y438035D01*
X677128Y436035D01*
X676530Y433805D01*
Y431495D01*
X677128Y429265D01*
X677286Y428991D01*
X631003Y382707D01*
X629829Y383193D01*
Y398225D01*
X656241Y424636D01*
X656515Y424478D01*
X658745Y423880D01*
X661055D01*
X663285Y424478D01*
X665285Y425632D01*
X666918Y427265D01*
X668072Y429265D01*
X668670Y431495D01*
Y433805D01*
X668072Y436035D01*
X666918Y438035D01*
X665285Y439668D01*
X663285Y440822D01*
X661055Y441420D01*
X658745D01*
X656515Y440822D01*
X654515Y439668D01*
X652882Y438035D01*
X651728Y436035D01*
X651130Y433805D01*
Y431495D01*
X651728Y429265D01*
X651886Y428991D01*
X624573Y401677D01*
X623905Y400678D01*
X623849Y400396D01*
X622579Y400521D01*
Y402198D01*
X622345Y403376D01*
X621677Y404375D01*
X592470Y433582D01*
Y433805D01*
X591872Y436035D01*
X590718Y438035D01*
X589085Y439668D01*
X587085Y440822D01*
X586779Y440904D01*
Y479550D01*
X586779Y479550D01*
X586545Y480728D01*
X585877Y481727D01*
X585877Y481727D01*
X564729Y502876D01*
X565318Y503465D01*
X566472Y505465D01*
X567070Y507695D01*
Y508215D01*
D02*
G37*
G36*
X635655Y441420D02*
X633345D01*
X631115Y440822D01*
X629115Y439668D01*
X627482Y438035D01*
X626328Y436035D01*
X625730Y433805D01*
Y431495D01*
X626328Y429265D01*
X627482Y427265D01*
X629115Y425632D01*
X631115Y424478D01*
X633345Y423880D01*
X635655D01*
X637885Y424478D01*
X639885Y425632D01*
X641518Y427265D01*
X642672Y429265D01*
X643270Y431495D01*
Y433805D01*
X642672Y436035D01*
X641518Y438035D01*
X639885Y439668D01*
X637885Y440822D01*
X635655Y441420D01*
D02*
G37*
G36*
X610255D02*
X607945D01*
X605715Y440822D01*
X603715Y439668D01*
X602082Y438035D01*
X600928Y436035D01*
X600330Y433805D01*
Y431495D01*
X600928Y429265D01*
X602082Y427265D01*
X603715Y425632D01*
X605715Y424478D01*
X607945Y423880D01*
X610255D01*
X612485Y424478D01*
X614485Y425632D01*
X616118Y427265D01*
X617272Y429265D01*
X617870Y431495D01*
Y433805D01*
X617272Y436035D01*
X616118Y438035D01*
X614485Y439668D01*
X612485Y440822D01*
X610255Y441420D01*
D02*
G37*
G36*
X583065Y432015D02*
X574930D01*
Y431495D01*
X575528Y429265D01*
X575686Y428991D01*
X569573Y422877D01*
X568905Y421878D01*
X568671Y420700D01*
Y372000D01*
X568905Y370822D01*
X569573Y369823D01*
X579073Y360323D01*
X580072Y359655D01*
X581250Y359421D01*
X582428Y359655D01*
X583427Y360323D01*
X584095Y361322D01*
X584329Y362500D01*
X584095Y363678D01*
X583427Y364677D01*
X574829Y373275D01*
Y419425D01*
X580041Y424636D01*
X580315Y424478D01*
X582545Y423880D01*
X583065D01*
Y432015D01*
D02*
G37*
G36*
X559455Y441420D02*
X557145D01*
X554915Y440822D01*
X552915Y439668D01*
X551282Y438035D01*
X550128Y436035D01*
X549530Y433805D01*
Y431495D01*
X550128Y429265D01*
X551282Y427265D01*
X552915Y425632D01*
X554915Y424478D01*
X557145Y423880D01*
X559455D01*
X561685Y424478D01*
X563685Y425632D01*
X565318Y427265D01*
X566472Y429265D01*
X567070Y431495D01*
Y433805D01*
X566472Y436035D01*
X565318Y438035D01*
X563685Y439668D01*
X561685Y440822D01*
X559455Y441420D01*
D02*
G37*
G36*
X483255D02*
X480945D01*
X478715Y440822D01*
X476715Y439668D01*
X475082Y438035D01*
X473928Y436035D01*
X473330Y433805D01*
Y431495D01*
X473928Y429265D01*
X475082Y427265D01*
X476715Y425632D01*
X478715Y424478D01*
X480945Y423880D01*
X483255D01*
X485485Y424478D01*
X487485Y425632D01*
X489118Y427265D01*
X490272Y429265D01*
X490870Y431495D01*
Y433805D01*
X490272Y436035D01*
X489118Y438035D01*
X487485Y439668D01*
X485485Y440822D01*
X483255Y441420D01*
D02*
G37*
G36*
X432455D02*
X430145D01*
X427915Y440822D01*
X425915Y439668D01*
X424282Y438035D01*
X423128Y436035D01*
X422530Y433805D01*
Y431495D01*
X423128Y429265D01*
X424282Y427265D01*
X425915Y425632D01*
X427915Y424478D01*
X430145Y423880D01*
X432455D01*
X434685Y424478D01*
X436685Y425632D01*
X438318Y427265D01*
X439472Y429265D01*
X440070Y431495D01*
Y433805D01*
X439472Y436035D01*
X438318Y438035D01*
X436685Y439668D01*
X434685Y440822D01*
X432455Y441420D01*
D02*
G37*
G36*
X201025Y426575D02*
X192140D01*
Y417690D01*
X201025D01*
Y426575D01*
D02*
G37*
G36*
X720344Y465000D02*
X718156D01*
X716134Y464163D01*
X714587Y462616D01*
X713750Y460594D01*
Y458406D01*
X714587Y456385D01*
X716134Y454837D01*
X718156Y454000D01*
X720344D01*
X722365Y454837D01*
X723913Y456385D01*
X724033Y456676D01*
X734330D01*
X748926Y442080D01*
Y429170D01*
X731635Y411879D01*
X731344Y412000D01*
X729156D01*
X727134Y411163D01*
X725587Y409616D01*
X724750Y407594D01*
Y405406D01*
X725587Y403385D01*
X727134Y401837D01*
X729156Y401000D01*
X731344D01*
X733365Y401837D01*
X734913Y403385D01*
X735750Y405406D01*
Y407594D01*
X735629Y407885D01*
X753747Y426003D01*
X754359Y426919D01*
X754574Y428000D01*
X754574Y428000D01*
Y443250D01*
X754574Y443250D01*
X754359Y444331D01*
X753747Y445247D01*
X737497Y461497D01*
X736581Y462109D01*
X735500Y462324D01*
X735500Y462324D01*
X724033D01*
X723913Y462616D01*
X722365Y464163D01*
X720344Y465000D01*
D02*
G37*
G36*
X243620Y472635D02*
X229080D01*
Y466000D01*
X233271D01*
Y452375D01*
X212450Y431555D01*
X211180Y432081D01*
Y436730D01*
X202295D01*
Y427210D01*
Y417690D01*
X211180D01*
Y424781D01*
X213110D01*
X214288Y425015D01*
X215287Y425682D01*
X227810Y438205D01*
X229080Y437679D01*
Y424300D01*
X233271D01*
Y417375D01*
X214985Y399089D01*
X155545D01*
Y399445D01*
X151100Y403890D01*
X138400D01*
X133955Y399445D01*
Y390555D01*
X138400Y386110D01*
X151100D01*
X155545Y390555D01*
Y392931D01*
X216260D01*
X217438Y393165D01*
X218437Y393833D01*
X238527Y413923D01*
X239195Y414922D01*
X239429Y416100D01*
Y424300D01*
X243620D01*
Y438840D01*
X230241D01*
X229715Y440110D01*
X238527Y448923D01*
X239195Y449922D01*
X239429Y451100D01*
X239429Y451100D01*
Y466000D01*
X243620D01*
Y472635D01*
D02*
G37*
G36*
X508655Y441420D02*
X506345D01*
X504115Y440822D01*
X502115Y439668D01*
X500482Y438035D01*
X499328Y436035D01*
X498730Y433805D01*
Y431495D01*
X499328Y429265D01*
X500482Y427265D01*
X502115Y425632D01*
X504115Y424478D01*
X504421Y424396D01*
Y414525D01*
X463725Y373829D01*
X208335D01*
X207157Y373595D01*
X206158Y372927D01*
X198660Y365430D01*
X189029D01*
X188581Y365430D01*
X188055Y366700D01*
X199775Y378421D01*
X444448D01*
X445626Y378655D01*
X446625Y379323D01*
X458718Y391416D01*
X458755Y391401D01*
X460943D01*
X462964Y392239D01*
X464511Y393786D01*
X465349Y395807D01*
Y397995D01*
X464511Y400017D01*
X462964Y401564D01*
X460943Y402401D01*
X458755D01*
X456733Y401564D01*
X455186Y400017D01*
X454349Y397995D01*
Y395807D01*
X454364Y395771D01*
X443172Y384579D01*
X437533D01*
X437219Y385849D01*
X437927Y386323D01*
X458877Y407273D01*
X458877Y407273D01*
X459545Y408272D01*
X459779Y409450D01*
X459779Y409450D01*
Y424396D01*
X460085Y424478D01*
X462085Y425632D01*
X463718Y427265D01*
X464872Y429265D01*
X465470Y431495D01*
Y433805D01*
X464872Y436035D01*
X463718Y438035D01*
X462085Y439668D01*
X460085Y440822D01*
X457855Y441420D01*
X455545D01*
X453315Y440822D01*
X451315Y439668D01*
X449682Y438035D01*
X448528Y436035D01*
X447930Y433805D01*
Y431495D01*
X448528Y429265D01*
X449682Y427265D01*
X451315Y425632D01*
X453315Y424478D01*
X453621Y424396D01*
Y410725D01*
X434475Y391579D01*
X178750D01*
X177572Y391345D01*
X176573Y390677D01*
X176573Y390677D01*
X159585Y373689D01*
X155545D01*
Y374045D01*
X151100Y378490D01*
X138400D01*
X133955Y374045D01*
Y365155D01*
X138400Y360710D01*
X151100D01*
X155545Y365155D01*
Y367531D01*
X160860D01*
X162038Y367765D01*
X163037Y368433D01*
X180025Y385421D01*
X196717D01*
X197031Y384151D01*
X196323Y383677D01*
X196323Y383677D01*
X160935Y348289D01*
X155545D01*
Y348645D01*
X151100Y353090D01*
X138400D01*
X133955Y348645D01*
Y339755D01*
X138400Y335310D01*
X151100D01*
X155545Y339755D01*
Y342131D01*
X162210D01*
X163388Y342365D01*
X164387Y343033D01*
X186705Y365350D01*
X187975Y364824D01*
X187975Y364411D01*
Y350390D01*
X203015D01*
Y361075D01*
X209610Y367671D01*
X227729D01*
X227854Y366401D01*
X227572Y366345D01*
X226573Y365677D01*
X225905Y364678D01*
X225671Y363500D01*
X225905Y362322D01*
X226573Y361323D01*
X232163Y355733D01*
X233162Y355065D01*
X234340Y354831D01*
X234340Y354831D01*
X291139D01*
X292027Y353293D01*
X293428Y351893D01*
X294966Y351004D01*
Y342920D01*
X295200Y341741D01*
X295868Y340742D01*
X347026Y289584D01*
Y281210D01*
X342585D01*
Y274325D01*
X357625D01*
Y281210D01*
X353184D01*
Y290860D01*
X353184Y290860D01*
X352950Y292038D01*
X352282Y293037D01*
X352282Y293037D01*
X301124Y344195D01*
Y351004D01*
X302662Y351893D01*
X304062Y353293D01*
X305053Y355007D01*
X305565Y356920D01*
Y357275D01*
X298045D01*
Y357910D01*
X297410D01*
Y365430D01*
X297055D01*
X295142Y364917D01*
X293428Y363927D01*
X292027Y362527D01*
X291139Y360989D01*
X235616D01*
X230927Y365677D01*
X229928Y366345D01*
X229646Y366401D01*
X229771Y367671D01*
X465000D01*
X466178Y367905D01*
X467177Y368573D01*
X509677Y411073D01*
X510345Y412072D01*
X510579Y413250D01*
X510579Y413250D01*
Y424396D01*
X510885Y424478D01*
X512885Y425632D01*
X514518Y427265D01*
X515672Y429265D01*
X516270Y431495D01*
Y433805D01*
X515672Y436035D01*
X514518Y438035D01*
X512885Y439668D01*
X510885Y440822D01*
X508655Y441420D01*
D02*
G37*
G36*
X594844Y417750D02*
X592656D01*
X590634Y416913D01*
X589087Y415365D01*
X588250Y413344D01*
Y411156D01*
X589087Y409134D01*
X590634Y407587D01*
X590926Y407467D01*
Y391704D01*
X590087Y390866D01*
X589250Y388844D01*
Y386656D01*
X590087Y384635D01*
X591634Y383087D01*
X593656Y382250D01*
X595844D01*
X597865Y383087D01*
X599413Y384635D01*
X600250Y386656D01*
Y388844D01*
X599413Y390866D01*
X597865Y392413D01*
X596574Y392948D01*
Y407467D01*
X596866Y407587D01*
X598413Y409134D01*
X599250Y411156D01*
Y413344D01*
X598413Y415365D01*
X596866Y416913D01*
X594844Y417750D01*
D02*
G37*
G36*
X772344Y398000D02*
X770156D01*
X768135Y397163D01*
X766587Y395616D01*
X765750Y393594D01*
Y392907D01*
X745747Y372904D01*
X679045D01*
Y372995D01*
X674600Y377440D01*
X661900D01*
X657455Y372995D01*
Y364105D01*
X661900Y359660D01*
X674600D01*
X679045Y364105D01*
Y364196D01*
X747550D01*
X749216Y364528D01*
X750629Y365471D01*
X772157Y387000D01*
X772344D01*
X774365Y387837D01*
X775913Y389384D01*
X776750Y391406D01*
Y393594D01*
X775913Y395616D01*
X774365Y397163D01*
X772344Y398000D01*
D02*
G37*
G36*
X527340Y365739D02*
X509465D01*
X508287Y365505D01*
X508175Y365430D01*
X505350D01*
Y358545D01*
X512235D01*
Y359581D01*
X526696D01*
X527500Y359421D01*
X528678Y359655D01*
X529677Y360323D01*
X530345Y361322D01*
X530579Y362500D01*
X530345Y363678D01*
X529677Y364677D01*
X529517Y364837D01*
X528518Y365505D01*
X527340Y365739D01*
D02*
G37*
G36*
X299035Y365430D02*
X298680D01*
Y358545D01*
X305565D01*
Y358900D01*
X305053Y360813D01*
X304062Y362527D01*
X302662Y363927D01*
X300948Y364917D01*
X299035Y365430D01*
D02*
G37*
G36*
X357625D02*
X342585D01*
Y350390D01*
X357625D01*
Y354831D01*
X369910D01*
X371088Y355065D01*
X371620Y355421D01*
X386072D01*
X386087Y355384D01*
X387635Y353837D01*
X389656Y353000D01*
X391844D01*
X393866Y353837D01*
X395413Y355384D01*
X396250Y357406D01*
Y359594D01*
X395413Y361615D01*
X393866Y363163D01*
X391844Y364000D01*
X389656D01*
X387635Y363163D01*
X386087Y361615D01*
X386072Y361579D01*
X370500D01*
X369322Y361345D01*
X368789Y360989D01*
X357625D01*
Y365430D01*
D02*
G37*
G36*
X608255D02*
X606275D01*
X604362Y364917D01*
X602648Y363927D01*
X601247Y362527D01*
X600257Y360813D01*
X599745Y358900D01*
Y356920D01*
X600257Y355007D01*
X601247Y353293D01*
X602648Y351893D01*
X604362Y350902D01*
X606275Y350390D01*
X608255D01*
X610168Y350902D01*
X611882Y351893D01*
X613283Y353293D01*
X614272Y355007D01*
X614785Y356920D01*
Y358900D01*
X614272Y360813D01*
X613283Y362527D01*
X611882Y363927D01*
X610168Y364917D01*
X608255Y365430D01*
D02*
G37*
G36*
X512235Y357275D02*
X505350D01*
Y350390D01*
X512235D01*
Y357275D01*
D02*
G37*
G36*
X504080Y365430D02*
X497195D01*
Y360989D01*
X494765D01*
X493587Y360755D01*
X492588Y360087D01*
X455820Y323320D01*
X453290D01*
Y315800D01*
Y308280D01*
X460175D01*
Y312721D01*
X475925D01*
X501636Y287010D01*
Y281210D01*
X497195D01*
Y274325D01*
X512235D01*
Y281210D01*
X507794D01*
Y288285D01*
X507560Y289463D01*
X506892Y290462D01*
X479377Y317977D01*
X478378Y318645D01*
X477200Y318879D01*
X461885D01*
X461359Y320149D01*
X495925Y354715D01*
X497195Y354552D01*
Y350390D01*
X504080D01*
Y357910D01*
Y365430D01*
D02*
G37*
G36*
X453645D02*
X451665D01*
X449752Y364917D01*
X448038Y363927D01*
X446637Y362527D01*
X445648Y360813D01*
X445135Y358900D01*
Y356920D01*
X445648Y355007D01*
X446637Y353293D01*
X448038Y351893D01*
X449752Y350902D01*
X451665Y350390D01*
X453645D01*
X455558Y350902D01*
X457272Y351893D01*
X458672Y353293D01*
X459663Y355007D01*
X460175Y356920D01*
Y358900D01*
X459663Y360813D01*
X458672Y362527D01*
X457272Y363927D01*
X455558Y364917D01*
X453645Y365430D01*
D02*
G37*
G36*
X674600Y352040D02*
X661900D01*
X657455Y347595D01*
Y338705D01*
X661900Y334260D01*
X674600D01*
X679045Y338705D01*
Y347595D01*
X674600Y352040D01*
D02*
G37*
G36*
X196485Y323320D02*
X196130D01*
Y316435D01*
X203015D01*
Y316790D01*
X202502Y318703D01*
X201513Y320417D01*
X200112Y321818D01*
X198398Y322808D01*
X196485Y323320D01*
D02*
G37*
G36*
X452020D02*
X445135D01*
Y316435D01*
X452020D01*
Y323320D01*
D02*
G37*
G36*
X194860D02*
X194505D01*
X192592Y322808D01*
X190878Y321818D01*
X189478Y320417D01*
X188487Y318703D01*
X187975Y316790D01*
Y316435D01*
X194860D01*
Y323320D01*
D02*
G37*
G36*
X151100Y327690D02*
X138400D01*
X133955Y323245D01*
Y314355D01*
X138400Y309910D01*
X151100D01*
X155545Y314355D01*
Y323245D01*
X151100Y327690D01*
D02*
G37*
G36*
X674600Y326640D02*
X661900D01*
X657455Y322195D01*
Y313305D01*
X661900Y308860D01*
X674600D01*
X679045Y313305D01*
Y322195D01*
X674600Y326640D01*
D02*
G37*
G36*
X614785Y323320D02*
X599745D01*
Y308280D01*
X614785D01*
Y323320D01*
D02*
G37*
G36*
X505705D02*
X503725D01*
X501812Y322808D01*
X500098Y321818D01*
X498698Y320417D01*
X497707Y318703D01*
X497195Y316790D01*
Y314810D01*
X497707Y312897D01*
X498698Y311183D01*
X500098Y309783D01*
X501812Y308792D01*
X503725Y308280D01*
X505705D01*
X507618Y308792D01*
X509332Y309783D01*
X510732Y311183D01*
X511722Y312897D01*
X512235Y314810D01*
Y316790D01*
X511722Y318703D01*
X510732Y320417D01*
X509332Y321818D01*
X507618Y322808D01*
X505705Y323320D01*
D02*
G37*
G36*
X452020Y315165D02*
X445135D01*
Y308280D01*
X452020D01*
Y315165D01*
D02*
G37*
G36*
X351095Y323320D02*
X349115D01*
X347202Y322808D01*
X345488Y321818D01*
X344087Y320417D01*
X343097Y318703D01*
X342585Y316790D01*
Y314810D01*
X343097Y312897D01*
X344087Y311183D01*
X345488Y309783D01*
X347202Y308792D01*
X349115Y308280D01*
X351095D01*
X353008Y308792D01*
X354722Y309783D01*
X356123Y311183D01*
X357113Y312897D01*
X357625Y314810D01*
Y316790D01*
X357113Y318703D01*
X356123Y320417D01*
X354722Y321818D01*
X353008Y322808D01*
X351095Y323320D01*
D02*
G37*
G36*
X250644Y339000D02*
X248456D01*
X246434Y338163D01*
X244887Y336615D01*
X244050Y334594D01*
Y332406D01*
X244887Y330384D01*
X246434Y328837D01*
X248456Y328000D01*
X250644D01*
X251077Y328179D01*
X265453Y313803D01*
X265453Y313803D01*
X266369Y313191D01*
X267450Y312976D01*
X267450Y312976D01*
X290525D01*
Y308280D01*
X305565D01*
Y323320D01*
X290525D01*
Y318624D01*
X268620D01*
X254988Y332256D01*
X255050Y332406D01*
Y334594D01*
X254213Y336615D01*
X252666Y338163D01*
X250644Y339000D01*
D02*
G37*
G36*
X203015Y315165D02*
X195495D01*
X187975D01*
Y314810D01*
X188487Y312897D01*
X189478Y311183D01*
X190878Y309783D01*
X192416Y308894D01*
Y302270D01*
X179225Y289079D01*
X158250D01*
X157072Y288845D01*
X156654Y288566D01*
X155545Y289352D01*
Y297845D01*
X151100Y302290D01*
X138400D01*
X133955Y297845D01*
Y288955D01*
X138400Y284510D01*
X150609D01*
X151160Y283265D01*
X145385Y277490D01*
Y268635D01*
X155545D01*
Y272445D01*
X152297Y275693D01*
X159525Y282921D01*
X180500D01*
X181678Y283155D01*
X182677Y283823D01*
X197677Y298823D01*
X198345Y299822D01*
X198579Y301000D01*
X198574Y301025D01*
Y308894D01*
X200112Y309783D01*
X201513Y311183D01*
X202502Y312897D01*
X203015Y314810D01*
Y315165D01*
D02*
G37*
G36*
X674600Y301240D02*
X661900D01*
X657455Y296795D01*
Y287905D01*
X661900Y283460D01*
X674600D01*
X679045Y287905D01*
Y296795D01*
X674600Y301240D01*
D02*
G37*
G36*
X144115Y276890D02*
X138400D01*
X133955Y272445D01*
Y268635D01*
X144115D01*
Y276890D01*
D02*
G37*
G36*
X674600Y275840D02*
X668885D01*
Y267585D01*
X679045D01*
Y271395D01*
X674600Y275840D01*
D02*
G37*
G36*
X667615D02*
X661900D01*
X657455Y271395D01*
Y267585D01*
X667615D01*
Y275840D01*
D02*
G37*
G36*
X608255Y281210D02*
X606275D01*
X604362Y280697D01*
X602648Y279708D01*
X601247Y278307D01*
X600257Y276593D01*
X599745Y274680D01*
Y272700D01*
X600205Y270984D01*
X546573Y217352D01*
X545905Y216353D01*
X545671Y215175D01*
Y160525D01*
X528130Y142985D01*
X528094Y143000D01*
X525906D01*
X524099Y142252D01*
X522829Y142767D01*
Y143728D01*
X522595Y144906D01*
X521927Y145905D01*
X507794Y160038D01*
Y181950D01*
X512235D01*
Y196990D01*
X497195D01*
Y181950D01*
X501636D01*
Y158763D01*
X501870Y157584D01*
X502538Y156586D01*
X516671Y142452D01*
Y126816D01*
X516905Y125638D01*
X516921Y125615D01*
Y111460D01*
X516380Y110919D01*
X515730Y109349D01*
Y107651D01*
X516380Y106081D01*
X517581Y104880D01*
X519151Y104230D01*
X520849D01*
X521851Y103270D01*
Y102596D01*
X522319Y100848D01*
X523224Y99282D01*
X524503Y98003D01*
X526069Y97098D01*
X527817Y96630D01*
X529626D01*
X531373Y97098D01*
X532939Y98003D01*
X534218Y99282D01*
X535123Y100848D01*
X535591Y102596D01*
Y104404D01*
X535123Y106152D01*
X534218Y107718D01*
X532939Y108997D01*
X531373Y109902D01*
X529626Y110370D01*
X527817D01*
X526069Y109902D01*
X525457Y109549D01*
X525433Y109544D01*
X523942Y110140D01*
X523620Y110919D01*
X523079Y111460D01*
Y126566D01*
X522845Y127745D01*
X522829Y127768D01*
Y132233D01*
X524099Y132748D01*
X525906Y132000D01*
X528094D01*
X530116Y132837D01*
X531663Y134384D01*
X532500Y136406D01*
Y138594D01*
X532485Y138630D01*
X550927Y157073D01*
X551595Y158072D01*
X551829Y159250D01*
Y213900D01*
X604559Y266630D01*
X606275Y266170D01*
X608255D01*
X610168Y266682D01*
X611882Y267673D01*
X613283Y269073D01*
X614272Y270787D01*
X614785Y272700D01*
Y274680D01*
X614272Y276593D01*
X613283Y278307D01*
X611882Y279708D01*
X610168Y280697D01*
X608255Y281210D01*
D02*
G37*
G36*
X453645D02*
X451665D01*
X449752Y280697D01*
X448038Y279708D01*
X446637Y278307D01*
X445648Y276593D01*
X445135Y274680D01*
Y272700D01*
X445648Y270787D01*
X446637Y269073D01*
X448038Y267673D01*
X449752Y266682D01*
X451665Y266170D01*
X453645D01*
X455558Y266682D01*
X457272Y267673D01*
X458672Y269073D01*
X459663Y270787D01*
X460175Y272700D01*
Y274680D01*
X459663Y276593D01*
X458672Y278307D01*
X457272Y279708D01*
X455558Y280697D01*
X453645Y281210D01*
D02*
G37*
G36*
X305565D02*
X290525D01*
Y266170D01*
X305565D01*
Y281210D01*
D02*
G37*
G36*
X196485D02*
X194505D01*
X192592Y280697D01*
X190878Y279708D01*
X189478Y278307D01*
X188487Y276593D01*
X187975Y274680D01*
Y272700D01*
X188487Y270787D01*
X189478Y269073D01*
X190878Y267673D01*
X192592Y266682D01*
X194505Y266170D01*
X196485D01*
X198398Y266682D01*
X200112Y267673D01*
X201513Y269073D01*
X202502Y270787D01*
X203015Y272700D01*
Y274680D01*
X202502Y276593D01*
X201513Y278307D01*
X200112Y279708D01*
X198398Y280697D01*
X196485Y281210D01*
D02*
G37*
G36*
X155545Y267365D02*
X145385D01*
Y259110D01*
X151100D01*
X155545Y263555D01*
Y267365D01*
D02*
G37*
G36*
X534055Y441420D02*
X531745D01*
X529515Y440822D01*
X527515Y439668D01*
X525882Y438035D01*
X524728Y436035D01*
X524130Y433805D01*
Y431495D01*
X524728Y429265D01*
X525882Y427265D01*
X527515Y425632D01*
X529515Y424478D01*
X529821Y424396D01*
Y384850D01*
X530055Y383672D01*
X530723Y382673D01*
X535521Y377875D01*
Y284875D01*
X508960Y258314D01*
X507789Y258940D01*
X507794Y258965D01*
Y266170D01*
X512235D01*
Y273055D01*
X497195D01*
Y266170D01*
X501636D01*
Y260240D01*
X465573Y224177D01*
X464905Y223178D01*
X464671Y222000D01*
Y205840D01*
X455820Y196990D01*
X453290D01*
Y190105D01*
X460175D01*
Y192635D01*
X469901Y202361D01*
X470014Y202358D01*
X471171Y201963D01*
Y164775D01*
X458725Y152329D01*
X344500D01*
X343322Y152095D01*
X342323Y151427D01*
X342323Y151427D01*
X324110Y133215D01*
X281136D01*
X279957Y132980D01*
X278958Y132313D01*
X253225Y106579D01*
X236335D01*
X235677Y107718D01*
X234398Y108997D01*
X232832Y109902D01*
X231084Y110370D01*
X229276D01*
X227528Y109902D01*
X225962Y108997D01*
X224683Y107718D01*
X223778Y106152D01*
X223310Y104404D01*
Y102596D01*
X223778Y100848D01*
X224683Y99282D01*
X225962Y98003D01*
X227528Y97098D01*
X229276Y96630D01*
X231084D01*
X232832Y97098D01*
X234398Y98003D01*
X235677Y99282D01*
X236335Y100421D01*
X254500D01*
X255678Y100655D01*
X256677Y101323D01*
X282411Y127057D01*
X325386D01*
X326564Y127291D01*
X327563Y127958D01*
X330183Y130578D01*
X331322Y129921D01*
X331290Y129804D01*
Y127996D01*
X331758Y126248D01*
X332663Y124682D01*
X333942Y123403D01*
X335336Y122598D01*
Y86330D01*
X313116Y64110D01*
X311156D01*
X309135Y63273D01*
X307587Y61725D01*
X306750Y59704D01*
Y57516D01*
X307587Y55494D01*
X309135Y53947D01*
X311156Y53110D01*
X313344D01*
X315366Y53947D01*
X316913Y55494D01*
X317750Y57516D01*
Y59704D01*
X317442Y60448D01*
X340157Y83163D01*
X340157Y83163D01*
X340770Y84080D01*
X340985Y85160D01*
Y122598D01*
X342379Y123403D01*
X343658Y124682D01*
X344562Y126248D01*
X345030Y127996D01*
Y129804D01*
X344562Y131552D01*
X343658Y133118D01*
X342379Y134397D01*
X340812Y135302D01*
X339065Y135770D01*
X337256D01*
X337139Y135739D01*
X336482Y136877D01*
X345775Y146171D01*
X460000D01*
X461178Y146405D01*
X462177Y147073D01*
X476427Y161323D01*
X476427Y161323D01*
X476901Y162031D01*
X478171Y161717D01*
Y118500D01*
X478405Y117322D01*
X479073Y116323D01*
X506574Y88821D01*
X507573Y88154D01*
X508751Y87919D01*
X548000D01*
X549178Y88154D01*
X550177Y88821D01*
X558326Y96970D01*
X559597Y96630D01*
X561406D01*
X563153Y97098D01*
X564720Y98003D01*
X565999Y99282D01*
X566903Y100848D01*
X567371Y102596D01*
Y104404D01*
X566903Y106152D01*
X565999Y107718D01*
X564720Y108997D01*
X563153Y109902D01*
X561406Y110370D01*
X559597D01*
X557850Y109902D01*
X556283Y108997D01*
X555004Y107718D01*
X554100Y106152D01*
X553631Y104404D01*
Y102596D01*
X553972Y101325D01*
X546725Y94078D01*
X510027D01*
X484329Y119775D01*
Y206840D01*
X501549Y224060D01*
X512235D01*
Y239100D01*
X500114D01*
X499628Y240273D01*
X540777Y281423D01*
X540777Y281423D01*
X541445Y282422D01*
X541679Y283600D01*
X541679Y283600D01*
Y379150D01*
X541445Y380328D01*
X540777Y381327D01*
X535979Y386125D01*
Y424396D01*
X536285Y424478D01*
X538285Y425632D01*
X539918Y427265D01*
X541072Y429265D01*
X541670Y431495D01*
Y433805D01*
X541072Y436035D01*
X539918Y438035D01*
X538285Y439668D01*
X536285Y440822D01*
X534055Y441420D01*
D02*
G37*
G36*
X679045Y266315D02*
X668885D01*
Y258060D01*
X674600D01*
X679045Y262505D01*
Y266315D01*
D02*
G37*
G36*
X667615D02*
X657455D01*
Y262505D01*
X661900Y258060D01*
X667615D01*
Y266315D01*
D02*
G37*
G36*
X142620Y241050D02*
X126080D01*
Y235859D01*
X108780D01*
X108780Y235859D01*
X107602Y235625D01*
X106603Y234957D01*
X106603Y234957D01*
X86073Y214427D01*
X85405Y213428D01*
X85171Y212250D01*
Y175500D01*
X85405Y174322D01*
X86073Y173323D01*
X93515Y165880D01*
X93500Y165844D01*
Y163656D01*
X94337Y161635D01*
X95885Y160087D01*
X97906Y159250D01*
X100094D01*
X102115Y160087D01*
X103663Y161635D01*
X104500Y163656D01*
Y165844D01*
X103663Y167866D01*
X102115Y169413D01*
X100094Y170250D01*
X97906D01*
X97870Y170235D01*
X91329Y176775D01*
Y210975D01*
X110055Y229701D01*
X126080D01*
Y224510D01*
X142620D01*
Y241050D01*
D02*
G37*
G36*
X674600Y250440D02*
X661900D01*
X657455Y245995D01*
Y237105D01*
X661900Y232660D01*
X674600D01*
X679045Y237105D01*
Y245995D01*
X674600Y250440D01*
D02*
G37*
G36*
X196485Y239100D02*
X196130D01*
Y232215D01*
X203015D01*
Y232570D01*
X202502Y234483D01*
X201513Y236197D01*
X200112Y237598D01*
X198398Y238587D01*
X196485Y239100D01*
D02*
G37*
G36*
X608255D02*
X606275D01*
X604362Y238587D01*
X602648Y237598D01*
X601247Y236197D01*
X600257Y234483D01*
X599745Y232570D01*
Y230590D01*
X600257Y228677D01*
X601247Y226963D01*
X602648Y225562D01*
X604362Y224573D01*
X606275Y224060D01*
X608255D01*
X610168Y224573D01*
X611882Y225562D01*
X613283Y226963D01*
X614272Y228677D01*
X614785Y230590D01*
Y232570D01*
X614272Y234483D01*
X613283Y236197D01*
X611882Y237598D01*
X610168Y238587D01*
X608255Y239100D01*
D02*
G37*
G36*
X460175D02*
X445135D01*
Y224060D01*
X460175D01*
Y239100D01*
D02*
G37*
G36*
X305565D02*
X290525D01*
Y224060D01*
X305565D01*
Y239100D01*
D02*
G37*
G36*
X135439Y215050D02*
X133261D01*
X131158Y214486D01*
X129272Y213398D01*
X127732Y211858D01*
X126644Y209972D01*
X126080Y207869D01*
Y205691D01*
X126644Y203588D01*
X127732Y201702D01*
X129272Y200162D01*
X131158Y199074D01*
X133261Y198510D01*
X135439D01*
X137542Y199074D01*
X139428Y200162D01*
X140968Y201702D01*
X142056Y203588D01*
X142620Y205691D01*
Y207869D01*
X142056Y209972D01*
X140968Y211858D01*
X139428Y213398D01*
X137542Y214486D01*
X135439Y215050D01*
D02*
G37*
G36*
X357625Y273055D02*
X342585D01*
Y266170D01*
X347026D01*
Y238486D01*
X345488Y237598D01*
X344087Y236197D01*
X343199Y234659D01*
X333330D01*
X332152Y234425D01*
X331153Y233757D01*
X311573Y214177D01*
X310905Y213178D01*
X310671Y212000D01*
Y186223D01*
X298777Y174329D01*
X214990D01*
X203015Y186305D01*
Y188835D01*
X196130D01*
Y181950D01*
X198660D01*
X211538Y169073D01*
X212537Y168405D01*
X213715Y168171D01*
X300052D01*
X301231Y168405D01*
X302229Y169073D01*
X315927Y182771D01*
X316595Y183769D01*
X316829Y184948D01*
Y210725D01*
X334605Y228501D01*
X343199D01*
X344087Y226963D01*
X345488Y225562D01*
X347202Y224573D01*
X349115Y224060D01*
X349470D01*
Y231580D01*
X350740D01*
Y224060D01*
X351095D01*
X353008Y224573D01*
X354722Y225562D01*
X356123Y226963D01*
X357011Y228501D01*
X409270D01*
X445135Y192635D01*
Y190105D01*
X452020D01*
Y196990D01*
X449490D01*
X412722Y233757D01*
X411723Y234425D01*
X410545Y234659D01*
X357011D01*
X356123Y236197D01*
X354722Y237598D01*
X353184Y238486D01*
Y266170D01*
X357625D01*
Y273055D01*
D02*
G37*
G36*
X144115Y267365D02*
X133955D01*
Y263555D01*
X136671Y260839D01*
Y251000D01*
X136905Y249822D01*
X137573Y248823D01*
X156993Y229403D01*
X156993Y229403D01*
X157992Y228735D01*
X159170Y228501D01*
X188589D01*
X189478Y226963D01*
X190878Y225562D01*
X192416Y224674D01*
Y196990D01*
X187975D01*
Y192549D01*
X143040D01*
X141862Y192315D01*
X140863Y191647D01*
X137643Y188428D01*
X137542Y188486D01*
X135439Y189050D01*
X134985D01*
Y181415D01*
X142620D01*
Y181869D01*
X142056Y183972D01*
X141998Y184073D01*
X144315Y186391D01*
X187975D01*
Y181950D01*
X194860D01*
Y189470D01*
X195495D01*
Y190105D01*
X203015D01*
Y196990D01*
X198574D01*
Y224674D01*
X200112Y225562D01*
X201513Y226963D01*
X202502Y228677D01*
X203015Y230590D01*
Y230945D01*
X195495D01*
Y231580D01*
X194860D01*
Y239100D01*
X194505D01*
X192592Y238587D01*
X190878Y237598D01*
X189478Y236197D01*
X188589Y234659D01*
X160445D01*
X142829Y252276D01*
Y259110D01*
X144115D01*
Y267365D01*
D02*
G37*
G36*
X608255Y196990D02*
X606275D01*
X604362Y196478D01*
X602648Y195487D01*
X601247Y194087D01*
X600257Y192373D01*
X599745Y190460D01*
Y188480D01*
X600257Y186567D01*
X601247Y184853D01*
X602648Y183452D01*
X604362Y182463D01*
X606275Y181950D01*
X608255D01*
X610168Y182463D01*
X611882Y183452D01*
X613283Y184853D01*
X614272Y186567D01*
X614785Y188480D01*
Y190460D01*
X614272Y192373D01*
X613283Y194087D01*
X611882Y195487D01*
X610168Y196478D01*
X608255Y196990D01*
D02*
G37*
G36*
X460175Y188835D02*
X453290D01*
Y181950D01*
X460175D01*
Y188835D01*
D02*
G37*
G36*
X452020D02*
X445135D01*
Y181950D01*
X452020D01*
Y188835D01*
D02*
G37*
G36*
X299035Y196990D02*
X297055D01*
X295142Y196478D01*
X293428Y195487D01*
X292027Y194087D01*
X291038Y192373D01*
X290525Y190460D01*
Y188480D01*
X291038Y186567D01*
X292027Y184853D01*
X293428Y183452D01*
X295142Y182463D01*
X297055Y181950D01*
X299035D01*
X300948Y182463D01*
X302662Y183452D01*
X304062Y184853D01*
X305053Y186567D01*
X305565Y188480D01*
Y190460D01*
X305053Y192373D01*
X304062Y194087D01*
X302662Y195487D01*
X300948Y196478D01*
X299035Y196990D01*
D02*
G37*
G36*
X133715Y189050D02*
X133261D01*
X131158Y188486D01*
X129272Y187398D01*
X127732Y185858D01*
X126644Y183972D01*
X126080Y181869D01*
Y181415D01*
X133715D01*
Y189050D01*
D02*
G37*
G36*
X164594Y180250D02*
X162406D01*
X160385Y179413D01*
X158837Y177866D01*
X158000Y175844D01*
Y173656D01*
X158837Y171635D01*
X160385Y170087D01*
X162406Y169250D01*
X164594D01*
X164630Y169265D01*
X172573Y161323D01*
X172573Y161323D01*
X173572Y160655D01*
X174750Y160421D01*
X174750Y160421D01*
X301201D01*
X301837Y158884D01*
X303384Y157337D01*
X305406Y156500D01*
X307594D01*
X309615Y157337D01*
X311163Y158884D01*
X312000Y160906D01*
Y163094D01*
X311163Y165116D01*
X309615Y166663D01*
X307594Y167500D01*
X305406D01*
X303384Y166663D01*
X303301Y166579D01*
X176025D01*
X168985Y173620D01*
X169000Y173656D01*
Y175844D01*
X168163Y177866D01*
X166616Y179413D01*
X164594Y180250D01*
D02*
G37*
G36*
X351095Y196990D02*
X349115D01*
X347202Y196478D01*
X345488Y195487D01*
X344087Y194087D01*
X343097Y192373D01*
X342585Y190460D01*
Y188480D01*
X343097Y186567D01*
X344087Y184853D01*
X345488Y183452D01*
X347202Y182463D01*
X349115Y181950D01*
X351095D01*
X352949Y182447D01*
X372631Y162764D01*
X372250Y161844D01*
Y159656D01*
X373087Y157634D01*
X374635Y156087D01*
X376656Y155250D01*
X378844D01*
X380866Y156087D01*
X382413Y157634D01*
X383250Y159656D01*
Y161844D01*
X382413Y163866D01*
X380866Y165413D01*
X378844Y166250D01*
X377855D01*
X357202Y186902D01*
X357625Y188480D01*
Y190460D01*
X357113Y192373D01*
X356123Y194087D01*
X354722Y195487D01*
X353008Y196478D01*
X351095Y196990D01*
D02*
G37*
G36*
X418094Y203500D02*
X415906D01*
X413885Y202663D01*
X412337Y201115D01*
X411500Y199094D01*
Y196906D01*
X412337Y194884D01*
X413885Y193337D01*
X413921Y193322D01*
X413921Y181250D01*
X413921Y181250D01*
X414155Y180072D01*
X414823Y179073D01*
X436823Y157073D01*
X436823Y157073D01*
X437822Y156405D01*
X439000Y156171D01*
X439000Y156171D01*
X449822D01*
X449837Y156135D01*
X451385Y154587D01*
X453406Y153750D01*
X455594D01*
X457616Y154587D01*
X459163Y156135D01*
X460000Y158156D01*
Y160344D01*
X459163Y162365D01*
X457616Y163913D01*
X455594Y164750D01*
X453406D01*
X451385Y163913D01*
X449837Y162365D01*
X449822Y162329D01*
X440275D01*
X420079Y182525D01*
X420079Y193322D01*
X420116Y193337D01*
X421663Y194884D01*
X422500Y196906D01*
Y199094D01*
X421663Y201115D01*
X420116Y202663D01*
X418094Y203500D01*
D02*
G37*
G36*
X329627Y188841D02*
X327439D01*
X325418Y188004D01*
X323870Y186457D01*
X323033Y184435D01*
Y182247D01*
X323870Y180226D01*
X324950Y179146D01*
Y163476D01*
X324950Y163475D01*
X325165Y162395D01*
X325777Y161478D01*
X329871Y157385D01*
X329750Y157094D01*
Y154906D01*
X330587Y152885D01*
X332135Y151337D01*
X334156Y150500D01*
X336344D01*
X338366Y151337D01*
X339913Y152885D01*
X340750Y154906D01*
Y157094D01*
X339913Y159115D01*
X338366Y160663D01*
X336344Y161500D01*
X334156D01*
X333865Y161379D01*
X330599Y164645D01*
Y178244D01*
X331648Y178679D01*
X333196Y180226D01*
X334033Y182247D01*
Y184435D01*
X333196Y186457D01*
X331648Y188004D01*
X329627Y188841D01*
D02*
G37*
G36*
X57844Y169750D02*
X55656D01*
X53635Y168913D01*
X52087Y167365D01*
X51250Y165344D01*
Y163156D01*
X52087Y161134D01*
X53635Y159587D01*
X55656Y158750D01*
X57844D01*
X57880Y158765D01*
X71073Y145573D01*
X71073Y145573D01*
X72072Y144905D01*
X73250Y144671D01*
X73250Y144671D01*
X104072D01*
X104087Y144635D01*
X105634Y143087D01*
X107656Y142250D01*
X109844D01*
X111866Y143087D01*
X113413Y144635D01*
X114250Y146656D01*
Y148844D01*
X113413Y150865D01*
X111866Y152413D01*
X109844Y153250D01*
X107656D01*
X105634Y152413D01*
X104087Y150865D01*
X104072Y150829D01*
X74525D01*
X62235Y163120D01*
X62250Y163156D01*
Y165344D01*
X61413Y167365D01*
X59865Y168913D01*
X57844Y169750D01*
D02*
G37*
G36*
X99094Y135250D02*
X96906D01*
X94885Y134413D01*
X93337Y132865D01*
X93322Y132829D01*
X64928D01*
X64913Y132865D01*
X63366Y134413D01*
X61344Y135250D01*
X59156D01*
X57134Y134413D01*
X55587Y132865D01*
X54750Y130844D01*
Y128656D01*
X55587Y126635D01*
X57134Y125087D01*
X59156Y124250D01*
X61344D01*
X63366Y125087D01*
X64913Y126635D01*
X64928Y126671D01*
X93322D01*
X93337Y126635D01*
X94885Y125087D01*
X96906Y124250D01*
X99094D01*
X101116Y125087D01*
X102663Y126635D01*
X103500Y128656D01*
Y130844D01*
X102663Y132865D01*
X101116Y134413D01*
X99094Y135250D01*
D02*
G37*
G36*
X586806Y135770D02*
X584997D01*
X583250Y135302D01*
X581683Y134397D01*
X580404Y133118D01*
X579500Y131552D01*
X579031Y129804D01*
Y127996D01*
X579500Y126248D01*
X580404Y124682D01*
X581683Y123403D01*
X583250Y122498D01*
X584997Y122030D01*
X586806D01*
X588553Y122498D01*
X590120Y123403D01*
X591399Y124682D01*
X592303Y126248D01*
X592771Y127996D01*
Y129804D01*
X592303Y131552D01*
X591399Y133118D01*
X590120Y134397D01*
X588553Y135302D01*
X586806Y135770D01*
D02*
G37*
G36*
X504226D02*
X502417D01*
X500669Y135302D01*
X499103Y134397D01*
X497824Y133118D01*
X496919Y131552D01*
X496451Y129804D01*
Y127996D01*
X496919Y126248D01*
X497824Y124682D01*
X499103Y123403D01*
X500669Y122498D01*
X502417Y122030D01*
X504226D01*
X505973Y122498D01*
X507539Y123403D01*
X508818Y124682D01*
X509723Y126248D01*
X510191Y127996D01*
Y129804D01*
X509723Y131552D01*
X508818Y133118D01*
X507539Y134397D01*
X505973Y135302D01*
X504226Y135770D01*
D02*
G37*
G36*
X421645D02*
X419836D01*
X418089Y135302D01*
X416522Y134397D01*
X415243Y133118D01*
X414339Y131552D01*
X413871Y129804D01*
Y127996D01*
X414339Y126248D01*
X415243Y124682D01*
X416522Y123403D01*
X418089Y122498D01*
X419836Y122030D01*
X421645D01*
X423392Y122498D01*
X424959Y123403D01*
X426238Y124682D01*
X427142Y126248D01*
X427611Y127996D01*
Y129804D01*
X427142Y131552D01*
X426238Y133118D01*
X424959Y134397D01*
X423392Y135302D01*
X421645Y135770D01*
D02*
G37*
G36*
X256485D02*
X254676D01*
X252928Y135302D01*
X251362Y134397D01*
X250083Y133118D01*
X249178Y131552D01*
X248710Y129804D01*
Y127996D01*
X249178Y126248D01*
X250083Y124682D01*
X251362Y123403D01*
X252928Y122498D01*
X254676Y122030D01*
X256485D01*
X258232Y122498D01*
X259798Y123403D01*
X261077Y124682D01*
X261982Y126248D01*
X262450Y127996D01*
Y129804D01*
X261982Y131552D01*
X261077Y133118D01*
X259798Y134397D01*
X258232Y135302D01*
X256485Y135770D01*
D02*
G37*
G36*
X142620Y180145D02*
X126080D01*
Y179691D01*
X126644Y177588D01*
X127732Y175702D01*
X129272Y174162D01*
X131158Y173074D01*
X131271Y173043D01*
Y147090D01*
Y122126D01*
X115490Y106344D01*
X114350Y107002D01*
X111484Y107770D01*
X110635D01*
Y97135D01*
X121270D01*
Y97984D01*
X120502Y100850D01*
X119844Y101989D01*
X136527Y118673D01*
X137195Y119672D01*
X137429Y120850D01*
X137429Y120850D01*
Y147090D01*
Y173043D01*
X137542Y173074D01*
X139428Y174162D01*
X140968Y175702D01*
X142056Y177588D01*
X142620Y179691D01*
Y180145D01*
D02*
G37*
G36*
X109365Y107770D02*
X108516D01*
X105650Y107002D01*
X103080Y105518D01*
X100982Y103420D01*
X99498Y100850D01*
X98730Y97984D01*
Y97135D01*
X109365D01*
Y107770D01*
D02*
G37*
G36*
X612206Y110370D02*
X610397D01*
X608650Y109902D01*
X607083Y108997D01*
X605804Y107718D01*
X604900Y106152D01*
X604431Y104404D01*
Y102596D01*
X604900Y100848D01*
X605804Y99282D01*
X607083Y98003D01*
X608650Y97098D01*
X610397Y96630D01*
X612206D01*
X613953Y97098D01*
X615520Y98003D01*
X616799Y99282D01*
X617703Y100848D01*
X618171Y102596D01*
Y104404D01*
X617703Y106152D01*
X616799Y107718D01*
X615520Y108997D01*
X613953Y109902D01*
X612206Y110370D01*
D02*
G37*
G36*
X478825D02*
X477017D01*
X475269Y109902D01*
X473703Y108997D01*
X472424Y107718D01*
X471519Y106152D01*
X471051Y104404D01*
Y102596D01*
X471519Y100848D01*
X472424Y99282D01*
X473703Y98003D01*
X475269Y97098D01*
X477017Y96630D01*
X478825D01*
X480573Y97098D01*
X482139Y98003D01*
X483418Y99282D01*
X484323Y100848D01*
X484791Y102596D01*
Y104404D01*
X484323Y106152D01*
X483418Y107718D01*
X482139Y108997D01*
X480573Y109902D01*
X478825Y110370D01*
D02*
G37*
G36*
X447045D02*
X445236D01*
X443489Y109902D01*
X441922Y108997D01*
X440643Y107718D01*
X439739Y106152D01*
X439271Y104404D01*
Y102596D01*
X439739Y100848D01*
X440643Y99282D01*
X441922Y98003D01*
X443489Y97098D01*
X445236Y96630D01*
X447045D01*
X448792Y97098D01*
X450359Y98003D01*
X451638Y99282D01*
X452542Y100848D01*
X453011Y102596D01*
Y104404D01*
X452542Y106152D01*
X451638Y107718D01*
X450359Y108997D01*
X448792Y109902D01*
X447045Y110370D01*
D02*
G37*
G36*
X396245D02*
X394436D01*
X392689Y109902D01*
X391122Y108997D01*
X389843Y107718D01*
X388939Y106152D01*
X388471Y104404D01*
Y102596D01*
X388811Y101325D01*
X366565Y79079D01*
X352459D01*
X351919Y79620D01*
X350349Y80270D01*
X348651D01*
X347081Y79620D01*
X345880Y78419D01*
X345230Y76849D01*
Y75151D01*
X345880Y73581D01*
X347081Y72380D01*
X348651Y71730D01*
X350349D01*
X351919Y72380D01*
X352459Y72921D01*
X367841D01*
X369019Y73155D01*
X370018Y73823D01*
X393166Y96970D01*
X394436Y96630D01*
X396245D01*
X397992Y97098D01*
X399559Y98003D01*
X400838Y99282D01*
X401743Y100848D01*
X402211Y102596D01*
Y104404D01*
X401743Y106152D01*
X400838Y107718D01*
X399559Y108997D01*
X397992Y109902D01*
X396245Y110370D01*
D02*
G37*
G36*
X364465D02*
X362656D01*
X360909Y109902D01*
X359342Y108997D01*
X358063Y107718D01*
X357159Y106152D01*
X356690Y104404D01*
Y102596D01*
X357159Y100848D01*
X358063Y99282D01*
X359342Y98003D01*
X360909Y97098D01*
X362656Y96630D01*
X364465D01*
X366212Y97098D01*
X367779Y98003D01*
X369058Y99282D01*
X369962Y100848D01*
X370430Y102596D01*
Y104404D01*
X369962Y106152D01*
X369058Y107718D01*
X367779Y108997D01*
X366212Y109902D01*
X364465Y110370D01*
D02*
G37*
G36*
X313665D02*
X311856D01*
X310109Y109902D01*
X308542Y108997D01*
X307263Y107718D01*
X306359Y106152D01*
X305890Y104404D01*
Y102596D01*
X306359Y100848D01*
X307263Y99282D01*
X308542Y98003D01*
X310109Y97098D01*
X311856Y96630D01*
X313665D01*
X315412Y97098D01*
X316979Y98003D01*
X318258Y99282D01*
X319162Y100848D01*
X319630Y102596D01*
Y104404D01*
X319162Y106152D01*
X318258Y107718D01*
X316979Y108997D01*
X315412Y109902D01*
X313665Y110370D01*
D02*
G37*
G36*
X281884D02*
X280076D01*
X278328Y109902D01*
X276762Y108997D01*
X275483Y107718D01*
X274578Y106152D01*
X274110Y104404D01*
Y102596D01*
X274578Y100848D01*
X275483Y99282D01*
X276762Y98003D01*
X278328Y97098D01*
X280076Y96630D01*
X281884D01*
X283632Y97098D01*
X285198Y98003D01*
X286477Y99282D01*
X287382Y100848D01*
X287850Y102596D01*
Y104404D01*
X287382Y106152D01*
X286477Y107718D01*
X285198Y108997D01*
X283632Y109902D01*
X281884Y110370D01*
D02*
G37*
G36*
X195984Y107770D02*
X193016D01*
X190150Y107002D01*
X187580Y105518D01*
X185482Y103420D01*
X183998Y100850D01*
X183230Y97984D01*
Y95016D01*
X183998Y92150D01*
X185482Y89580D01*
X187580Y87482D01*
X190150Y85998D01*
X193016Y85230D01*
X195984D01*
X198850Y85998D01*
X201420Y87482D01*
X203518Y89580D01*
X205002Y92150D01*
X205770Y95016D01*
Y97984D01*
X205002Y100850D01*
X203518Y103420D01*
X201420Y105518D01*
X198850Y107002D01*
X195984Y107770D01*
D02*
G37*
G36*
X160984D02*
X158016D01*
X155150Y107002D01*
X152580Y105518D01*
X150482Y103420D01*
X148998Y100850D01*
X148230Y97984D01*
Y95016D01*
X148998Y92150D01*
X150482Y89580D01*
X152580Y87482D01*
X155150Y85998D01*
X158016Y85230D01*
X160984D01*
X163850Y85998D01*
X166420Y87482D01*
X168518Y89580D01*
X170002Y92150D01*
X170770Y95016D01*
Y97984D01*
X170002Y100850D01*
X168518Y103420D01*
X166420Y105518D01*
X163850Y107002D01*
X160984Y107770D01*
D02*
G37*
G36*
X121270Y95865D02*
X110635D01*
Y85230D01*
X111484D01*
X114350Y85998D01*
X116920Y87482D01*
X119018Y89580D01*
X120502Y92150D01*
X121270Y95016D01*
Y95865D01*
D02*
G37*
G36*
X109365D02*
X98730D01*
Y95016D01*
X99498Y92150D01*
X100982Y89580D01*
X103080Y87482D01*
X105650Y85998D01*
X108516Y85230D01*
X109365D01*
Y95865D01*
D02*
G37*
G36*
X76484Y107770D02*
X73516D01*
X70650Y107002D01*
X68080Y105518D01*
X65982Y103420D01*
X64498Y100850D01*
X63730Y97984D01*
Y95016D01*
X64498Y92150D01*
X65982Y89580D01*
X68080Y87482D01*
X70650Y85998D01*
X73516Y85230D01*
X76484D01*
X79350Y85998D01*
X81920Y87482D01*
X84018Y89580D01*
X85502Y92150D01*
X86270Y95016D01*
Y97984D01*
X85502Y100850D01*
X84018Y103420D01*
X81920Y105518D01*
X79350Y107002D01*
X76484Y107770D01*
D02*
G37*
G36*
X704844Y170000D02*
X702656D01*
X700635Y169163D01*
X699087Y167616D01*
X698250Y165594D01*
Y163406D01*
X699087Y161385D01*
X700635Y159837D01*
X702656Y159000D01*
X704844D01*
X704880Y159015D01*
X724421Y139475D01*
Y71275D01*
X702130Y48985D01*
X702094Y49000D01*
X699906D01*
X697885Y48163D01*
X696337Y46616D01*
X695500Y44594D01*
Y42406D01*
X696337Y40384D01*
X697885Y38837D01*
X699906Y38000D01*
X702094D01*
X704116Y38837D01*
X705663Y40384D01*
X706500Y42406D01*
Y44594D01*
X706485Y44630D01*
X729677Y67823D01*
X730345Y68822D01*
X730579Y70000D01*
Y140750D01*
X730579Y140750D01*
X730345Y141928D01*
X729677Y142927D01*
X709235Y163370D01*
X709250Y163406D01*
Y165594D01*
X708413Y167616D01*
X706865Y169163D01*
X704844Y170000D01*
D02*
G37*
G36*
X195594Y125000D02*
X193406D01*
X191385Y124163D01*
X189837Y122615D01*
X189000Y120594D01*
Y118406D01*
X189837Y116384D01*
X191385Y114837D01*
X193406Y114000D01*
X195594D01*
X195984Y114162D01*
X268573Y41573D01*
X269572Y40905D01*
X270750Y40671D01*
X274072D01*
X274087Y40634D01*
X275634Y39087D01*
X277656Y38250D01*
X279844D01*
X281866Y39087D01*
X283413Y40634D01*
X284250Y42656D01*
Y44844D01*
X283413Y46866D01*
X281866Y48413D01*
X279844Y49250D01*
X277656D01*
X275634Y48413D01*
X274087Y46866D01*
X274072Y46829D01*
X272025D01*
X200000Y118855D01*
Y120594D01*
X199163Y122615D01*
X197616Y124163D01*
X195594Y125000D01*
D02*
G37*
G36*
X778974Y48750D02*
X775526D01*
X772145Y48078D01*
X768961Y46758D01*
X766094Y44843D01*
X763657Y42406D01*
X761742Y39539D01*
X760423Y36355D01*
X759750Y32974D01*
Y29526D01*
X760423Y26145D01*
X761742Y22961D01*
X763657Y20094D01*
X766094Y17657D01*
X768961Y15742D01*
X772145Y14423D01*
X775526Y13750D01*
X778974D01*
X782355Y14423D01*
X785539Y15742D01*
X788406Y17657D01*
X790843Y20094D01*
X792758Y22961D01*
X794078Y26145D01*
X794750Y29526D01*
Y32974D01*
X794078Y36355D01*
X792758Y39539D01*
X790843Y42406D01*
X788406Y44843D01*
X785539Y46758D01*
X782355Y48078D01*
X778974Y48750D01*
D02*
G37*
G36*
X28974D02*
X25526D01*
X22145Y48078D01*
X18961Y46758D01*
X16094Y44843D01*
X13657Y42406D01*
X11742Y39539D01*
X10423Y36355D01*
X9750Y32974D01*
Y29526D01*
X10423Y26145D01*
X11742Y22961D01*
X13657Y20094D01*
X16094Y17657D01*
X18961Y15742D01*
X22145Y14423D01*
X25526Y13750D01*
X28974D01*
X32355Y14423D01*
X35539Y15742D01*
X38406Y17657D01*
X40843Y20094D01*
X42758Y22961D01*
X44078Y26145D01*
X44750Y29526D01*
Y32974D01*
X44078Y36355D01*
X42758Y39539D01*
X40843Y42406D01*
X38406Y44843D01*
X35539Y46758D01*
X32355Y48078D01*
X28974Y48750D01*
D02*
G37*
%LPD*%
G36*
X397886Y512509D02*
X397728Y512235D01*
X397130Y510005D01*
Y507695D01*
X397728Y505465D01*
X398882Y503465D01*
X400515Y501832D01*
X402045Y500949D01*
X401704Y499679D01*
X397425D01*
X374204Y522901D01*
X374207Y523014D01*
X374602Y524171D01*
X386225D01*
X397886Y512509D01*
D02*
G37*
G36*
X393946Y494449D02*
X393943Y494336D01*
X393548Y493179D01*
X390425D01*
X368677Y514927D01*
X367678Y515595D01*
X366500Y515829D01*
X308925D01*
X308480Y516416D01*
X309123Y517671D01*
X370725D01*
X393946Y494449D01*
D02*
G37*
G36*
X497195Y236181D02*
Y228415D01*
X479073Y210292D01*
X478599Y209583D01*
X477329Y209898D01*
Y217974D01*
X496022Y236667D01*
X497195Y236181D01*
D02*
G37*
D12*
X688750Y368550D02*
X747550D01*
X771250Y392250D01*
X668250Y368550D02*
X688750D01*
X771250Y392250D02*
Y392500D01*
D17*
X236350Y431570D02*
D03*
Y473270D02*
D03*
X286350Y514970D02*
D03*
D23*
X326120Y496610D02*
D03*
X286350Y431570D02*
D03*
Y473270D02*
D03*
X236350Y514970D02*
D03*
D31*
X452655Y357910D02*
D03*
X350105Y315800D02*
D03*
Y231580D02*
D03*
X452655Y273690D02*
D03*
X350105Y189470D02*
D03*
X607265D02*
D03*
Y231580D02*
D03*
Y273690D02*
D03*
X504715Y315800D02*
D03*
X607265Y357910D02*
D03*
X298045D02*
D03*
X195495Y315800D02*
D03*
Y273690D02*
D03*
Y231580D02*
D03*
X298045Y189470D02*
D03*
D32*
X350105Y357910D02*
D03*
X452655Y315800D02*
D03*
Y231580D02*
D03*
X350105Y273690D02*
D03*
X452655Y189470D02*
D03*
X504715D02*
D03*
Y231580D02*
D03*
Y273690D02*
D03*
X607265Y315800D02*
D03*
X504715Y357910D02*
D03*
X195495D02*
D03*
X298045Y315800D02*
D03*
Y273690D02*
D03*
Y231580D02*
D03*
X195495Y189470D02*
D03*
D33*
X236350Y416100D02*
Y431570D01*
X147220Y396010D02*
X177068D01*
X216260D02*
X236350Y416100D01*
X177068Y396010D02*
X216260D01*
X452655Y315800D02*
X477200D01*
X504715Y273690D02*
Y288285D01*
X477200Y315800D02*
X504715Y288285D01*
Y272015D02*
Y273690D01*
Y258965D02*
Y272015D01*
X467750Y222000D02*
X504715Y258965D01*
X467750Y204565D02*
Y222000D01*
X538600Y283600D02*
Y379150D01*
X474250Y219250D02*
X538600Y283600D01*
X474250Y163500D02*
Y219250D01*
X619500Y338500D02*
Y402198D01*
X589048Y432650D02*
X619500Y402198D01*
X591500Y113250D02*
X626750Y148500D01*
Y399500D02*
X659900Y432650D01*
X626750Y148500D02*
Y399500D01*
X368000Y553250D02*
Y568670D01*
X411790Y612460D01*
X228750Y363500D02*
X234340Y357910D01*
X195495D02*
X208335Y370750D01*
X234340Y357910D02*
X298045D01*
X465000Y370750D02*
X507500Y413250D01*
X208335Y370750D02*
X465000D01*
X194500Y119500D02*
X195000D01*
X270750Y43750D01*
X278750D01*
X134350Y120850D02*
Y147090D01*
X110000Y96500D02*
X134350Y120850D01*
Y147090D02*
Y180780D01*
X30250Y140750D02*
Y756250D01*
X86500Y812500D01*
X21500Y172250D02*
Y213000D01*
X21500Y213000D01*
X21500Y172250D02*
X22500D01*
X88250Y212250D02*
X108780Y232780D01*
X88250Y175500D02*
Y212250D01*
Y175500D02*
X99000Y164750D01*
X108780Y232780D02*
X134350D01*
X701000Y43500D02*
X727500Y70000D01*
Y140750D01*
X703750Y164500D02*
X727500Y140750D01*
X675256Y151500D02*
X707200Y183444D01*
X655487Y151500D02*
X675256D01*
X508751Y90999D02*
X548000D01*
X481250Y118500D02*
Y208115D01*
Y118500D02*
X508751Y90999D01*
X527000Y137500D02*
X548750Y159250D01*
Y215175D01*
X638000Y151500D02*
X655487D01*
X519750Y126816D02*
X520000Y126566D01*
X504715Y158763D02*
X519750Y143728D01*
X520000Y108500D02*
Y126566D01*
X519750Y126816D02*
Y143728D01*
X139750Y251000D02*
Y268000D01*
X159170Y231580D02*
X195495D01*
X139750Y251000D02*
X159170Y231580D01*
X142250Y270000D02*
X158250Y286000D01*
X140250Y268000D02*
X142250Y270000D01*
X139750Y268000D02*
X140250D01*
X158250Y286000D02*
X180500D01*
X195500Y301000D01*
X195495Y301005D02*
X195500Y301000D01*
X195495Y301005D02*
Y315800D01*
X707200Y183444D02*
Y184200D01*
X789750Y266750D02*
Y442132D01*
X184320Y444550D02*
X201660Y427210D01*
X144750Y444550D02*
X184320D01*
X144750Y495350D02*
Y496585D01*
Y520750D02*
X171500Y547500D01*
X290922D01*
X144750Y495350D02*
X145990D01*
X144750Y496585D02*
X189165Y541000D01*
X419050Y496600D02*
X431300Y508850D01*
X396150Y496600D02*
X419050D01*
X372000Y520750D02*
X396150Y496600D01*
X308480Y520750D02*
X372000D01*
X288230Y541000D02*
X308480Y520750D01*
X189165Y541000D02*
X288230D01*
X548000Y90999D02*
X560501Y103500D01*
X230180D02*
X254500D01*
X281136Y130136D01*
X325386D01*
X344500Y149250D01*
X460000D01*
X474250Y163500D01*
X439000Y159250D02*
X454500D01*
X417000Y181250D02*
X439000Y159250D01*
X439000Y159250D01*
X367841Y76000D02*
X395341Y103500D01*
X349500Y76000D02*
X367841D01*
X504715Y158763D02*
Y189470D01*
X548750Y215175D02*
X607265Y273690D01*
X350280Y189470D02*
X377750Y162000D01*
Y160750D02*
Y162000D01*
X437250Y860000D02*
X448750Y871500D01*
X437250Y647500D02*
Y860000D01*
X401250Y831250D02*
Y871000D01*
X402250Y872000D01*
X736100Y495782D02*
Y508850D01*
Y495782D02*
X789750Y442132D01*
X481250Y208115D02*
X504715Y231580D01*
X572611Y603100D02*
X574271Y601440D01*
X499143Y603100D02*
X572611D01*
X581789Y649250D02*
X619215Y611824D01*
X508000Y649250D02*
X581789D01*
X127000Y812500D02*
X159593Y779907D01*
Y724315D02*
Y779907D01*
X217343Y757657D02*
Y793657D01*
X167000Y844000D02*
X217343Y793657D01*
X252250Y644250D02*
Y764771D01*
X159593Y712499D02*
Y724315D01*
Y712499D02*
X162750Y709342D01*
X86500Y812500D02*
X127000D01*
X217343Y745841D02*
Y757657D01*
Y745841D02*
X220500Y742684D01*
X21500Y213000D02*
Y761000D01*
X104500Y844000D01*
X167000D01*
X252250Y764771D02*
X275310Y787831D01*
X279739D01*
X619215Y611824D02*
X629599Y601440D01*
X631729D01*
X471210Y612460D02*
X508000Y649250D01*
X411790Y612460D02*
X471210D01*
X411622Y603100D02*
X499143D01*
X377940Y569418D02*
X411622Y603100D01*
X377940Y542560D02*
Y569418D01*
Y542560D02*
X378500Y542000D01*
X60250Y129750D02*
X98000D01*
X56750Y164250D02*
X73250Y147750D01*
X108750D01*
X369910Y357910D02*
X370500Y358500D01*
X390750D01*
X350105Y357910D02*
X369910D01*
X430750Y381500D02*
X444448D01*
X459849Y396901D01*
X437250Y644500D02*
X438750Y646000D01*
X437250Y647500D02*
X438750Y646000D01*
X416250Y638250D02*
Y816250D01*
X401250Y831250D02*
X416250Y816250D01*
X415750Y637750D02*
X416250Y638250D01*
X631900Y269996D02*
Y379250D01*
X685300Y432650D01*
X638500Y251250D02*
Y263396D01*
X631900Y269996D02*
X638500Y263396D01*
X643000Y274594D02*
Y364950D01*
X160860Y370610D02*
X178750Y388500D01*
X435750D02*
X456700Y409450D01*
X178750Y388500D02*
X435750D01*
X707200Y184200D02*
X789750Y266750D01*
X305000Y163500D02*
X306500Y162000D01*
X163500Y174750D02*
X174750Y163500D01*
X305000D01*
X300052Y171250D02*
X313750Y184948D01*
X213715Y171250D02*
X300052D01*
X313750Y184948D02*
Y212000D01*
X195495Y189470D02*
X213715Y171250D01*
X313750Y212000D02*
X333330Y231580D01*
X350105D01*
X417000Y181250D02*
X417000Y198000D01*
X532900Y384850D02*
X538600Y379150D01*
X350105Y189470D02*
X350280D01*
X643000Y364950D02*
X710700Y432650D01*
X532900Y384850D02*
Y432650D01*
X583728D02*
X589048D01*
X571750Y372000D02*
Y420700D01*
X583700Y432650D01*
X571750Y372000D02*
X581250Y362500D01*
X527340Y362660D02*
X527500Y362500D01*
X509465Y362660D02*
X527340D01*
X490600Y490100D02*
X507500Y507000D01*
X326120Y447810D02*
X327087Y448777D01*
X566028D01*
X195750Y534500D02*
X285250D01*
X290922Y547500D02*
X311172Y527250D01*
X180000Y518750D02*
X195750Y534500D01*
X285250D02*
X294030Y525720D01*
X294317D02*
X307288Y512750D01*
X366500D01*
X389150Y490100D02*
X490600D01*
X366500Y512750D02*
X389150Y490100D01*
X387500Y527250D02*
X405900Y508850D01*
X311172Y527250D02*
X387500D01*
X180000Y473250D02*
Y518750D01*
X294030Y525720D02*
X294317D01*
X507500Y507000D02*
Y508850D01*
X343230Y479500D02*
X567500D01*
X326120Y496610D02*
X343230Y479500D01*
X558300Y504950D02*
Y508850D01*
X583700Y432650D02*
Y479550D01*
X558300Y504950D02*
X583700Y479550D01*
X326120Y447810D02*
Y475200D01*
X286350Y514970D02*
X326120Y475200D01*
X286350Y431570D02*
X287430Y432650D01*
X405900D01*
X198500Y381500D02*
X430750D01*
X456700Y409450D02*
Y432650D01*
X162210Y345210D02*
X198500Y381500D01*
X147220Y345210D02*
X162210D01*
X147220Y370610D02*
X160860D01*
X431300Y508850D02*
Y584050D01*
X437500Y590250D01*
X405900Y508850D02*
X415250Y518200D01*
Y588100D01*
X507500Y413250D02*
Y432650D01*
X410545Y231580D02*
X452655Y189470D01*
X350105Y231580D02*
X410545D01*
X236350Y451100D02*
Y473270D01*
X202310Y427860D02*
X213110D01*
X201660Y427210D02*
X202310Y427860D01*
X213110D02*
X236350Y451100D01*
X452655Y189470D02*
X467750Y204565D01*
X134350Y180780D02*
X143040Y189470D01*
X195495D01*
X194753Y315800D02*
X195495D01*
Y189470D02*
Y231580D01*
X236350Y473270D02*
Y514970D01*
X298045Y342920D02*
Y357910D01*
X350105Y273690D02*
Y290860D01*
X298045Y342920D02*
X350105Y290860D01*
Y231580D02*
Y273690D01*
X452655Y315800D02*
X494765Y357910D01*
X504715D01*
X509465Y362660D01*
D34*
X119750Y576000D02*
X261250D01*
X110750Y585000D02*
X119750Y576000D01*
X261250D02*
X272000Y565250D01*
Y564750D02*
Y565250D01*
X36750Y85250D02*
X37250Y85750D01*
Y685718D01*
X312250Y58610D02*
Y59250D01*
X338160Y85160D01*
X37250Y685718D02*
X89603Y738071D01*
X296000Y607500D02*
Y637464D01*
X287750Y599250D02*
X296000Y607500D01*
X303626Y675771D02*
X308468Y680613D01*
X296000Y668145D02*
X303626Y675771D01*
X296000Y637464D02*
Y668145D01*
X303218Y663032D02*
Y676179D01*
Y663032D02*
X318144Y648106D01*
X664750Y190450D02*
X704611D01*
X119508Y784578D02*
X122761Y787831D01*
X327775Y163475D02*
Y182583D01*
Y163475D02*
X335250Y156000D01*
X783000Y268839D02*
Y440694D01*
X338160Y85160D02*
Y128900D01*
X327775Y182583D02*
X328533Y183341D01*
X89603Y738071D02*
X94032D01*
X719250Y459500D02*
X735500D01*
X751750Y443250D01*
Y428000D02*
Y443250D01*
X730250Y406500D02*
X751750Y428000D01*
X659350Y484000D02*
X739694D01*
X634500Y508850D02*
X659350Y484000D01*
X739694D02*
X783000Y440694D01*
X119508Y669242D02*
Y784578D01*
Y669242D02*
X172521Y616229D01*
Y602124D02*
Y616229D01*
X180391Y804740D02*
X189500Y795631D01*
Y655500D02*
Y795631D01*
X318144Y639606D02*
Y648106D01*
Y639606D02*
X320000Y637750D01*
X172521Y812610D02*
X180391Y804740D01*
X172521Y812610D02*
Y816560D01*
X189500Y655500D02*
X202000Y643000D01*
Y635000D02*
Y643000D01*
X704611Y190450D02*
X783000Y268839D01*
X593750Y387750D02*
X594750D01*
X593750D02*
Y412250D01*
X101500Y553750D02*
X296500D01*
X308000Y565250D01*
X101500Y553750D02*
X101500Y553750D01*
X249550Y333500D02*
X249750D01*
X267450Y315800D01*
X298045D01*
X200750Y518120D02*
X201660Y517210D01*
D35*
X144750Y395000D02*
D03*
X668250Y368550D02*
D03*
Y343150D02*
D03*
Y317750D02*
D03*
Y292350D02*
D03*
Y266950D02*
D03*
Y241550D02*
D03*
X144750Y268000D02*
D03*
Y293400D02*
D03*
Y318800D02*
D03*
Y344200D02*
D03*
Y369600D02*
D03*
X668250Y189000D02*
D03*
Y163600D02*
D03*
X144750Y444550D02*
D03*
Y469950D02*
D03*
Y495350D02*
D03*
Y520750D02*
D03*
D36*
X110000Y96500D02*
D03*
X75000D02*
D03*
X194500D02*
D03*
X159500D02*
D03*
X710218Y737387D02*
D03*
X681489Y787147D02*
D03*
X631729Y815876D02*
D03*
X574271D02*
D03*
X524511Y787147D02*
D03*
X495782Y737387D02*
D03*
Y679929D02*
D03*
X524511Y630169D02*
D03*
X574271Y601440D02*
D03*
X631729D02*
D03*
X681489Y630169D02*
D03*
X564500Y708658D02*
D03*
X622250Y675316D02*
D03*
Y742000D02*
D03*
X308468Y737387D02*
D03*
X279739Y787147D02*
D03*
X229979Y815876D02*
D03*
X172521D02*
D03*
X122761Y787147D02*
D03*
X94032Y737387D02*
D03*
Y679929D02*
D03*
X122761Y630169D02*
D03*
X172521Y601440D02*
D03*
X229979D02*
D03*
X279739Y630169D02*
D03*
X162750Y708658D02*
D03*
X220500Y675316D02*
D03*
Y742000D02*
D03*
D37*
X363560Y103500D02*
D03*
X338160Y128900D02*
D03*
X312760Y103500D02*
D03*
X446141D02*
D03*
X420741Y128900D02*
D03*
X395341Y103500D02*
D03*
X528721D02*
D03*
X503321Y128900D02*
D03*
X477921Y103500D02*
D03*
X611301D02*
D03*
X585901Y128900D02*
D03*
X560501Y103500D02*
D03*
X280980D02*
D03*
X255580Y128900D02*
D03*
X230180Y103500D02*
D03*
D38*
X27250Y31250D02*
D03*
X777250D02*
D03*
Y858500D02*
D03*
X27250D02*
D03*
D39*
X326120Y447810D02*
D03*
D40*
X201660Y517210D02*
D03*
D41*
Y427210D02*
D03*
D42*
X736100Y508850D02*
D03*
X710700D02*
D03*
X685300D02*
D03*
X659900D02*
D03*
X634500D02*
D03*
X609100D02*
D03*
X583700D02*
D03*
X558300D02*
D03*
X532900D02*
D03*
X507500D02*
D03*
X482100D02*
D03*
X456700D02*
D03*
X431300D02*
D03*
X405900D02*
D03*
X736100Y432650D02*
D03*
X710700D02*
D03*
X685300D02*
D03*
X659900D02*
D03*
X634500D02*
D03*
X609100D02*
D03*
X583700D02*
D03*
X558300D02*
D03*
X532900D02*
D03*
X507500D02*
D03*
X482100D02*
D03*
X456700D02*
D03*
X431300D02*
D03*
D43*
X405900D02*
D03*
D44*
X134350Y232780D02*
D03*
D45*
Y180780D02*
D03*
Y206780D02*
D03*
D46*
X710218Y679929D02*
D03*
X308468D02*
D03*
D47*
X619500Y338500D02*
D03*
X368000Y553250D02*
D03*
X110750Y585000D02*
D03*
X591500Y113250D02*
D03*
X228750Y363500D02*
D03*
X194500Y119500D02*
D03*
X36750Y85250D02*
D03*
X312250Y58610D02*
D03*
X278750Y43750D02*
D03*
X30250Y140750D02*
D03*
X22500Y172250D02*
D03*
X287750Y599250D02*
D03*
X272000Y564750D02*
D03*
X701000Y43500D02*
D03*
X638000Y151500D02*
D03*
X527000Y137500D02*
D03*
X335250Y156000D02*
D03*
X703750Y164500D02*
D03*
X454500Y159250D02*
D03*
X377750Y160750D02*
D03*
X448750Y871500D02*
D03*
X402250Y872000D02*
D03*
X719250Y459500D02*
D03*
X730250Y406500D02*
D03*
X60250Y129750D02*
D03*
X98000D02*
D03*
X56750Y164250D02*
D03*
X108750Y147750D02*
D03*
X99000Y164750D02*
D03*
X390750Y358500D02*
D03*
X202000Y635000D02*
D03*
X252250Y644250D02*
D03*
X643000Y274594D02*
D03*
X306500Y162000D02*
D03*
X163500Y174750D02*
D03*
X328533Y183341D02*
D03*
X417000Y198000D02*
D03*
X638500Y251250D02*
D03*
X594750Y387750D02*
D03*
X593750Y412250D02*
D03*
X581250Y362500D02*
D03*
X527500D02*
D03*
X566028Y448777D02*
D03*
X378500Y542000D02*
D03*
X180000Y473250D02*
D03*
X567500Y479500D02*
D03*
X459849Y396901D02*
D03*
X437500Y590250D02*
D03*
X437250Y644500D02*
D03*
X415750Y637750D02*
D03*
X320000D02*
D03*
X415250Y588100D02*
D03*
X308000Y565250D02*
D03*
X101500Y553750D02*
D03*
X771250Y392500D02*
D03*
X249550Y333500D02*
D03*
D48*
X520000Y108500D02*
D03*
X349500Y76000D02*
D03*
M02*
