G04*
G04 #@! TF.GenerationSoftware,Altium Limited,Altium Designer,23.3.1 (30)*
G04*
G04 Layer_Color=16711935*
%FSLAX44Y44*%
%MOMM*%
G71*
G04*
G04 #@! TF.SameCoordinates,649CD447-C1A0-469D-A239-E437E7B1C979*
G04*
G04*
G04 #@! TF.FilePolarity,Negative*
G04*
G01*
G75*
G04:AMPARAMS|DCode=16|XSize=2.055mm|YSize=1.674mm|CornerRadius=0mm|HoleSize=0mm|Usage=FLASHONLY|Rotation=180.000|XOffset=0mm|YOffset=0mm|HoleType=Round|Shape=Octagon|*
%AMOCTAGOND16*
4,1,8,-1.0275,0.4185,-1.0275,-0.4185,-0.6090,-0.8370,0.6090,-0.8370,1.0275,-0.4185,1.0275,0.4185,0.6090,0.8370,-0.6090,0.8370,-1.0275,0.4185,0.0*
%
%ADD16OCTAGOND16*%

%ADD17R,1.2000X1.2000*%
%ADD18C,2.1500*%
%ADD19C,1.2700*%
%ADD20C,1.4500*%
%ADD21R,1.3500X1.3500*%
%ADD22C,1.3500*%
%ADD23C,1.2000*%
%ADD24C,1.8000*%
%ADD25R,1.8000X1.8000*%
%ADD26C,1.6500*%
%ADD27R,1.6500X1.6500*%
%ADD28R,1.5500X1.5500*%
%ADD29C,1.5500*%
%ADD30R,2.1500X2.1500*%
%ADD31C,1.2500*%
%ADD32R,1.2500X1.2500*%
D16*
X144750Y395000D02*
D03*
X668250Y368550D02*
D03*
Y343150D02*
D03*
Y317750D02*
D03*
Y292350D02*
D03*
Y266950D02*
D03*
Y241550D02*
D03*
X144750Y268000D02*
D03*
Y293400D02*
D03*
Y318800D02*
D03*
Y344200D02*
D03*
Y369600D02*
D03*
X668250Y189000D02*
D03*
Y163600D02*
D03*
X144750Y444550D02*
D03*
Y469950D02*
D03*
Y495350D02*
D03*
Y520750D02*
D03*
D17*
X236350Y431570D02*
D03*
Y473270D02*
D03*
X286350Y514970D02*
D03*
D18*
X110000Y96500D02*
D03*
X75000D02*
D03*
X194500D02*
D03*
X159500D02*
D03*
X710218Y737387D02*
D03*
X681489Y787147D02*
D03*
X631729Y815876D02*
D03*
X574271D02*
D03*
X524511Y787147D02*
D03*
X495782Y737387D02*
D03*
Y679929D02*
D03*
X524511Y630169D02*
D03*
X574271Y601440D02*
D03*
X631729D02*
D03*
X681489Y630169D02*
D03*
X564500Y708658D02*
D03*
X622250Y675316D02*
D03*
Y742000D02*
D03*
X308468Y737387D02*
D03*
X279739Y787147D02*
D03*
X229979Y815876D02*
D03*
X172521D02*
D03*
X122761Y787147D02*
D03*
X94032Y737387D02*
D03*
Y679929D02*
D03*
X122761Y630169D02*
D03*
X172521Y601440D02*
D03*
X229979D02*
D03*
X279739Y630169D02*
D03*
X162750Y708658D02*
D03*
X220500Y675316D02*
D03*
Y742000D02*
D03*
D19*
X363560Y103500D02*
D03*
X338160Y128900D02*
D03*
X312760Y103500D02*
D03*
X446141D02*
D03*
X420741Y128900D02*
D03*
X395341Y103500D02*
D03*
X528721D02*
D03*
X503321Y128900D02*
D03*
X477921Y103500D02*
D03*
X611301D02*
D03*
X585901Y128900D02*
D03*
X560501Y103500D02*
D03*
X280980D02*
D03*
X255580Y128900D02*
D03*
X230180Y103500D02*
D03*
D20*
X27250Y31250D02*
D03*
X777250D02*
D03*
Y858500D02*
D03*
X27250D02*
D03*
D21*
X326120Y447810D02*
D03*
D22*
Y496610D02*
D03*
D23*
X286350Y431570D02*
D03*
Y473270D02*
D03*
X236350Y514970D02*
D03*
D24*
X201660Y517210D02*
D03*
D25*
Y427210D02*
D03*
D26*
X736100Y508850D02*
D03*
X710700D02*
D03*
X685300D02*
D03*
X659900D02*
D03*
X634500D02*
D03*
X609100D02*
D03*
X583700D02*
D03*
X558300D02*
D03*
X532900D02*
D03*
X507500D02*
D03*
X482100D02*
D03*
X456700D02*
D03*
X431300D02*
D03*
X405900D02*
D03*
X736100Y432650D02*
D03*
X710700D02*
D03*
X685300D02*
D03*
X659900D02*
D03*
X634500D02*
D03*
X609100D02*
D03*
X583700D02*
D03*
X558300D02*
D03*
X532900D02*
D03*
X507500D02*
D03*
X482100D02*
D03*
X456700D02*
D03*
X431300D02*
D03*
D27*
X405900D02*
D03*
D28*
X134350Y232780D02*
D03*
D29*
Y180780D02*
D03*
Y206780D02*
D03*
D30*
X710218Y679929D02*
D03*
X308468D02*
D03*
D31*
X452655Y357910D02*
D03*
X350105Y315800D02*
D03*
Y231580D02*
D03*
X452655Y273690D02*
D03*
X350105Y189470D02*
D03*
X607265D02*
D03*
Y231580D02*
D03*
Y273690D02*
D03*
X504715Y315800D02*
D03*
X607265Y357910D02*
D03*
X298045D02*
D03*
X195495Y315800D02*
D03*
Y273690D02*
D03*
Y231580D02*
D03*
X298045Y189470D02*
D03*
D32*
X350105Y357910D02*
D03*
X452655Y315800D02*
D03*
Y231580D02*
D03*
X350105Y273690D02*
D03*
X452655Y189470D02*
D03*
X504715D02*
D03*
Y231580D02*
D03*
Y273690D02*
D03*
X607265Y315800D02*
D03*
X504715Y357910D02*
D03*
X195495D02*
D03*
X298045Y315800D02*
D03*
Y273690D02*
D03*
Y231580D02*
D03*
X195495Y189470D02*
D03*
M02*
