M48
;Layer_Color=9474304
;FILE_FORMAT=4:4
METRIC,LZ
;TYPE=PLATED
T1F00S00C0.3000
T2F00S00C0.6000
T3F00S00C0.6900
T4F00S00C0.7000
T5F00S00C0.7500
T6F00S00C0.9000
T7F00S00C1.0000
T8F00S00C1.1500
T9F00S00C1.3000
T10F00S00C1.5000
;TYPE=NON_PLATED
T11F00S00C3.0000
%
T01
X003495Y00076
X0052Y001085
T02
X0027875Y0004375
X00701Y000435
X0070375Y001645
X00638Y001515
X005915Y0011325
X006385Y0025125
X00643Y00274594
X006195Y003385
X0058125Y003625
X0059475Y0038775
X0059375Y0041225
X0073025Y004065
X0077125Y003925
X005275Y003625
X00459849Y00396901
X0039075Y003585
X0024955Y003335
X0022875Y003635
X001635Y0017475
X001945Y001195
X003065Y00162
X0033525Y00156
X00328533Y00183341
X0037775Y0016075
X00417Y00198
X004545Y0015925
X00527Y001375
X0031225Y0005861
X00098Y0012975
X0010875Y0014775
X00099Y0016475
X0005675Y0016425
X0006025Y0012975
X0003025Y0014075
X000225Y0017225
X0003675Y0008525
X001015Y0055375
X0011075Y00585
X00202Y00635
X0025225Y0064425
X0032Y0063775
X0028775Y0059925
X00272Y0056475
X00308Y0056525
X00368Y0055325
X003785Y00542
X0041525Y005881
X004375Y0059025
X0043725Y006445
X0041575Y0063775
X0018Y0047325
X005675Y004795
X00566028Y00448777
X0071925Y004595
X0044875Y008715
X0040225Y00872
T03
X00560501Y001035
X00611301
X00585901Y001289
X00528721Y001035
X00503321Y001289
X00477921Y001035
X00446141
X00420741Y001289
X00395341Y001035
X0036356
X0033816Y001289
X0031276Y001035
X0028098
X0025558Y001289
X0023018Y001035
T04
X0023635Y0043157
X0028635
Y0047327
Y0051497
X0023635
Y0047327
X0032612Y0049661
Y0044781
T05
X00607265Y0018947
Y0023158
Y0027369
Y003158
Y0035791
X00504715
Y003158
Y0027369
Y0023158
Y0018947
X00452655
Y0023158
Y0027369
Y003158
Y0035791
X00350105
Y003158
Y0027369
Y0023158
Y0018947
X00298045
Y0023158
Y0027369
Y003158
Y0035791
X00195495
Y003158
Y0027369
Y0023158
Y0018947
T06
X005583Y0043265
X005837
X006091
X006345
X006599
X006853
X007107
X007361
X005329
X005075
X004821
X004567
X004313
X004059
X0013435Y0023278
Y0020678
Y0018078
X004059Y0050885
X004313
X004567
X004821
X005075
X005329
X005583
X005837
X006091
X006345
X006599
X006853
X007107
X007361
T07
X0066825Y001636
Y00189
Y0024155
Y0026695
Y0029235
Y0031775
Y0034315
Y0036855
X0014475Y003696
Y00395
Y003442
Y003188
Y002934
Y00268
Y0044455
Y0046995
Y0049535
Y0052075
T08
X0020166Y0042721
Y0051721
T09
X001595Y000965
X001945
X0011
X00075
T10
X00122761Y00630169
X00094032Y00679929
Y00737387
X00122761Y00787147
X00172521Y00815876
X00229979
X00279739Y00787147
X00308468Y00737387
Y00679929
X00279739Y00630169
X00229979Y0060144
X00172521
X0016275Y00708658
X002205Y00675316
Y00742
X00495782Y00737387
Y00679929
X00524511Y00630169
X00524511Y00787147
X00574271Y00815876
X00631729
X00681489Y00787147
X00710218Y00737387
Y00679929
X00681489Y00630169
X00631729Y0060144
X00574271
X005645Y00708658
X0062225Y00675316
Y00742
T11
X0002725Y0003125
X0077725
Y008585
X0002725
M30
