G04*
G04 #@! TF.GenerationSoftware,Altium Limited,Altium Designer,23.3.1 (30)*
G04*
G04 Layer_Physical_Order=1*
G04 Layer_Color=255*
%FSLAX44Y44*%
%MOMM*%
G71*
G04*
G04 #@! TF.SameCoordinates,649CD447-C1A0-469D-A239-E437E7B1C979*
G04*
G04*
G04 #@! TF.FilePolarity,Positive*
G04*
G01*
G75*
%ADD12C,0.6000*%
%ADD17R,1.2000X1.2000*%
%ADD23C,1.2000*%
%ADD31C,1.2500*%
%ADD32R,1.2500X1.2500*%
%ADD33C,0.3500*%
%ADD34C,0.3000*%
G04:AMPARAMS|DCode=35|XSize=1.905mm|YSize=1.524mm|CornerRadius=0mm|HoleSize=0mm|Usage=FLASHONLY|Rotation=180.000|XOffset=0mm|YOffset=0mm|HoleType=Round|Shape=Octagon|*
%AMOCTAGOND35*
4,1,8,-0.9525,0.3810,-0.9525,-0.3810,-0.5715,-0.7620,0.5715,-0.7620,0.9525,-0.3810,0.9525,0.3810,0.5715,0.7620,-0.5715,0.7620,-0.9525,0.3810,0.0*
%
%ADD35OCTAGOND35*%

%ADD36C,2.0000*%
%ADD37C,1.1200*%
%ADD38C,1.3000*%
%ADD39R,1.2000X1.2000*%
%ADD40C,1.6500*%
%ADD41R,1.6500X1.6500*%
%ADD42C,1.5000*%
%ADD43R,1.5000X1.5000*%
%ADD44R,1.4000X1.4000*%
%ADD45C,1.4000*%
%ADD46R,2.0000X2.0000*%
%ADD47C,0.8000*%
%ADD48C,0.6000*%
G36*
X406722Y880827D02*
X403380Y877485D01*
X403344Y877500D01*
X401156D01*
X399134Y876663D01*
X397587Y875116D01*
X396750Y873094D01*
Y870906D01*
X397587Y868885D01*
X399134Y867337D01*
X401156Y866500D01*
X403344D01*
X405365Y867337D01*
X406913Y868885D01*
X407750Y870906D01*
Y873094D01*
X407735Y873130D01*
X413665Y879061D01*
X701585D01*
X705468Y875178D01*
X704658Y874191D01*
X704428Y874345D01*
X703250Y874579D01*
X453428D01*
X453413Y874615D01*
X451866Y876163D01*
X449844Y877000D01*
X447656D01*
X445634Y876163D01*
X444087Y874615D01*
X443250Y872594D01*
Y870406D01*
X444087Y868384D01*
X445634Y866837D01*
X447656Y866000D01*
X449844D01*
X451866Y866837D01*
X453413Y868384D01*
X453428Y868421D01*
X701975D01*
X707119Y863277D01*
X706493Y862106D01*
X705250Y862354D01*
X170500D01*
X168834Y862022D01*
X167421Y861078D01*
X142171Y835828D01*
X141228Y834416D01*
X140896Y832750D01*
Y738063D01*
X94032Y691199D01*
X92549D01*
X89682Y690431D01*
X87112Y688947D01*
X85014Y686849D01*
X83530Y684279D01*
X82762Y681413D01*
Y678445D01*
X83530Y675579D01*
X85014Y673009D01*
X87112Y670911D01*
X89682Y669427D01*
X92549Y668659D01*
X95516D01*
X98382Y669427D01*
X100952Y670911D01*
X103050Y673009D01*
X104534Y675579D01*
X105302Y678445D01*
Y681413D01*
X104534Y684279D01*
X103050Y686849D01*
X102523Y687376D01*
X148329Y733182D01*
X149272Y734594D01*
X149604Y736260D01*
Y830947D01*
X172303Y853646D01*
X703447D01*
X776146Y780947D01*
Y404640D01*
X769047Y397541D01*
X768135Y397163D01*
X766587Y395616D01*
X765750Y393594D01*
Y391406D01*
X766587Y389384D01*
X768135Y387837D01*
X770156Y387000D01*
X772344D01*
X774365Y387837D01*
X775913Y389384D01*
X776750Y391406D01*
Y392930D01*
X783578Y399758D01*
X783651Y399867D01*
X784921Y399481D01*
Y382275D01*
X723475Y320829D01*
X679045D01*
Y322195D01*
X674600Y326640D01*
X661900D01*
X657455Y322195D01*
Y313305D01*
X661900Y308860D01*
X674600D01*
X679045Y313305D01*
Y314671D01*
X724750D01*
X725928Y314905D01*
X726927Y315573D01*
X789691Y378336D01*
X790961Y377810D01*
Y314315D01*
X772075Y295429D01*
X679045D01*
Y296795D01*
X674600Y301240D01*
X661900D01*
X657455Y296795D01*
Y287905D01*
X661900Y283460D01*
X674600D01*
X679045Y287905D01*
Y289271D01*
X773350D01*
X774528Y289505D01*
X775527Y290173D01*
X795230Y309875D01*
X796500Y309349D01*
Y7250D01*
X7000D01*
Y882000D01*
X406236D01*
X406722Y880827D01*
D02*
G37*
G36*
X796500Y794651D02*
X795230Y794125D01*
X708528Y880827D01*
X709014Y882000D01*
X796500D01*
Y794651D01*
D02*
G37*
%LPC*%
G36*
X28974Y876000D02*
X25526D01*
X22145Y875328D01*
X18961Y874008D01*
X16094Y872093D01*
X13657Y869656D01*
X11742Y866789D01*
X10423Y863605D01*
X9750Y860224D01*
Y856776D01*
X10423Y853395D01*
X11742Y850211D01*
X13657Y847344D01*
X16094Y844907D01*
X18961Y842992D01*
X22145Y841673D01*
X25526Y841000D01*
X28974D01*
X32355Y841673D01*
X35539Y842992D01*
X38406Y844907D01*
X40843Y847344D01*
X42758Y850211D01*
X44078Y853395D01*
X44750Y856776D01*
Y860224D01*
X44078Y863605D01*
X42758Y866789D01*
X40843Y869656D01*
X38406Y872093D01*
X35539Y874008D01*
X32355Y875328D01*
X28974Y876000D01*
D02*
G37*
G36*
X633213Y827146D02*
X630245D01*
X627379Y826378D01*
X624809Y824894D01*
X622711Y822796D01*
X621227Y820226D01*
X620459Y817359D01*
Y814392D01*
X621227Y811526D01*
X622711Y808956D01*
X624809Y806858D01*
X627379Y805374D01*
X630245Y804606D01*
X633213D01*
X636079Y805374D01*
X638649Y806858D01*
X640747Y808956D01*
X642231Y811526D01*
X642999Y814392D01*
Y817359D01*
X642231Y820226D01*
X640747Y822796D01*
X638649Y824894D01*
X636079Y826378D01*
X633213Y827146D01*
D02*
G37*
G36*
X575755D02*
X572787D01*
X569921Y826378D01*
X567351Y824894D01*
X565253Y822796D01*
X563769Y820226D01*
X563001Y817359D01*
Y814392D01*
X563769Y811526D01*
X565253Y808956D01*
X567351Y806858D01*
X569921Y805374D01*
X572787Y804606D01*
X575755D01*
X578621Y805374D01*
X581191Y806858D01*
X583289Y808956D01*
X584773Y811526D01*
X585541Y814392D01*
Y817359D01*
X584773Y820226D01*
X583289Y822796D01*
X581191Y824894D01*
X578621Y826378D01*
X575755Y827146D01*
D02*
G37*
G36*
X174005D02*
X171037D01*
X168171Y826378D01*
X165601Y824894D01*
X163503Y822796D01*
X162019Y820226D01*
X161251Y817359D01*
Y814392D01*
X162019Y811526D01*
X163503Y808956D01*
X165601Y806858D01*
X168171Y805374D01*
X171037Y804606D01*
X174005D01*
X176871Y805374D01*
X179441Y806858D01*
X181539Y808956D01*
X183023Y811526D01*
X183791Y814392D01*
Y817359D01*
X183023Y820226D01*
X181539Y822796D01*
X179441Y824894D01*
X176871Y826378D01*
X174005Y827146D01*
D02*
G37*
G36*
X525995Y798417D02*
X523027D01*
X520161Y797649D01*
X517591Y796165D01*
X515493Y794067D01*
X514009Y791497D01*
X513241Y788631D01*
Y785663D01*
X514009Y782797D01*
X515493Y780227D01*
X517591Y778129D01*
X520161Y776645D01*
X523027Y775877D01*
X525995D01*
X528861Y776645D01*
X531431Y778129D01*
X533529Y780227D01*
X535013Y782797D01*
X535781Y785663D01*
Y788631D01*
X535013Y791497D01*
X533529Y794067D01*
X531431Y796165D01*
X528861Y797649D01*
X525995Y798417D01*
D02*
G37*
G36*
X124245D02*
X121277D01*
X118411Y797649D01*
X115841Y796165D01*
X113743Y794067D01*
X112259Y791497D01*
X111491Y788631D01*
Y785663D01*
X112259Y782797D01*
X113743Y780227D01*
X115841Y778129D01*
X118411Y776645D01*
X121277Y775877D01*
X124245D01*
X127111Y776645D01*
X129681Y778129D01*
X131779Y780227D01*
X133263Y782797D01*
X134031Y785663D01*
Y788631D01*
X133263Y791497D01*
X131779Y794067D01*
X129681Y796165D01*
X127111Y797649D01*
X124245Y798417D01*
D02*
G37*
G36*
X682973Y798417D02*
X680005D01*
X677139Y797649D01*
X674569Y796165D01*
X672471Y794067D01*
X670987Y791497D01*
X670219Y788631D01*
Y785663D01*
X670987Y782797D01*
X672471Y780227D01*
X674569Y778129D01*
X677139Y776645D01*
X680005Y775877D01*
X682973D01*
X685839Y776645D01*
X688409Y778129D01*
X690507Y780227D01*
X691991Y782797D01*
X692759Y785663D01*
Y788631D01*
X691991Y791497D01*
X690507Y794067D01*
X688409Y796165D01*
X685839Y797649D01*
X682973Y798417D01*
D02*
G37*
G36*
X281223D02*
X278255D01*
X275389Y797649D01*
X272819Y796165D01*
X270721Y794067D01*
X269237Y791497D01*
X268469Y788631D01*
Y785663D01*
X269237Y782797D01*
X270721Y780227D01*
X272819Y778129D01*
X275389Y776645D01*
X278255Y775877D01*
X281223D01*
X284089Y776645D01*
X286659Y778129D01*
X288757Y780227D01*
X290241Y782797D01*
X291009Y785663D01*
Y788631D01*
X290241Y791497D01*
X288757Y794067D01*
X286659Y796165D01*
X284089Y797649D01*
X281223Y798417D01*
D02*
G37*
G36*
X623734Y753270D02*
X620766D01*
X617900Y752502D01*
X615330Y751018D01*
X613232Y748920D01*
X611748Y746350D01*
X610980Y743484D01*
Y740516D01*
X611748Y737650D01*
X613232Y735080D01*
X615330Y732982D01*
X617900Y731498D01*
X620766Y730730D01*
X623734D01*
X626600Y731498D01*
X629170Y732982D01*
X631268Y735080D01*
X632752Y737650D01*
X633520Y740516D01*
Y743484D01*
X632752Y746350D01*
X631268Y748920D01*
X629170Y751018D01*
X626600Y752502D01*
X623734Y753270D01*
D02*
G37*
G36*
X221984D02*
X219016D01*
X216150Y752502D01*
X213580Y751018D01*
X211482Y748920D01*
X209998Y746350D01*
X209230Y743484D01*
Y740516D01*
X209998Y737650D01*
X211482Y735080D01*
X213580Y732982D01*
X216150Y731498D01*
X219016Y730730D01*
X221984D01*
X224850Y731498D01*
X227420Y732982D01*
X229518Y735080D01*
X231002Y737650D01*
X231770Y740516D01*
Y743484D01*
X231002Y746350D01*
X229518Y748920D01*
X227420Y751018D01*
X224850Y752502D01*
X221984Y753270D01*
D02*
G37*
G36*
X497266Y748657D02*
X494299D01*
X491432Y747889D01*
X488862Y746405D01*
X486764Y744307D01*
X485280Y741737D01*
X484512Y738871D01*
Y735903D01*
X485280Y733037D01*
X486764Y730467D01*
X488862Y728369D01*
X491432Y726885D01*
X494299Y726117D01*
X497266D01*
X500132Y726885D01*
X502702Y728369D01*
X504800Y730467D01*
X506284Y733037D01*
X507052Y735903D01*
Y738871D01*
X506284Y741737D01*
X504800Y744307D01*
X502702Y746405D01*
X500132Y747889D01*
X497266Y748657D01*
D02*
G37*
G36*
X95516D02*
X92549D01*
X89682Y747889D01*
X87112Y746405D01*
X85014Y744307D01*
X83530Y741737D01*
X82762Y738871D01*
Y735903D01*
X82906Y735368D01*
X65785Y718247D01*
X65173Y717331D01*
X64958Y716250D01*
X64958Y716250D01*
Y573718D01*
X64958Y573718D01*
X65173Y572637D01*
X65785Y571721D01*
X85753Y551753D01*
X85753Y551753D01*
X86669Y551141D01*
X87750Y550926D01*
X96717D01*
X96837Y550634D01*
X98385Y549087D01*
X100406Y548250D01*
X102594D01*
X104615Y549087D01*
X106163Y550634D01*
X107000Y552656D01*
Y554844D01*
X106163Y556866D01*
X104615Y558413D01*
X102594Y559250D01*
X100406D01*
X98385Y558413D01*
X96837Y556866D01*
X96717Y556574D01*
X88920D01*
X70606Y574888D01*
Y715080D01*
X85504Y729977D01*
X87112Y728369D01*
X89682Y726885D01*
X92549Y726117D01*
X95516D01*
X98382Y726885D01*
X100952Y728369D01*
X103050Y730467D01*
X104534Y733037D01*
X105302Y735903D01*
Y738871D01*
X104534Y741737D01*
X103050Y744307D01*
X100952Y746405D01*
X98382Y747889D01*
X95516Y748657D01*
D02*
G37*
G36*
X711702Y748657D02*
X708734D01*
X705868Y747889D01*
X703298Y746405D01*
X701199Y744307D01*
X699716Y741737D01*
X698948Y738871D01*
Y735903D01*
X699716Y733037D01*
X701199Y730467D01*
X703298Y728369D01*
X705868Y726885D01*
X708734Y726117D01*
X711702D01*
X714568Y726885D01*
X717138Y728369D01*
X719236Y730467D01*
X720720Y733037D01*
X721488Y735903D01*
Y738871D01*
X720720Y741737D01*
X719236Y744307D01*
X717138Y746405D01*
X714568Y747889D01*
X711702Y748657D01*
D02*
G37*
G36*
X565984Y719928D02*
X563016D01*
X560150Y719160D01*
X557580Y717676D01*
X555482Y715578D01*
X553998Y713008D01*
X553230Y710142D01*
Y707174D01*
X553998Y704308D01*
X555482Y701738D01*
X557580Y699640D01*
X560150Y698156D01*
X563016Y697388D01*
X565984D01*
X568850Y698156D01*
X571420Y699640D01*
X573518Y701738D01*
X575002Y704308D01*
X575770Y707174D01*
Y710142D01*
X575002Y713008D01*
X573518Y715578D01*
X571420Y717676D01*
X568850Y719160D01*
X565984Y719928D01*
D02*
G37*
G36*
X164234D02*
X161266D01*
X158400Y719160D01*
X155830Y717676D01*
X153732Y715578D01*
X152248Y713008D01*
X151480Y710142D01*
Y707174D01*
X152248Y704308D01*
X153732Y701738D01*
X155830Y699640D01*
X158400Y698156D01*
X161266Y697388D01*
X164234D01*
X167100Y698156D01*
X169670Y699640D01*
X171768Y701738D01*
X173252Y704308D01*
X174020Y707174D01*
Y710142D01*
X173252Y713008D01*
X171768Y715578D01*
X169670Y717676D01*
X167100Y719160D01*
X164234Y719928D01*
D02*
G37*
G36*
X221984Y686586D02*
X219016D01*
X216150Y685818D01*
X215415Y685394D01*
X220732Y676183D01*
X229943Y681501D01*
X229518Y682236D01*
X227420Y684334D01*
X224850Y685818D01*
X221984Y686586D01*
D02*
G37*
G36*
X497266Y691199D02*
X494299D01*
X491432Y690431D01*
X488862Y688947D01*
X486764Y686849D01*
X485280Y684279D01*
X484512Y681413D01*
Y678445D01*
X485280Y675579D01*
X486764Y673009D01*
X488862Y670911D01*
X491432Y669427D01*
X494299Y668659D01*
X497266D01*
X500132Y669427D01*
X502702Y670911D01*
X504800Y673009D01*
X506284Y675579D01*
X507052Y678445D01*
Y681413D01*
X506284Y684279D01*
X504800Y686849D01*
X502702Y688947D01*
X500132Y690431D01*
X497266Y691199D01*
D02*
G37*
G36*
X319738Y691199D02*
X297198D01*
Y668659D01*
X319738D01*
Y691199D01*
D02*
G37*
G36*
X230578Y680401D02*
X221367Y675084D01*
X226685Y665873D01*
X227420Y666298D01*
X229518Y668396D01*
X231002Y670966D01*
X231770Y673832D01*
Y676800D01*
X231002Y679666D01*
X230578Y680401D01*
D02*
G37*
G36*
X214315Y684759D02*
X213580Y684334D01*
X211482Y682236D01*
X209998Y679666D01*
X209230Y676800D01*
Y673832D01*
X209297Y673581D01*
X119323Y583606D01*
X118655Y582607D01*
X118421Y581429D01*
Y493200D01*
X118655Y492022D01*
X119323Y491023D01*
X134953Y475393D01*
X133955Y474395D01*
Y470585D01*
X144115D01*
Y478840D01*
X140215D01*
X124579Y494476D01*
Y580154D01*
X212152Y667726D01*
X213580Y666298D01*
X216150Y664814D01*
X219016Y664046D01*
X221984D01*
X224850Y664814D01*
X225585Y665238D01*
X219950Y674998D01*
X214315Y684759D01*
D02*
G37*
G36*
X525995Y641439D02*
X523027D01*
X520161Y640671D01*
X517591Y639187D01*
X515493Y637089D01*
X514009Y634519D01*
X513241Y631653D01*
Y628685D01*
X514009Y625819D01*
X515493Y623249D01*
X517591Y621151D01*
X520161Y619667D01*
X523027Y618899D01*
X525995D01*
X528861Y619667D01*
X531431Y621151D01*
X533529Y623249D01*
X535013Y625819D01*
X535781Y628685D01*
Y631653D01*
X535013Y634519D01*
X533529Y637089D01*
X531431Y639187D01*
X528861Y640671D01*
X525995Y641439D01*
D02*
G37*
G36*
X124245D02*
X121277D01*
X118411Y640671D01*
X115841Y639187D01*
X113743Y637089D01*
X112259Y634519D01*
X111491Y631653D01*
Y628685D01*
X111635Y628150D01*
X108753Y625268D01*
X108141Y624352D01*
X107926Y623271D01*
X107926Y623271D01*
Y589783D01*
X107634Y589663D01*
X106087Y588116D01*
X105250Y586094D01*
Y583906D01*
X106087Y581884D01*
X107634Y580337D01*
X109656Y579500D01*
X111844D01*
X113865Y580337D01*
X115413Y581884D01*
X116250Y583906D01*
Y586094D01*
X115413Y588116D01*
X113865Y589663D01*
X113574Y589783D01*
Y621622D01*
X114811Y622181D01*
X115841Y621151D01*
X118411Y619667D01*
X121277Y618899D01*
X124245D01*
X127111Y619667D01*
X129681Y621151D01*
X131779Y623249D01*
X133263Y625819D01*
X134031Y628685D01*
Y631653D01*
X133263Y634519D01*
X131779Y637089D01*
X129681Y639187D01*
X127111Y640671D01*
X124245Y641439D01*
D02*
G37*
G36*
X321094Y643250D02*
X318906D01*
X316884Y642413D01*
X315337Y640865D01*
X314500Y638844D01*
Y636656D01*
X315337Y634635D01*
X316884Y633087D01*
X317176Y632967D01*
Y615250D01*
X317176Y615250D01*
X317271Y614769D01*
X316101Y614143D01*
X298215Y632029D01*
X297299Y632641D01*
X296218Y632856D01*
X296218Y632856D01*
X290686D01*
X290241Y634519D01*
X288757Y637089D01*
X286659Y639187D01*
X284089Y640671D01*
X281223Y641439D01*
X278255D01*
X275389Y640671D01*
X272819Y639187D01*
X270721Y637089D01*
X269237Y634519D01*
X268469Y631653D01*
Y628685D01*
X269237Y625819D01*
X269839Y624776D01*
X258403Y613340D01*
X257791Y612424D01*
X257576Y611343D01*
X257576Y611343D01*
Y577682D01*
Y402398D01*
Y227115D01*
X257576Y227115D01*
X257791Y226034D01*
X258403Y225118D01*
X291078Y192443D01*
X291038Y192373D01*
X290525Y190460D01*
Y188480D01*
X291038Y186567D01*
X292027Y184853D01*
X293428Y183452D01*
X295142Y182463D01*
X297055Y181950D01*
X299035D01*
X300948Y182463D01*
X302662Y183452D01*
X304062Y184853D01*
X305053Y186567D01*
X305565Y188480D01*
Y190460D01*
X305053Y192373D01*
X304062Y194087D01*
X302662Y195487D01*
X300948Y196478D01*
X299035Y196990D01*
X297055D01*
X295142Y196478D01*
X295072Y196437D01*
X263224Y228285D01*
Y260747D01*
X264398Y261233D01*
X290525Y235106D01*
Y224060D01*
X305565D01*
Y239100D01*
X294519D01*
X267824Y265795D01*
Y299013D01*
X269094Y299138D01*
X269141Y298904D01*
X269753Y297988D01*
X290525Y277216D01*
Y266170D01*
X305565D01*
Y279380D01*
X306738Y279867D01*
X323926Y262679D01*
Y186512D01*
X323870Y186457D01*
X323033Y184435D01*
Y182247D01*
X323870Y180226D01*
X325418Y178679D01*
X327439Y177841D01*
X329627D01*
X331648Y178679D01*
X333196Y180226D01*
X334033Y182247D01*
Y184435D01*
X333196Y186457D01*
X331648Y188004D01*
X329627Y188841D01*
X329574D01*
Y263849D01*
X329574Y263849D01*
X329359Y264930D01*
X328747Y265846D01*
X300869Y293724D01*
Y308280D01*
X305565D01*
Y323320D01*
X290525D01*
Y308280D01*
X295221D01*
Y292554D01*
X295221Y292554D01*
X295436Y291473D01*
X296048Y290557D01*
X304221Y282383D01*
X303735Y281210D01*
X294519D01*
X274574Y301155D01*
Y559863D01*
X275116Y560087D01*
X276663Y561634D01*
X277500Y563656D01*
Y565844D01*
X276663Y567865D01*
X275116Y569413D01*
X273094Y570250D01*
X270906D01*
X269094Y569500D01*
X267824Y570012D01*
Y576330D01*
X285658Y594164D01*
X286656Y593750D01*
X288844D01*
X290865Y594587D01*
X292413Y596134D01*
X293250Y598156D01*
Y600344D01*
X292413Y602365D01*
X290865Y603913D01*
X288844Y604750D01*
X286656D01*
X284634Y603913D01*
X283087Y602365D01*
X282250Y600344D01*
Y598744D01*
X264398Y580892D01*
X263224Y581378D01*
Y610173D01*
X273696Y620645D01*
X275389Y619667D01*
X278255Y618899D01*
X281223D01*
X284089Y619667D01*
X286659Y621151D01*
X288757Y623249D01*
X290241Y625819D01*
X290613Y627208D01*
X295048D01*
X352912Y569344D01*
X352872Y568958D01*
X352481Y568074D01*
X312783D01*
X312663Y568366D01*
X311115Y569913D01*
X309094Y570750D01*
X306906D01*
X304884Y569913D01*
X303337Y568366D01*
X302500Y566344D01*
Y564156D01*
X303337Y562135D01*
X304884Y560587D01*
X306906Y559750D01*
X309094D01*
X311115Y560587D01*
X312663Y562135D01*
X312783Y562426D01*
X492580D01*
X530076Y524930D01*
Y517173D01*
X529515Y517022D01*
X527515Y515868D01*
X525882Y514235D01*
X524728Y512235D01*
X524130Y510005D01*
Y507695D01*
X524728Y505465D01*
X525882Y503465D01*
X527515Y501832D01*
X529515Y500678D01*
X531745Y500080D01*
X534055D01*
X536285Y500678D01*
X538285Y501832D01*
X539918Y503465D01*
X541072Y505465D01*
X541670Y507695D01*
Y510005D01*
X541072Y512235D01*
X539918Y514235D01*
X538285Y515868D01*
X536285Y517022D01*
X535724Y517173D01*
Y526100D01*
X535724Y526100D01*
X535509Y527181D01*
X534897Y528097D01*
X534897Y528097D01*
X495838Y567156D01*
X495878Y567542D01*
X496269Y568426D01*
X651830D01*
X682476Y537780D01*
Y517173D01*
X681915Y517022D01*
X679915Y515868D01*
X678282Y514235D01*
X677128Y512235D01*
X676530Y510005D01*
Y507695D01*
X677128Y505465D01*
X678282Y503465D01*
X679915Y501832D01*
X681915Y500678D01*
X684145Y500080D01*
X686455D01*
X688685Y500678D01*
X690685Y501832D01*
X692318Y503465D01*
X693472Y505465D01*
X694070Y507695D01*
Y510005D01*
X693472Y512235D01*
X692318Y514235D01*
X690685Y515868D01*
X688685Y517022D01*
X688124Y517173D01*
Y538950D01*
X688124Y538950D01*
X687909Y540031D01*
X687297Y540947D01*
X655904Y572340D01*
X656380Y573660D01*
X656577Y573679D01*
X707876Y522380D01*
Y517173D01*
X707315Y517022D01*
X705315Y515868D01*
X703682Y514235D01*
X702528Y512235D01*
X701930Y510005D01*
Y507695D01*
X702528Y505465D01*
X703682Y503465D01*
X705315Y501832D01*
X707315Y500678D01*
X709545Y500080D01*
X711855D01*
X714085Y500678D01*
X716085Y501832D01*
X717718Y503465D01*
X718872Y505465D01*
X719470Y507695D01*
Y510005D01*
X718872Y512235D01*
X717718Y514235D01*
X716085Y515868D01*
X714085Y517022D01*
X713524Y517173D01*
Y523550D01*
X713309Y524631D01*
X712697Y525547D01*
X712697Y525547D01*
X658997Y579247D01*
X658081Y579859D01*
X657000Y580074D01*
X657000Y580074D01*
X359170D01*
X322824Y616420D01*
Y632967D01*
X323116Y633087D01*
X324663Y634635D01*
X325500Y636656D01*
Y638844D01*
X324663Y640865D01*
X323116Y642413D01*
X321094Y643250D01*
D02*
G37*
G36*
X633213Y612710D02*
X630245D01*
X627379Y611942D01*
X624809Y610458D01*
X622711Y608360D01*
X621227Y605790D01*
X620459Y602924D01*
Y599957D01*
X621227Y597090D01*
X622711Y594520D01*
X624809Y592422D01*
X627379Y590938D01*
X630245Y590170D01*
X633213D01*
X636079Y590938D01*
X638649Y592422D01*
X640747Y594520D01*
X642231Y597090D01*
X642999Y599957D01*
Y602924D01*
X642231Y605790D01*
X640747Y608360D01*
X638649Y610458D01*
X636079Y611942D01*
X633213Y612710D01*
D02*
G37*
G36*
X575755D02*
X572787D01*
X569921Y611942D01*
X567351Y610458D01*
X565253Y608360D01*
X563769Y605790D01*
X563001Y602924D01*
Y599957D01*
X563769Y597090D01*
X565253Y594520D01*
X567351Y592422D01*
X569921Y590938D01*
X572787Y590170D01*
X575755D01*
X578621Y590938D01*
X581191Y592422D01*
X583289Y594520D01*
X584773Y597090D01*
X585541Y599957D01*
Y602924D01*
X584773Y605790D01*
X583289Y608360D01*
X581191Y610458D01*
X578621Y611942D01*
X575755Y612710D01*
D02*
G37*
G36*
X438344Y650000D02*
X436156D01*
X434134Y649163D01*
X432587Y647616D01*
X431750Y645594D01*
Y643406D01*
X432587Y641385D01*
X434134Y639837D01*
X434171Y639822D01*
Y594699D01*
X432837Y593366D01*
X432000Y591344D01*
Y589156D01*
X432837Y587135D01*
X434384Y585587D01*
X436406Y584750D01*
X438594D01*
X440616Y585587D01*
X442163Y587135D01*
X443000Y589156D01*
Y591344D01*
X442163Y593366D01*
X440616Y594913D01*
X440329Y595031D01*
Y639822D01*
X440365Y639837D01*
X441913Y641385D01*
X442750Y643406D01*
Y645594D01*
X441913Y647616D01*
X440365Y649163D01*
X438344Y650000D01*
D02*
G37*
G36*
X416844Y643250D02*
X414656D01*
X412635Y642413D01*
X411087Y640865D01*
X410250Y638844D01*
Y636656D01*
X411087Y634635D01*
X411996Y633726D01*
Y592624D01*
X410587Y591216D01*
X409750Y589194D01*
Y587006D01*
X410587Y584985D01*
X412135Y583437D01*
X414156Y582600D01*
X416344D01*
X418366Y583437D01*
X419913Y584985D01*
X420750Y587006D01*
Y589194D01*
X419913Y591216D01*
X418366Y592763D01*
X418154Y592850D01*
Y632793D01*
X418866Y633087D01*
X420413Y634635D01*
X421250Y636656D01*
Y638844D01*
X420413Y640865D01*
X418866Y642413D01*
X416844Y643250D01*
D02*
G37*
G36*
X151100Y529640D02*
X138400D01*
X133955Y525195D01*
Y516305D01*
X138400Y511860D01*
X151100D01*
X155545Y516305D01*
Y525195D01*
X151100Y529640D01*
D02*
G37*
G36*
X610255Y517620D02*
X609735D01*
Y509485D01*
X617870D01*
Y510005D01*
X617272Y512235D01*
X616118Y514235D01*
X614485Y515868D01*
X612485Y517022D01*
X610255Y517620D01*
D02*
G37*
G36*
X608465D02*
X607945D01*
X605715Y517022D01*
X603715Y515868D01*
X602082Y514235D01*
X600928Y512235D01*
X600330Y510005D01*
Y509485D01*
X608465D01*
Y517620D01*
D02*
G37*
G36*
X293620Y522240D02*
X279080D01*
Y507700D01*
X293620D01*
Y522240D01*
D02*
G37*
G36*
X253344Y649750D02*
X251156D01*
X249135Y648913D01*
X247587Y647365D01*
X246750Y645344D01*
Y643156D01*
X247587Y641134D01*
X248671Y640051D01*
Y601525D01*
X234173Y587027D01*
X233505Y586028D01*
X233271Y584850D01*
Y521587D01*
X231886Y520787D01*
X230533Y519434D01*
X229575Y517776D01*
X229080Y515927D01*
Y514013D01*
X229575Y512164D01*
X230533Y510506D01*
X231886Y509153D01*
X233544Y508195D01*
X235393Y507700D01*
X237307D01*
X239156Y508195D01*
X240814Y509153D01*
X242167Y510506D01*
X243125Y512164D01*
X243620Y514013D01*
Y515927D01*
X243125Y517776D01*
X242167Y519434D01*
X240814Y520787D01*
X239429Y521587D01*
Y583575D01*
X253927Y598073D01*
X254595Y599072D01*
X254829Y600250D01*
Y639365D01*
X255366Y639587D01*
X256913Y641134D01*
X257750Y643156D01*
Y645344D01*
X256913Y647365D01*
X255366Y648913D01*
X253344Y649750D01*
D02*
G37*
G36*
X203094Y640500D02*
X200906D01*
X198885Y639663D01*
X197337Y638116D01*
X196500Y636094D01*
Y633906D01*
X197337Y631884D01*
X198836Y630386D01*
Y526309D01*
X197985Y526081D01*
X195815Y524828D01*
X194042Y523055D01*
X192789Y520885D01*
X192140Y518463D01*
Y515957D01*
X192789Y513535D01*
X194042Y511365D01*
X195815Y509592D01*
X197985Y508339D01*
X200407Y507690D01*
X202913D01*
X205335Y508339D01*
X207505Y509592D01*
X209278Y511365D01*
X210531Y513535D01*
X211180Y515957D01*
Y518463D01*
X210531Y520885D01*
X209278Y523055D01*
X207505Y524828D01*
X205335Y526081D01*
X204484Y526309D01*
Y630076D01*
X205116Y630337D01*
X206663Y631884D01*
X207500Y633906D01*
Y636094D01*
X206663Y638116D01*
X205116Y639663D01*
X203094Y640500D01*
D02*
G37*
G36*
X635655Y517620D02*
X633345D01*
X631115Y517022D01*
X629115Y515868D01*
X627482Y514235D01*
X626328Y512235D01*
X625730Y510005D01*
Y507695D01*
X626328Y505465D01*
X627482Y503465D01*
X629115Y501832D01*
X631115Y500678D01*
X633345Y500080D01*
X635655D01*
X637885Y500678D01*
X639885Y501832D01*
X641518Y503465D01*
X642672Y505465D01*
X643270Y507695D01*
Y510005D01*
X642672Y512235D01*
X641518Y514235D01*
X639885Y515868D01*
X637885Y517022D01*
X635655Y517620D01*
D02*
G37*
G36*
X617870Y508215D02*
X609735D01*
Y500080D01*
X610255D01*
X612485Y500678D01*
X614485Y501832D01*
X616118Y503465D01*
X617272Y505465D01*
X617870Y507695D01*
Y508215D01*
D02*
G37*
G36*
X608465D02*
X600330D01*
Y507695D01*
X600332Y507687D01*
X586474Y493829D01*
X563052D01*
X561874Y493595D01*
X560875Y492927D01*
X549263Y481315D01*
X548595Y480316D01*
X548361Y479138D01*
Y439510D01*
X548595Y438332D01*
X549263Y437333D01*
X550286Y436309D01*
X550128Y436035D01*
X549530Y433805D01*
Y433285D01*
X557665D01*
Y441420D01*
X557145D01*
X555789Y441057D01*
X554519Y441998D01*
Y477862D01*
X564328Y487671D01*
X587750D01*
X588928Y487905D01*
X589927Y488573D01*
X603451Y502096D01*
X603715Y501832D01*
X605715Y500678D01*
X607945Y500080D01*
X608465D01*
Y508215D01*
D02*
G37*
G36*
X584855Y517620D02*
X582545D01*
X580315Y517022D01*
X578315Y515868D01*
X576682Y514235D01*
X575528Y512235D01*
X574930Y510005D01*
Y507695D01*
X575528Y505465D01*
X576682Y503465D01*
X578315Y501832D01*
X580315Y500678D01*
X582545Y500080D01*
X584855D01*
X587085Y500678D01*
X589085Y501832D01*
X590718Y503465D01*
X591872Y505465D01*
X592470Y507695D01*
Y510005D01*
X591872Y512235D01*
X590718Y514235D01*
X589085Y515868D01*
X587085Y517022D01*
X584855Y517620D01*
D02*
G37*
G36*
X559455D02*
X557145D01*
X554915Y517022D01*
X552915Y515868D01*
X551282Y514235D01*
X550128Y512235D01*
X549530Y510005D01*
Y507695D01*
X550128Y505465D01*
X551282Y503465D01*
X552915Y501832D01*
X554915Y500678D01*
X557145Y500080D01*
X559455D01*
X561685Y500678D01*
X563685Y501832D01*
X565318Y503465D01*
X566472Y505465D01*
X567070Y507695D01*
Y510005D01*
X566472Y512235D01*
X565318Y514235D01*
X563685Y515868D01*
X561685Y517022D01*
X559455Y517620D01*
D02*
G37*
G36*
X508655D02*
X506345D01*
X504115Y517022D01*
X502115Y515868D01*
X500482Y514235D01*
X499328Y512235D01*
X498730Y510005D01*
Y507695D01*
X499328Y505465D01*
X500482Y503465D01*
X502115Y501832D01*
X504115Y500678D01*
X506345Y500080D01*
X508655D01*
X510885Y500678D01*
X512885Y501832D01*
X514518Y503465D01*
X515672Y505465D01*
X516270Y507695D01*
Y510005D01*
X515672Y512235D01*
X514518Y514235D01*
X512885Y515868D01*
X510885Y517022D01*
X508655Y517620D01*
D02*
G37*
G36*
X483255D02*
X480945D01*
X478715Y517022D01*
X476715Y515868D01*
X475082Y514235D01*
X473928Y512235D01*
X473330Y510005D01*
Y507695D01*
X473928Y505465D01*
X475082Y503465D01*
X476715Y501832D01*
X478715Y500678D01*
X480945Y500080D01*
X483255D01*
X485485Y500678D01*
X487485Y501832D01*
X489118Y503465D01*
X490272Y505465D01*
X490870Y507695D01*
Y510005D01*
X490272Y512235D01*
X489118Y514235D01*
X487485Y515868D01*
X485485Y517022D01*
X483255Y517620D01*
D02*
G37*
G36*
X457855D02*
X455545D01*
X453315Y517022D01*
X451315Y515868D01*
X449682Y514235D01*
X448528Y512235D01*
X447930Y510005D01*
Y507695D01*
X448528Y505465D01*
X449682Y503465D01*
X451315Y501832D01*
X453315Y500678D01*
X455545Y500080D01*
X457855D01*
X460085Y500678D01*
X462085Y501832D01*
X463718Y503465D01*
X464872Y505465D01*
X465470Y507695D01*
Y510005D01*
X464872Y512235D01*
X463718Y514235D01*
X462085Y515868D01*
X460085Y517022D01*
X457855Y517620D01*
D02*
G37*
G36*
X432455D02*
X430145D01*
X427915Y517022D01*
X425915Y515868D01*
X424282Y514235D01*
X423128Y512235D01*
X422530Y510005D01*
Y507695D01*
X423128Y505465D01*
X424282Y503465D01*
X425915Y501832D01*
X427915Y500678D01*
X430145Y500080D01*
X432455D01*
X434685Y500678D01*
X436685Y501832D01*
X438318Y503465D01*
X439472Y505465D01*
X440070Y507695D01*
Y510005D01*
X439472Y512235D01*
X438318Y514235D01*
X436685Y515868D01*
X434685Y517022D01*
X432455Y517620D01*
D02*
G37*
G36*
X407055D02*
X404745D01*
X402515Y517022D01*
X400515Y515868D01*
X398882Y514235D01*
X397728Y512235D01*
X397130Y510005D01*
Y507695D01*
X397728Y505465D01*
X398882Y503465D01*
X400515Y501832D01*
X402515Y500678D01*
X404745Y500080D01*
X407055D01*
X409285Y500678D01*
X411285Y501832D01*
X412918Y503465D01*
X414072Y505465D01*
X414670Y507695D01*
Y510005D01*
X414072Y512235D01*
X412918Y514235D01*
X411285Y515868D01*
X409285Y517022D01*
X407055Y517620D01*
D02*
G37*
G36*
X327077Y503880D02*
X325163D01*
X323314Y503385D01*
X321656Y502427D01*
X320303Y501074D01*
X319503Y499689D01*
X314860D01*
X313682Y499455D01*
X312683Y498787D01*
X291898Y478003D01*
X290814Y479087D01*
X289156Y480045D01*
X287307Y480540D01*
X285393D01*
X283544Y480045D01*
X281886Y479087D01*
X280533Y477734D01*
X279575Y476076D01*
X279080Y474227D01*
Y472313D01*
X279575Y470464D01*
X280533Y468806D01*
X281886Y467453D01*
X283544Y466495D01*
X285393Y466000D01*
X287307D01*
X289156Y466495D01*
X290814Y467453D01*
X292167Y468806D01*
X293125Y470464D01*
X293205Y470764D01*
X293697Y471093D01*
X316135Y493531D01*
X319503D01*
X320303Y492146D01*
X321656Y490793D01*
X323314Y489835D01*
X325163Y489340D01*
X327077D01*
X328926Y489835D01*
X330584Y490793D01*
X331937Y492146D01*
X332895Y493804D01*
X333390Y495653D01*
Y497567D01*
X332895Y499416D01*
X331937Y501074D01*
X330584Y502427D01*
X328926Y503385D01*
X327077Y503880D01*
D02*
G37*
G36*
X151100Y504240D02*
X138400D01*
X133955Y499795D01*
Y490905D01*
X138400Y486460D01*
X151100D01*
X155545Y490905D01*
Y499795D01*
X151100Y504240D01*
D02*
G37*
G36*
Y478840D02*
X145385D01*
Y470585D01*
X155545D01*
Y474395D01*
X151100Y478840D01*
D02*
G37*
G36*
X144115Y469315D02*
X133955D01*
Y465505D01*
X138400Y461060D01*
X144115D01*
Y469315D01*
D02*
G37*
G36*
X698750Y849354D02*
X253990D01*
X252324Y849022D01*
X250912Y848079D01*
X229979Y827146D01*
X228495D01*
X225629Y826378D01*
X223059Y824894D01*
X220961Y822796D01*
X219477Y820226D01*
X218709Y817359D01*
Y814392D01*
X219477Y811526D01*
X220961Y808956D01*
X223059Y806858D01*
X225629Y805374D01*
X228495Y804606D01*
X231463D01*
X234329Y805374D01*
X236899Y806858D01*
X238997Y808956D01*
X240481Y811526D01*
X241249Y814392D01*
Y817359D01*
X240481Y820226D01*
X238997Y822796D01*
X238470Y823323D01*
X255793Y840646D01*
X696947D01*
X764646Y772947D01*
Y443197D01*
X763376Y443192D01*
X761144Y765200D01*
X761035Y765725D01*
X760929Y766261D01*
X760923Y766270D01*
X760921Y766279D01*
X760619Y766725D01*
X760317Y767178D01*
X689747Y837747D01*
X688831Y838359D01*
X687750Y838574D01*
X687750Y838574D01*
X356750D01*
X355669Y838359D01*
X354753Y837747D01*
X354753Y837747D01*
X303218Y786212D01*
X302606Y785296D01*
X302391Y784215D01*
X302391Y784215D01*
Y752140D01*
Y746892D01*
X301548Y746405D01*
X299450Y744307D01*
X297966Y741737D01*
X297198Y738871D01*
Y735903D01*
X297966Y733037D01*
X299450Y730467D01*
X301548Y728369D01*
X304118Y726885D01*
X306984Y726117D01*
X309951D01*
X312818Y726885D01*
X315388Y728369D01*
X317486Y730467D01*
X318970Y733037D01*
X319738Y735903D01*
Y738871D01*
X318970Y741737D01*
X317486Y744307D01*
X315388Y746405D01*
X312818Y747889D01*
X309951Y748657D01*
X308039D01*
Y752140D01*
Y783045D01*
X357920Y832926D01*
X686580D01*
X755503Y764003D01*
X756490Y621745D01*
X756310Y621609D01*
X755223Y621271D01*
X712990Y663504D01*
Y668659D01*
X721488D01*
Y691199D01*
X698948D01*
Y668659D01*
X707341D01*
Y662335D01*
X707341Y662335D01*
X707556Y661254D01*
X708168Y660338D01*
X750676Y617830D01*
Y600071D01*
X749406Y599588D01*
X672247Y676747D01*
X671331Y677359D01*
X670250Y677574D01*
X670250Y677574D01*
X633312D01*
X632752Y679666D01*
X631268Y682236D01*
X629170Y684334D01*
X626600Y685818D01*
X623734Y686586D01*
X620766D01*
X617900Y685818D01*
X615330Y684334D01*
X613232Y682236D01*
X611748Y679666D01*
X610980Y676800D01*
Y673832D01*
X611289Y672681D01*
X602927Y664319D01*
X243258Y664332D01*
X242177Y664117D01*
X242177Y664117D01*
X242177Y664117D01*
X241809Y663871D01*
X241261Y663505D01*
X241261Y663505D01*
X224729Y646973D01*
X224117Y646057D01*
X223902Y644976D01*
X223902Y644976D01*
Y610945D01*
X223059Y610458D01*
X220961Y608360D01*
X219477Y605790D01*
X218709Y602924D01*
Y599957D01*
X219477Y597090D01*
X220961Y594520D01*
X223059Y592422D01*
X225629Y590938D01*
X228495Y590170D01*
X231463D01*
X234329Y590938D01*
X236899Y592422D01*
X238997Y594520D01*
X240481Y597090D01*
X241249Y599957D01*
Y602924D01*
X240481Y605790D01*
X238997Y608360D01*
X236899Y610458D01*
X234329Y611942D01*
X231463Y612710D01*
X229550D01*
Y643806D01*
X244427Y658683D01*
X604097Y658671D01*
X604097Y658671D01*
X604790Y658808D01*
X605178Y658885D01*
X605178Y658885D01*
X605178Y658885D01*
X606094Y659498D01*
X614112Y667516D01*
X615330Y666298D01*
X617900Y664814D01*
X620766Y664046D01*
X623734D01*
X626600Y664814D01*
X629170Y666298D01*
X631268Y668396D01*
X632752Y670966D01*
X633009Y671926D01*
X669080D01*
X744926Y596080D01*
Y513643D01*
X743656Y513303D01*
X743118Y514235D01*
X741485Y515868D01*
X739485Y517022D01*
X738924Y517173D01*
Y573075D01*
X738709Y574156D01*
X738097Y575072D01*
X738097Y575072D01*
X692332Y620837D01*
X692332Y620837D01*
X690213Y622955D01*
X690507Y623249D01*
X691991Y625819D01*
X692759Y628685D01*
Y631653D01*
X691991Y634519D01*
X690507Y637089D01*
X688409Y639187D01*
X685839Y640671D01*
X682973Y641439D01*
X680005D01*
X677139Y640671D01*
X674569Y639187D01*
X672471Y637089D01*
X670987Y634519D01*
X670219Y631653D01*
Y628685D01*
X670987Y625819D01*
X672471Y623249D01*
X674569Y621151D01*
X677139Y619667D01*
X680005Y618899D01*
X682973D01*
X685582Y619598D01*
X688338Y616843D01*
X688338Y616843D01*
X733276Y571905D01*
Y517173D01*
X732715Y517022D01*
X730715Y515868D01*
X729082Y514235D01*
X727928Y512235D01*
X727330Y510005D01*
Y507695D01*
X727928Y505465D01*
X729082Y503465D01*
X730715Y501832D01*
X732715Y500678D01*
X734945Y500080D01*
X737255D01*
X739485Y500678D01*
X741485Y501832D01*
X743118Y503465D01*
X743656Y504397D01*
X744926Y504057D01*
Y498920D01*
X740330Y494324D01*
X678420D01*
X667782Y504962D01*
X668072Y505465D01*
X668670Y507695D01*
Y510005D01*
X668072Y512235D01*
X666918Y514235D01*
X665285Y515868D01*
X663285Y517022D01*
X661055Y517620D01*
X658745D01*
X656515Y517022D01*
X654515Y515868D01*
X652882Y514235D01*
X651728Y512235D01*
X651130Y510005D01*
Y507695D01*
X651728Y505465D01*
X652882Y503465D01*
X654515Y501832D01*
X656515Y500678D01*
X657076Y500527D01*
Y487100D01*
X657076Y487100D01*
X657291Y486019D01*
X657903Y485103D01*
X685503Y457503D01*
X685503Y457503D01*
X686419Y456891D01*
X687500Y456676D01*
X687500Y456676D01*
X714467D01*
X714587Y456385D01*
X716134Y454837D01*
X718156Y454000D01*
X720344D01*
X722365Y454837D01*
X723913Y456385D01*
X724750Y458406D01*
Y460594D01*
X723913Y462616D01*
X722365Y464163D01*
X720344Y465000D01*
X718156D01*
X716134Y464163D01*
X714587Y462616D01*
X714467Y462324D01*
X688670D01*
X662724Y488270D01*
Y500470D01*
X663119Y500633D01*
X663285Y500678D01*
X663434Y500764D01*
X663829Y500927D01*
X675253Y489503D01*
X675253Y489503D01*
X676169Y488891D01*
X677250Y488676D01*
X741500D01*
X741500Y488676D01*
X742581Y488891D01*
X743497Y489503D01*
X749406Y495412D01*
X750676Y494929D01*
Y454248D01*
X737722Y441295D01*
X737255Y441420D01*
X734945D01*
X732715Y440822D01*
X730715Y439668D01*
X729082Y438035D01*
X727928Y436035D01*
X727330Y433805D01*
Y431495D01*
X727928Y429265D01*
X728218Y428762D01*
X713780Y414324D01*
X598844D01*
X598413Y415365D01*
X596866Y416913D01*
X594844Y417750D01*
X592656D01*
X590634Y416913D01*
X589087Y415365D01*
X588250Y413344D01*
Y411156D01*
X589087Y409134D01*
X590634Y407587D01*
X592656Y406750D01*
X594844D01*
X596866Y407587D01*
X597954Y408676D01*
X714950D01*
X714950Y408676D01*
X716031Y408891D01*
X716947Y409503D01*
X732212Y424768D01*
X732715Y424478D01*
X734945Y423880D01*
X737255D01*
X739485Y424478D01*
X741485Y425632D01*
X743118Y427265D01*
X744272Y429265D01*
X744870Y431495D01*
Y433805D01*
X744272Y436035D01*
X743118Y438035D01*
X742784Y438368D01*
X755497Y451081D01*
X756109Y451998D01*
X756324Y453078D01*
X756324Y453078D01*
Y462428D01*
X757594Y462433D01*
X757879Y421373D01*
X732830Y396324D01*
X725519D01*
X725128Y397208D01*
X725089Y397594D01*
X728688Y401194D01*
X729156Y401000D01*
X731344D01*
X733365Y401837D01*
X734913Y403385D01*
X735750Y405406D01*
Y407594D01*
X734913Y409616D01*
X733365Y411163D01*
X731344Y412000D01*
X729156D01*
X727134Y411163D01*
X725587Y409616D01*
X724750Y407594D01*
Y405406D01*
X724797Y405291D01*
X721830Y402324D01*
X533658D01*
X533361Y403594D01*
X534077Y404073D01*
X554641Y424636D01*
X554915Y424478D01*
X557145Y423880D01*
X557665D01*
Y432015D01*
X549530D01*
Y431495D01*
X550128Y429265D01*
X550286Y428991D01*
X530625Y409329D01*
X494088D01*
X494088Y409329D01*
X492910Y409095D01*
X491911Y408427D01*
X486359Y402876D01*
X485262Y403414D01*
X485179Y403492D01*
Y424396D01*
X485485Y424478D01*
X487485Y425632D01*
X489118Y427265D01*
X490272Y429265D01*
X490870Y431495D01*
Y433805D01*
X490272Y436035D01*
X489118Y438035D01*
X487485Y439668D01*
X485485Y440822D01*
X483255Y441420D01*
X480945D01*
X478715Y440822D01*
X476715Y439668D01*
X475082Y438035D01*
X473928Y436035D01*
X473330Y433805D01*
Y431495D01*
X473928Y429265D01*
X475082Y427265D01*
X476715Y425632D01*
X478715Y424478D01*
X479021Y424396D01*
Y404730D01*
X393170Y318879D01*
X359198D01*
X358712Y320052D01*
X370427Y331768D01*
X371095Y332767D01*
X371329Y333945D01*
X371329Y333945D01*
Y548801D01*
X372663Y550135D01*
X373500Y552156D01*
Y554344D01*
X372663Y556366D01*
X371115Y557913D01*
X369094Y558750D01*
X366906D01*
X364884Y557913D01*
X363337Y556366D01*
X362500Y554344D01*
Y552156D01*
X363337Y550135D01*
X364884Y548587D01*
X365171Y548469D01*
Y335220D01*
X352811Y322860D01*
X351095Y323320D01*
X349115D01*
X347202Y322808D01*
X345488Y321818D01*
X344087Y320417D01*
X343097Y318703D01*
X342585Y316790D01*
Y314810D01*
X343097Y312897D01*
X344087Y311183D01*
X345488Y309783D01*
X347202Y308792D01*
X349115Y308280D01*
X351095D01*
X353008Y308792D01*
X354722Y309783D01*
X356123Y311183D01*
X357011Y312721D01*
X394445D01*
X395624Y312955D01*
X396623Y313623D01*
X444684Y361684D01*
X445700Y360904D01*
X445648Y360813D01*
X445135Y358900D01*
Y358545D01*
X460175D01*
Y358900D01*
X459715Y360616D01*
X463156Y364056D01*
X463248Y364054D01*
X464426Y363660D01*
Y289455D01*
X455628Y280657D01*
X455558Y280697D01*
X453645Y281210D01*
X451665D01*
X449752Y280697D01*
X448038Y279708D01*
X446637Y278307D01*
X445648Y276593D01*
X445135Y274680D01*
Y272700D01*
X445648Y270787D01*
X446637Y269073D01*
X448038Y267673D01*
X449752Y266682D01*
X451665Y266170D01*
X453645D01*
X455558Y266682D01*
X457272Y267673D01*
X458672Y269073D01*
X459663Y270787D01*
X460175Y272700D01*
Y274680D01*
X459663Y276593D01*
X459622Y276663D01*
X469247Y286288D01*
X469247Y286288D01*
X469859Y287204D01*
X470074Y288285D01*
X470074Y288285D01*
Y369403D01*
X471723Y371052D01*
X472625Y370704D01*
X472926Y370459D01*
Y255845D01*
X456181Y239100D01*
X445135D01*
Y224060D01*
X460175D01*
Y235106D01*
X477747Y252678D01*
X477747Y252678D01*
X478359Y253594D01*
X478574Y254675D01*
X478574Y254675D01*
Y369418D01*
X494082Y384926D01*
X589967D01*
X590087Y384635D01*
X591634Y383087D01*
X593656Y382250D01*
X595844D01*
X597865Y383087D01*
X599413Y384635D01*
X600250Y386656D01*
Y388844D01*
X599413Y390866D01*
X597865Y392413D01*
X595844Y393250D01*
X593656D01*
X591634Y392413D01*
X590087Y390866D01*
X589967Y390574D01*
X493041D01*
X492796Y390875D01*
X492448Y391777D01*
X497347Y396676D01*
X638731D01*
X639122Y395792D01*
X639162Y395406D01*
X608989Y365233D01*
X608255Y365430D01*
X606275D01*
X604362Y364917D01*
X602648Y363927D01*
X601247Y362527D01*
X600257Y360813D01*
X599745Y358900D01*
Y356920D01*
X600257Y355007D01*
X601247Y353293D01*
X602648Y351893D01*
X604362Y350902D01*
X604441Y350882D01*
Y323320D01*
X599745D01*
Y308280D01*
X614785D01*
Y323320D01*
X610089D01*
Y350882D01*
X610168Y350902D01*
X611882Y351893D01*
X613283Y353293D01*
X614272Y355007D01*
X614785Y356920D01*
Y358900D01*
X614272Y360813D01*
X613644Y361900D01*
X642420Y390676D01*
X734000D01*
X734000Y390676D01*
X735081Y390891D01*
X735997Y391503D01*
X762709Y418214D01*
X762714Y418223D01*
X762722Y418228D01*
X763020Y418680D01*
X763321Y419131D01*
X763323Y419140D01*
X763328Y419149D01*
X763376Y419400D01*
X764646Y419280D01*
Y417583D01*
X749921Y402858D01*
X748978Y401446D01*
X748646Y399780D01*
Y369053D01*
X727097Y347504D01*
X679045D01*
Y347595D01*
X674600Y352040D01*
X661900D01*
X657455Y347595D01*
Y338705D01*
X661900Y334260D01*
X674600D01*
X679045Y338705D01*
Y338796D01*
X728900D01*
X730566Y339128D01*
X731979Y340071D01*
X756078Y364171D01*
X757022Y365584D01*
X757354Y367250D01*
Y397976D01*
X772078Y412701D01*
X773022Y414113D01*
X773354Y415779D01*
Y774750D01*
X773022Y776416D01*
X772078Y777829D01*
X701829Y848079D01*
X700416Y849022D01*
X698750Y849354D01*
D02*
G37*
G36*
X333390Y455080D02*
X318850D01*
Y440540D01*
X333390D01*
Y455080D01*
D02*
G37*
G36*
X151100Y453440D02*
X138400D01*
X133955Y448995D01*
Y440105D01*
X138400Y435660D01*
X151100D01*
X155545Y440105D01*
Y448995D01*
X151100Y453440D01*
D02*
G37*
G36*
X559455Y441420D02*
X558935D01*
Y433285D01*
X567070D01*
Y433805D01*
X566472Y436035D01*
X565318Y438035D01*
X563685Y439668D01*
X561685Y440822D01*
X559455Y441420D01*
D02*
G37*
G36*
X287307Y438840D02*
X285393D01*
X283544Y438345D01*
X281886Y437387D01*
X280533Y436034D01*
X279575Y434376D01*
X279080Y432527D01*
Y430613D01*
X279575Y428764D01*
X280533Y427106D01*
X281886Y425753D01*
X283544Y424795D01*
X285393Y424300D01*
X287307D01*
X289156Y424795D01*
X290814Y425753D01*
X292167Y427106D01*
X293125Y428764D01*
X293620Y430613D01*
Y432527D01*
X293125Y434376D01*
X292167Y436034D01*
X290814Y437387D01*
X289156Y438345D01*
X287307Y438840D01*
D02*
G37*
G36*
X243620D02*
X229080D01*
Y424300D01*
X243620D01*
Y438840D01*
D02*
G37*
G36*
X711855Y441420D02*
X709545D01*
X707315Y440822D01*
X705315Y439668D01*
X703682Y438035D01*
X702528Y436035D01*
X701930Y433805D01*
Y431495D01*
X702528Y429265D01*
X703682Y427265D01*
X705315Y425632D01*
X707315Y424478D01*
X709545Y423880D01*
X711855D01*
X714085Y424478D01*
X716085Y425632D01*
X717718Y427265D01*
X718872Y429265D01*
X719470Y431495D01*
Y433805D01*
X718872Y436035D01*
X717718Y438035D01*
X716085Y439668D01*
X714085Y440822D01*
X711855Y441420D01*
D02*
G37*
G36*
X686455D02*
X684145D01*
X681915Y440822D01*
X679915Y439668D01*
X678282Y438035D01*
X677128Y436035D01*
X676530Y433805D01*
Y431495D01*
X677128Y429265D01*
X678282Y427265D01*
X679915Y425632D01*
X681915Y424478D01*
X684145Y423880D01*
X686455D01*
X688685Y424478D01*
X690685Y425632D01*
X692318Y427265D01*
X693472Y429265D01*
X694070Y431495D01*
Y433805D01*
X693472Y436035D01*
X692318Y438035D01*
X690685Y439668D01*
X688685Y440822D01*
X686455Y441420D01*
D02*
G37*
G36*
X661055D02*
X658745D01*
X656515Y440822D01*
X654515Y439668D01*
X652882Y438035D01*
X651728Y436035D01*
X651130Y433805D01*
Y431495D01*
X651728Y429265D01*
X652882Y427265D01*
X654515Y425632D01*
X656515Y424478D01*
X658745Y423880D01*
X661055D01*
X663285Y424478D01*
X665285Y425632D01*
X666918Y427265D01*
X668072Y429265D01*
X668670Y431495D01*
Y433805D01*
X668072Y436035D01*
X666918Y438035D01*
X665285Y439668D01*
X663285Y440822D01*
X661055Y441420D01*
D02*
G37*
G36*
X568594Y485000D02*
X566406D01*
X564384Y484163D01*
X562837Y482616D01*
X562000Y480594D01*
Y478406D01*
X562837Y476385D01*
X564384Y474837D01*
X566406Y474000D01*
X568594D01*
X570616Y474837D01*
X572163Y476385D01*
X572178Y476421D01*
X586375D01*
X626486Y436309D01*
X626328Y436035D01*
X625730Y433805D01*
Y431495D01*
X626328Y429265D01*
X627482Y427265D01*
X629115Y425632D01*
X631115Y424478D01*
X633345Y423880D01*
X635655D01*
X637885Y424478D01*
X639885Y425632D01*
X641518Y427265D01*
X642672Y429265D01*
X643270Y431495D01*
Y433805D01*
X642672Y436035D01*
X641518Y438035D01*
X639885Y439668D01*
X637885Y440822D01*
X635655Y441420D01*
X633345D01*
X631115Y440822D01*
X630841Y440664D01*
X589827Y481677D01*
X588828Y482345D01*
X587650Y482579D01*
X572178D01*
X572163Y482616D01*
X570616Y484163D01*
X568594Y485000D01*
D02*
G37*
G36*
X567122Y454277D02*
X564934D01*
X562912Y453439D01*
X561365Y451892D01*
X560528Y449871D01*
Y447683D01*
X561365Y445661D01*
X562912Y444114D01*
X564934Y443277D01*
X567122D01*
X569143Y444114D01*
X570690Y445661D01*
X570705Y445698D01*
X591698D01*
X601086Y436309D01*
X600928Y436035D01*
X600330Y433805D01*
Y431495D01*
X600928Y429265D01*
X602082Y427265D01*
X603715Y425632D01*
X605715Y424478D01*
X607945Y423880D01*
X610255D01*
X612485Y424478D01*
X614485Y425632D01*
X616118Y427265D01*
X617272Y429265D01*
X617870Y431495D01*
Y433805D01*
X617272Y436035D01*
X616118Y438035D01*
X614485Y439668D01*
X612485Y440822D01*
X610255Y441420D01*
X607945D01*
X605715Y440822D01*
X605441Y440664D01*
X595151Y450954D01*
X594152Y451621D01*
X592973Y451856D01*
X570705D01*
X570690Y451892D01*
X569143Y453439D01*
X567122Y454277D01*
D02*
G37*
G36*
X584855Y441420D02*
X582545D01*
X580315Y440822D01*
X578315Y439668D01*
X576682Y438035D01*
X575528Y436035D01*
X574930Y433805D01*
Y431495D01*
X575528Y429265D01*
X576682Y427265D01*
X578315Y425632D01*
X580315Y424478D01*
X582545Y423880D01*
X584855D01*
X587085Y424478D01*
X589085Y425632D01*
X590718Y427265D01*
X591872Y429265D01*
X592470Y431495D01*
Y433805D01*
X591872Y436035D01*
X590718Y438035D01*
X589085Y439668D01*
X587085Y440822D01*
X584855Y441420D01*
D02*
G37*
G36*
X567070Y432015D02*
X558935D01*
Y423880D01*
X559455D01*
X561685Y424478D01*
X563685Y425632D01*
X565318Y427265D01*
X566472Y429265D01*
X567070Y431495D01*
Y432015D01*
D02*
G37*
G36*
X534055Y441420D02*
X531745D01*
X529515Y440822D01*
X527515Y439668D01*
X525882Y438035D01*
X524728Y436035D01*
X524130Y433805D01*
Y431495D01*
X524728Y429265D01*
X525882Y427265D01*
X527515Y425632D01*
X529515Y424478D01*
X531745Y423880D01*
X534055D01*
X536285Y424478D01*
X538285Y425632D01*
X539918Y427265D01*
X541072Y429265D01*
X541670Y431495D01*
Y433805D01*
X541072Y436035D01*
X539918Y438035D01*
X538285Y439668D01*
X536285Y440822D01*
X534055Y441420D01*
D02*
G37*
G36*
X379594Y547500D02*
X377406D01*
X375384Y546663D01*
X373837Y545116D01*
X373000Y543094D01*
Y540906D01*
X373837Y538885D01*
X374861Y537861D01*
Y484560D01*
X375095Y483382D01*
X375763Y482383D01*
X404323Y453823D01*
X405322Y453155D01*
X406500Y452921D01*
X482875D01*
X499486Y436309D01*
X499328Y436035D01*
X498730Y433805D01*
Y431495D01*
X499328Y429265D01*
X500482Y427265D01*
X502115Y425632D01*
X504115Y424478D01*
X506345Y423880D01*
X508655D01*
X510885Y424478D01*
X512885Y425632D01*
X514518Y427265D01*
X515672Y429265D01*
X516270Y431495D01*
Y433805D01*
X515672Y436035D01*
X514518Y438035D01*
X512885Y439668D01*
X510885Y440822D01*
X508655Y441420D01*
X506345D01*
X504115Y440822D01*
X503841Y440664D01*
X486327Y458177D01*
X485328Y458845D01*
X484150Y459079D01*
X407775D01*
X381019Y485835D01*
Y537090D01*
X381615Y537337D01*
X383163Y538885D01*
X384000Y540906D01*
Y543094D01*
X383163Y545116D01*
X381615Y546663D01*
X379594Y547500D01*
D02*
G37*
G36*
X457855Y441420D02*
X455545D01*
X453315Y440822D01*
X451315Y439668D01*
X449682Y438035D01*
X448528Y436035D01*
X447930Y433805D01*
Y431495D01*
X448528Y429265D01*
X449682Y427265D01*
X451315Y425632D01*
X453315Y424478D01*
X455545Y423880D01*
X457855D01*
X460085Y424478D01*
X462085Y425632D01*
X463718Y427265D01*
X464872Y429265D01*
X465470Y431495D01*
Y433805D01*
X464872Y436035D01*
X463718Y438035D01*
X462085Y439668D01*
X460085Y440822D01*
X457855Y441420D01*
D02*
G37*
G36*
X432455D02*
X430145D01*
X427915Y440822D01*
X425915Y439668D01*
X424282Y438035D01*
X423128Y436035D01*
X422530Y433805D01*
Y431495D01*
X423128Y429265D01*
X424282Y427265D01*
X425915Y425632D01*
X427915Y424478D01*
X428442Y424336D01*
X428455Y424272D01*
X429123Y423273D01*
X454364Y398032D01*
X454349Y397995D01*
Y395807D01*
X455186Y393786D01*
X456733Y392239D01*
X458755Y391401D01*
X460943D01*
X462964Y392239D01*
X464511Y393786D01*
X465349Y395807D01*
Y397995D01*
X464511Y400017D01*
X462964Y401564D01*
X460943Y402401D01*
X458755D01*
X458718Y402386D01*
X436544Y424561D01*
X436685Y425632D01*
X438318Y427265D01*
X439472Y429265D01*
X440070Y431495D01*
Y433805D01*
X439472Y436035D01*
X438318Y438035D01*
X436685Y439668D01*
X434685Y440822D01*
X432455Y441420D01*
D02*
G37*
G36*
X151100Y403890D02*
X138400D01*
X133955Y399445D01*
Y390555D01*
X138400Y386110D01*
X151100D01*
X155545Y390555D01*
Y399445D01*
X151100Y403890D01*
D02*
G37*
G36*
X582344Y368000D02*
X580156D01*
X578134Y367163D01*
X576587Y365616D01*
X576572Y365579D01*
X532178D01*
X532163Y365616D01*
X530616Y367163D01*
X528594Y368000D01*
X526406D01*
X524384Y367163D01*
X522837Y365616D01*
X522000Y363594D01*
Y361406D01*
X522837Y359384D01*
X524384Y357837D01*
X526406Y357000D01*
X528594D01*
X530616Y357837D01*
X532163Y359384D01*
X532178Y359421D01*
X576572D01*
X576587Y359384D01*
X578134Y357837D01*
X580156Y357000D01*
X582344D01*
X584366Y357837D01*
X585913Y359384D01*
X586750Y361406D01*
Y363594D01*
X585913Y365616D01*
X584366Y367163D01*
X582344Y368000D01*
D02*
G37*
G36*
X414670Y441420D02*
X397130D01*
Y423880D01*
X402171D01*
Y374275D01*
X391880Y363985D01*
X391844Y364000D01*
X389656D01*
X387635Y363163D01*
X386087Y361615D01*
X385250Y359594D01*
Y357406D01*
X386087Y355384D01*
X387635Y353837D01*
X389656Y353000D01*
X391844D01*
X393866Y353837D01*
X395413Y355384D01*
X396250Y357406D01*
Y359594D01*
X396235Y359630D01*
X407427Y370823D01*
X407427Y370823D01*
X408095Y371822D01*
X408329Y373000D01*
Y423880D01*
X414670D01*
Y441420D01*
D02*
G37*
G36*
X151100Y378490D02*
X138400D01*
X133955Y374045D01*
Y365155D01*
X138400Y360710D01*
X151100D01*
X155545Y365155D01*
Y374045D01*
X151100Y378490D01*
D02*
G37*
G36*
X674600Y377440D02*
X661900D01*
X657455Y372995D01*
Y364105D01*
X661900Y359660D01*
X674600D01*
X679045Y364105D01*
Y372995D01*
X674600Y377440D01*
D02*
G37*
G36*
X211180Y436730D02*
X192140D01*
Y417690D01*
X198581D01*
Y399860D01*
X198815Y398682D01*
X199483Y397683D01*
X225671Y371495D01*
Y368178D01*
X225634Y368163D01*
X224087Y366615D01*
X223250Y364594D01*
Y362406D01*
X224087Y360384D01*
X225634Y358837D01*
X227656Y358000D01*
X229844D01*
X231866Y358837D01*
X233413Y360384D01*
X234250Y362406D01*
Y364594D01*
X233413Y366615D01*
X231866Y368163D01*
X231829Y368178D01*
Y372770D01*
X231829Y372771D01*
X231595Y373949D01*
X230927Y374948D01*
X230927Y374948D01*
X204739Y401136D01*
Y417690D01*
X211180D01*
Y436730D01*
D02*
G37*
G36*
X512235Y365430D02*
X497195D01*
Y350390D01*
X512235D01*
Y365430D01*
D02*
G37*
G36*
X460175Y357275D02*
X453290D01*
Y350390D01*
X453645D01*
X455558Y350902D01*
X457272Y351893D01*
X458672Y353293D01*
X459663Y355007D01*
X460175Y356920D01*
Y357275D01*
D02*
G37*
G36*
X452020D02*
X445135D01*
Y356920D01*
X445595Y355204D01*
X414823Y324432D01*
X414155Y323433D01*
X413921Y322255D01*
Y198000D01*
X414155Y196822D01*
X414823Y195823D01*
X415822Y195155D01*
X417000Y194921D01*
X418178Y195155D01*
X419177Y195823D01*
X419845Y196822D01*
X420079Y198000D01*
Y320980D01*
X449949Y350850D01*
X451665Y350390D01*
X452020D01*
Y357275D01*
D02*
G37*
G36*
X357625Y365430D02*
X342585D01*
Y350390D01*
X357625D01*
Y365430D01*
D02*
G37*
G36*
X299035D02*
X297055D01*
X295142Y364917D01*
X293428Y363927D01*
X292027Y362527D01*
X291038Y360813D01*
X290525Y358900D01*
Y356920D01*
X291038Y355007D01*
X292027Y353293D01*
X293428Y351893D01*
X295142Y350902D01*
X297055Y350390D01*
X299035D01*
X300948Y350902D01*
X302662Y351893D01*
X304062Y353293D01*
X305053Y355007D01*
X305565Y356920D01*
Y358900D01*
X305053Y360813D01*
X304062Y362527D01*
X302662Y363927D01*
X300948Y364917D01*
X299035Y365430D01*
D02*
G37*
G36*
X203015D02*
X187975D01*
Y350390D01*
X203015D01*
Y365430D01*
D02*
G37*
G36*
X151100Y353090D02*
X138400D01*
X133955Y348645D01*
Y339755D01*
X138400Y335310D01*
X151100D01*
X155545Y339755D01*
Y348645D01*
X151100Y353090D01*
D02*
G37*
G36*
X174005Y612710D02*
X171037D01*
X168171Y611942D01*
X165601Y610458D01*
X163503Y608360D01*
X162019Y605790D01*
X161251Y602924D01*
Y599957D01*
X162019Y597090D01*
X163503Y594520D01*
X165601Y592422D01*
X168171Y590938D01*
X169697Y590530D01*
Y516979D01*
X169697Y516979D01*
X169912Y515898D01*
X170524Y514982D01*
X246926Y438580D01*
Y338366D01*
X246434Y338163D01*
X244887Y336615D01*
X244050Y334594D01*
Y332406D01*
X244887Y330384D01*
X246434Y328837D01*
X248456Y328000D01*
X250644D01*
X252666Y328837D01*
X254213Y330384D01*
X255050Y332406D01*
Y334594D01*
X254213Y336615D01*
X252666Y338163D01*
X252574Y338200D01*
Y439750D01*
X252574Y439750D01*
X252359Y440831D01*
X251747Y441747D01*
X251747Y441747D01*
X228541Y464953D01*
X229290Y466000D01*
X230263Y466000D01*
X243620D01*
Y480540D01*
X229080D01*
Y467251D01*
X229080Y466210D01*
X228033Y465461D01*
X175345Y518149D01*
Y590530D01*
X176871Y590938D01*
X179441Y592422D01*
X181539Y594520D01*
X183023Y597090D01*
X183791Y599957D01*
Y602924D01*
X183023Y605790D01*
X181539Y608360D01*
X179441Y610458D01*
X176871Y611942D01*
X174005Y612710D01*
D02*
G37*
G36*
X155545Y469315D02*
X145385D01*
Y461060D01*
X149285D01*
X161171Y449175D01*
Y338115D01*
X150745Y327690D01*
X145385D01*
Y319435D01*
X155545D01*
Y323245D01*
X155277Y323513D01*
X166427Y334663D01*
X167095Y335662D01*
X167329Y336840D01*
Y450450D01*
X167095Y451628D01*
X166427Y452627D01*
X166427Y452627D01*
X154547Y464507D01*
X155545Y465505D01*
Y469315D01*
D02*
G37*
G36*
Y318165D02*
X145385D01*
Y309910D01*
X151100D01*
X155545Y314355D01*
Y318165D01*
D02*
G37*
G36*
X144115Y327690D02*
X138400D01*
X133955Y323245D01*
Y322889D01*
X117560D01*
X116382Y322655D01*
X115383Y321987D01*
X72823Y279427D01*
X72155Y278428D01*
X71921Y277250D01*
Y107343D01*
X70650Y107002D01*
X68080Y105518D01*
X65982Y103420D01*
X64498Y100850D01*
X63730Y97984D01*
Y97135D01*
X86270D01*
Y97984D01*
X85502Y100850D01*
X84018Y103420D01*
X81920Y105518D01*
X79350Y107002D01*
X78079Y107343D01*
Y275975D01*
X118835Y316731D01*
X133955D01*
Y314355D01*
X138400Y309910D01*
X144115D01*
Y318800D01*
Y327690D01*
D02*
G37*
G36*
X460175Y323320D02*
X445135D01*
Y308280D01*
X460175D01*
Y323320D01*
D02*
G37*
G36*
X196485D02*
X194505D01*
X192592Y322808D01*
X190878Y321818D01*
X189478Y320417D01*
X188487Y318703D01*
X187975Y316790D01*
Y314810D01*
X188487Y312897D01*
X189478Y311183D01*
X190878Y309783D01*
X192592Y308792D01*
X194505Y308280D01*
X196485D01*
X198398Y308792D01*
X200112Y309783D01*
X201513Y311183D01*
X202502Y312897D01*
X203015Y314810D01*
Y316790D01*
X202502Y318703D01*
X201513Y320417D01*
X200112Y321818D01*
X198398Y322808D01*
X196485Y323320D01*
D02*
G37*
G36*
X151100Y302290D02*
X138400D01*
X133955Y297845D01*
Y288955D01*
X138400Y284510D01*
X151100D01*
X155545Y288955D01*
Y297845D01*
X151100Y302290D01*
D02*
G37*
G36*
X608255Y281210D02*
X606275D01*
X604362Y280697D01*
X602648Y279708D01*
X601247Y278307D01*
X600257Y276593D01*
X599745Y274680D01*
Y272700D01*
X600257Y270787D01*
X601247Y269073D01*
X602648Y267673D01*
X604362Y266682D01*
X606275Y266170D01*
X608255D01*
X610168Y266682D01*
X611882Y267673D01*
X613283Y269073D01*
X614272Y270787D01*
X614785Y272700D01*
Y274680D01*
X614272Y276593D01*
X613283Y278307D01*
X611882Y279708D01*
X610168Y280697D01*
X608255Y281210D01*
D02*
G37*
G36*
X512235D02*
X497195D01*
Y266170D01*
X512235D01*
Y281210D01*
D02*
G37*
G36*
X357625D02*
X342585D01*
Y266170D01*
X357625D01*
Y281210D01*
D02*
G37*
G36*
X151100Y276890D02*
X138400D01*
X133955Y272445D01*
Y263555D01*
X138400Y259110D01*
X151100D01*
X155545Y263555D01*
Y272445D01*
X151100Y276890D01*
D02*
G37*
G36*
X620594Y344000D02*
X618406D01*
X616385Y343163D01*
X614837Y341615D01*
X614000Y339594D01*
Y337406D01*
X614837Y335384D01*
X616385Y333837D01*
X616421Y333822D01*
Y310250D01*
X616655Y309072D01*
X617323Y308073D01*
X644032Y281364D01*
X643506Y280093D01*
X641906D01*
X639884Y279256D01*
X638337Y277709D01*
X637500Y275688D01*
Y273500D01*
X638337Y271478D01*
X639884Y269931D01*
X639921Y269916D01*
Y268591D01*
X609971Y238640D01*
X608255Y239100D01*
X606275D01*
X604362Y238587D01*
X602648Y237598D01*
X601247Y236197D01*
X600257Y234483D01*
X599745Y232570D01*
Y230590D01*
X600257Y228677D01*
X601247Y226963D01*
X602648Y225562D01*
X604362Y224573D01*
X606275Y224060D01*
X608255D01*
X610168Y224573D01*
X611882Y225562D01*
X613283Y226963D01*
X614272Y228677D01*
X614785Y230590D01*
Y232570D01*
X614325Y234286D01*
X631730Y251691D01*
X633000Y251164D01*
Y250156D01*
X633837Y248134D01*
X635384Y246587D01*
X635421Y246572D01*
Y221980D01*
X609971Y196530D01*
X608255Y196990D01*
X606275D01*
X604362Y196478D01*
X602648Y195487D01*
X601247Y194087D01*
X600257Y192373D01*
X599745Y190460D01*
Y188480D01*
X600257Y186567D01*
X601247Y184853D01*
X602648Y183452D01*
X604362Y182463D01*
X606275Y181950D01*
X608255D01*
X610168Y182463D01*
X611882Y183452D01*
X613283Y184853D01*
X614272Y186567D01*
X614785Y188480D01*
Y190460D01*
X614325Y192176D01*
X640677Y218528D01*
X640677Y218528D01*
X641345Y219527D01*
X641579Y220705D01*
Y246572D01*
X641616Y246587D01*
X643163Y248134D01*
X644000Y250156D01*
Y252344D01*
X643163Y254366D01*
X641616Y255913D01*
X639594Y256750D01*
X638586D01*
X638060Y258020D01*
X645177Y265138D01*
X645845Y266137D01*
X646079Y267315D01*
Y269916D01*
X646115Y269931D01*
X647663Y271478D01*
X648500Y273500D01*
Y275099D01*
X649770Y275625D01*
X657455Y267941D01*
Y262505D01*
X661900Y258060D01*
X674600D01*
X679045Y262505D01*
Y271395D01*
X674600Y275840D01*
X661900D01*
X660082Y274022D01*
X622579Y311525D01*
Y333822D01*
X622616Y333837D01*
X624163Y335384D01*
X625000Y337406D01*
Y339594D01*
X624163Y341615D01*
X622616Y343163D01*
X620594Y344000D01*
D02*
G37*
G36*
X667615Y250440D02*
X661900D01*
X657455Y245995D01*
Y242185D01*
X667615D01*
Y250440D01*
D02*
G37*
G36*
X142620Y241050D02*
X126080D01*
Y224510D01*
X142620D01*
Y241050D01*
D02*
G37*
G36*
X512235Y239100D02*
X497195D01*
Y224060D01*
X512235D01*
Y239100D01*
D02*
G37*
G36*
X351095D02*
X349115D01*
X347202Y238587D01*
X345488Y237598D01*
X344087Y236197D01*
X343097Y234483D01*
X342585Y232570D01*
Y230590D01*
X343097Y228677D01*
X344087Y226963D01*
X345488Y225562D01*
X347202Y224573D01*
X349115Y224060D01*
X351095D01*
X353008Y224573D01*
X354722Y225562D01*
X356123Y226963D01*
X357113Y228677D01*
X357625Y230590D01*
Y232570D01*
X357113Y234483D01*
X356123Y236197D01*
X354722Y237598D01*
X353008Y238587D01*
X351095Y239100D01*
D02*
G37*
G36*
X196485D02*
X194505D01*
X192592Y238587D01*
X190878Y237598D01*
X189478Y236197D01*
X188487Y234483D01*
X187975Y232570D01*
Y230590D01*
X188487Y228677D01*
X189478Y226963D01*
X190878Y225562D01*
X192592Y224573D01*
X194505Y224060D01*
X196485D01*
X198398Y224573D01*
X200112Y225562D01*
X201513Y226963D01*
X202502Y228677D01*
X203015Y230590D01*
Y232570D01*
X202502Y234483D01*
X201513Y236197D01*
X200112Y237598D01*
X198398Y238587D01*
X196485Y239100D01*
D02*
G37*
G36*
X512235Y196990D02*
X497195D01*
Y181950D01*
X512235D01*
Y196990D01*
D02*
G37*
G36*
X460175D02*
X445135D01*
Y181950D01*
X460175D01*
Y196990D01*
D02*
G37*
G36*
X351095D02*
X349115D01*
X347202Y196478D01*
X345488Y195487D01*
X344087Y194087D01*
X343097Y192373D01*
X342585Y190460D01*
Y188480D01*
X343097Y186567D01*
X344087Y184853D01*
X345488Y183452D01*
X347202Y182463D01*
X349115Y181950D01*
X351095D01*
X353008Y182463D01*
X354722Y183452D01*
X356123Y184853D01*
X357113Y186567D01*
X357625Y188480D01*
Y190460D01*
X357113Y192373D01*
X356123Y194087D01*
X354722Y195487D01*
X353008Y196478D01*
X351095Y196990D01*
D02*
G37*
G36*
X203015D02*
X187975D01*
Y181950D01*
X203015D01*
Y196990D01*
D02*
G37*
G36*
X135439Y189050D02*
X133261D01*
X131158Y188486D01*
X129272Y187398D01*
X127732Y185858D01*
X126644Y183972D01*
X126080Y181869D01*
Y179691D01*
X126644Y177588D01*
X127732Y175702D01*
X129272Y174162D01*
X131158Y173074D01*
X133261Y172510D01*
X135439D01*
X137542Y173074D01*
X139428Y174162D01*
X140968Y175702D01*
X142056Y177588D01*
X142620Y179691D01*
Y181869D01*
X142056Y183972D01*
X140968Y185858D01*
X139428Y187398D01*
X137542Y188486D01*
X135439Y189050D01*
D02*
G37*
G36*
X505705Y323320D02*
X503725D01*
X501812Y322808D01*
X500098Y321818D01*
X498698Y320417D01*
X497707Y318703D01*
X497195Y316790D01*
Y314810D01*
X497707Y312897D01*
X498698Y311183D01*
X500098Y309783D01*
X501812Y308792D01*
X503725Y308280D01*
X505705D01*
X507421Y308740D01*
X526421Y289740D01*
Y186275D01*
X511225Y171079D01*
X313582D01*
X313582Y171079D01*
X312403Y170845D01*
X311404Y170177D01*
X311404Y170177D01*
X308395Y167168D01*
X307594Y167500D01*
X305406D01*
X303384Y166663D01*
X301837Y165116D01*
X301000Y163094D01*
Y160906D01*
X301837Y158884D01*
X303384Y157337D01*
X305406Y156500D01*
X307594D01*
X309615Y157337D01*
X311163Y158884D01*
X312000Y160906D01*
Y162064D01*
X314857Y164921D01*
X372483D01*
X372998Y163651D01*
X372250Y161844D01*
Y159656D01*
X373087Y157634D01*
X374635Y156087D01*
X376656Y155250D01*
X378844D01*
X378880Y155265D01*
X384823Y149323D01*
X385822Y148655D01*
X386128Y148594D01*
X386003Y147324D01*
X347920D01*
X340629Y154615D01*
X340750Y154906D01*
Y157094D01*
X339913Y159115D01*
X338366Y160663D01*
X336344Y161500D01*
X334156D01*
X332135Y160663D01*
X330587Y159115D01*
X329750Y157094D01*
Y154906D01*
X330587Y152885D01*
X332135Y151337D01*
X334156Y150500D01*
X336344D01*
X336635Y150621D01*
X344753Y142503D01*
X344753Y142503D01*
X345669Y141891D01*
X346750Y141676D01*
X346750Y141676D01*
X428263D01*
X428388Y140406D01*
X428182Y140365D01*
X427183Y139697D01*
X427183Y139697D01*
X422916Y135429D01*
X421645Y135770D01*
X419836D01*
X418089Y135302D01*
X416522Y134397D01*
X415243Y133118D01*
X414339Y131552D01*
X413871Y129804D01*
Y127996D01*
X414339Y126248D01*
X415243Y124682D01*
X415331Y124594D01*
X414805Y123324D01*
X347730D01*
X344614Y126441D01*
X345030Y127996D01*
Y129804D01*
X344562Y131552D01*
X343658Y133118D01*
X342379Y134397D01*
X340812Y135302D01*
X339065Y135770D01*
X337256D01*
X335509Y135302D01*
X333942Y134397D01*
X332663Y133118D01*
X331858Y131724D01*
X261882D01*
X261077Y133118D01*
X259798Y134397D01*
X258232Y135302D01*
X256485Y135770D01*
X254676D01*
X252928Y135302D01*
X251362Y134397D01*
X250083Y133118D01*
X249178Y131552D01*
X248710Y129804D01*
Y127996D01*
X249178Y126248D01*
X250083Y124682D01*
X251362Y123403D01*
X252928Y122498D01*
X254676Y122030D01*
X256485D01*
X258232Y122498D01*
X259798Y123403D01*
X261077Y124682D01*
X261882Y126076D01*
X331858D01*
X332663Y124682D01*
X333942Y123403D01*
X335509Y122498D01*
X337256Y122030D01*
X339065D01*
X340620Y122447D01*
X343467Y119599D01*
X342941Y118329D01*
X324510D01*
X324510Y118329D01*
X323332Y118095D01*
X322333Y117427D01*
X314935Y110029D01*
X313665Y110370D01*
X311856D01*
X310109Y109902D01*
X308542Y108997D01*
X307263Y107718D01*
X306359Y106152D01*
X305890Y104404D01*
Y102596D01*
X306359Y100848D01*
X307263Y99282D01*
X308542Y98003D01*
X310109Y97098D01*
X311856Y96630D01*
X313665D01*
X315412Y97098D01*
X316979Y98003D01*
X318258Y99282D01*
X319162Y100848D01*
X319630Y102596D01*
Y104404D01*
X319290Y105675D01*
X325786Y112171D01*
X515836D01*
X516380Y110919D01*
X515730Y109349D01*
Y108585D01*
X513725Y106579D01*
X484076D01*
X483418Y107718D01*
X482139Y108997D01*
X480573Y109902D01*
X478825Y110370D01*
X477017D01*
X475269Y109902D01*
X473703Y108997D01*
X472424Y107718D01*
X471519Y106152D01*
X471051Y104404D01*
Y102596D01*
X471519Y100848D01*
X472424Y99282D01*
X473703Y98003D01*
X475269Y97098D01*
X477017Y96630D01*
X478825D01*
X480573Y97098D01*
X482139Y98003D01*
X483418Y99282D01*
X484076Y100421D01*
X515000D01*
X516178Y100655D01*
X517177Y101323D01*
X520085Y104230D01*
X520849D01*
X521851Y103270D01*
Y102596D01*
X522319Y100848D01*
X523224Y99282D01*
X524503Y98003D01*
X526069Y97098D01*
X527817Y96630D01*
X529626D01*
X531373Y97098D01*
X532939Y98003D01*
X534218Y99282D01*
X535123Y100848D01*
X535591Y102596D01*
Y104404D01*
X535123Y106152D01*
X534218Y107718D01*
X532939Y108997D01*
X531373Y109902D01*
X529626Y110370D01*
X527817D01*
X526069Y109902D01*
X525512Y109580D01*
X524329Y110006D01*
X523918Y111003D01*
X524591Y112171D01*
X586000D01*
Y112156D01*
X586837Y110134D01*
X588385Y108587D01*
X590406Y107750D01*
X592594D01*
X594616Y108587D01*
X596163Y110134D01*
X597000Y112156D01*
Y114344D01*
X596163Y116365D01*
X594616Y117913D01*
X592594Y118750D01*
X590406D01*
X589390Y118329D01*
X498540D01*
X498014Y119599D01*
X500862Y122447D01*
X502417Y122030D01*
X504226D01*
X505973Y122498D01*
X507539Y123403D01*
X508818Y124682D01*
X509104Y125176D01*
X512080D01*
X515253Y122003D01*
X515253Y122003D01*
X516169Y121391D01*
X517250Y121176D01*
X581001D01*
X581001Y121176D01*
X582082Y121391D01*
X582999Y122003D01*
X583442Y122447D01*
X584997Y122030D01*
X586806D01*
X588553Y122498D01*
X590120Y123403D01*
X591399Y124682D01*
X592303Y126248D01*
X592771Y127996D01*
Y129804D01*
X592303Y131552D01*
X591399Y133118D01*
X590120Y134397D01*
X588553Y135302D01*
X586806Y135770D01*
X584997D01*
X583250Y135302D01*
X581683Y134397D01*
X580404Y133118D01*
X579500Y131552D01*
X579031Y129804D01*
Y127996D01*
X579075Y127832D01*
X578302Y126824D01*
X518420D01*
X515247Y129997D01*
X514331Y130609D01*
X513250Y130824D01*
X513250Y130824D01*
X509918D01*
X509723Y131552D01*
X508818Y133118D01*
X508766Y133171D01*
X509292Y134441D01*
X522314D01*
X522337Y134384D01*
X523885Y132837D01*
X525906Y132000D01*
X528094D01*
X530116Y132837D01*
X531663Y134384D01*
X532500Y136406D01*
Y138594D01*
X531749Y140406D01*
X532262Y141676D01*
X696750D01*
X696750Y141676D01*
X697831Y141891D01*
X698747Y142503D01*
X714747Y158503D01*
X714747Y158503D01*
X715359Y159419D01*
X715574Y160500D01*
Y169500D01*
X715574Y169500D01*
X715359Y170581D01*
X714747Y171497D01*
X714747Y171497D01*
X695247Y190997D01*
X694331Y191609D01*
X693250Y191824D01*
X693250Y191824D01*
X679045D01*
Y193445D01*
X674600Y197890D01*
X661900D01*
X657455Y193445D01*
Y184555D01*
X661900Y180110D01*
X674600D01*
X679045Y184555D01*
Y186176D01*
X692080D01*
X709742Y168514D01*
X709661Y167920D01*
X708742Y167696D01*
X708347Y167681D01*
X706865Y169163D01*
X704844Y170000D01*
X702656D01*
X700635Y169163D01*
X699601Y168129D01*
X678961D01*
X674600Y172490D01*
X661900D01*
X657455Y168045D01*
Y159155D01*
X661900Y154710D01*
X674600D01*
X679045Y159155D01*
Y161971D01*
X698845D01*
X699087Y161385D01*
X700635Y159837D01*
X702656Y159000D01*
X704844D01*
X705895Y159436D01*
X706615Y158359D01*
X695580Y147324D01*
X643262D01*
X642749Y148594D01*
X643500Y150406D01*
Y152594D01*
X642663Y154615D01*
X641115Y156163D01*
X639094Y157000D01*
X636906D01*
X634884Y156163D01*
X633337Y154615D01*
X633322Y154579D01*
X388275D01*
X383235Y159620D01*
X383250Y159656D01*
Y161844D01*
X382501Y163651D01*
X383017Y164921D01*
X512500D01*
X513678Y165155D01*
X514677Y165823D01*
X531677Y182823D01*
X532345Y183822D01*
X532579Y185000D01*
X532579Y185000D01*
Y291015D01*
X532579Y291015D01*
X532345Y292193D01*
X531677Y293192D01*
X531677Y293192D01*
X511775Y313094D01*
X512235Y314810D01*
Y316790D01*
X511722Y318703D01*
X510732Y320417D01*
X509332Y321818D01*
X507618Y322808D01*
X505705Y323320D01*
D02*
G37*
G36*
X135439Y215050D02*
X133261D01*
X131158Y214486D01*
X129272Y213398D01*
X127732Y211858D01*
X126644Y209972D01*
X126080Y207869D01*
Y205691D01*
X126644Y203588D01*
X127732Y201702D01*
X129272Y200162D01*
X131158Y199074D01*
X133261Y198510D01*
X135385D01*
X158015Y175880D01*
X158000Y175844D01*
Y173656D01*
X158837Y171635D01*
X160385Y170087D01*
X162406Y169250D01*
X164594D01*
X166616Y170087D01*
X168163Y171635D01*
X169000Y173656D01*
Y175844D01*
X168163Y177866D01*
X166616Y179413D01*
X164594Y180250D01*
X162406D01*
X162370Y180235D01*
X140935Y201670D01*
X140968Y201702D01*
X142056Y203588D01*
X142620Y205691D01*
Y207869D01*
X142056Y209972D01*
X140968Y211858D01*
X139428Y213398D01*
X137542Y214486D01*
X135439Y215050D01*
D02*
G37*
G36*
X23594Y177750D02*
X21406D01*
X19384Y176913D01*
X17837Y175366D01*
X17000Y173344D01*
Y171156D01*
X17837Y169135D01*
X19384Y167587D01*
X21406Y166750D01*
X22645D01*
X27323Y162073D01*
X27323Y162073D01*
X28322Y161405D01*
X29500Y161171D01*
X29500Y161171D01*
X52072D01*
X52087Y161134D01*
X53635Y159587D01*
X55656Y158750D01*
X57844D01*
X59865Y159587D01*
X61413Y161134D01*
X62250Y163156D01*
Y165344D01*
X61413Y167365D01*
X59865Y168913D01*
X57844Y169750D01*
X55656D01*
X53635Y168913D01*
X52087Y167365D01*
X52072Y167329D01*
X30775D01*
X27692Y170413D01*
X28000Y171156D01*
Y173344D01*
X27163Y175366D01*
X25615Y176913D01*
X23594Y177750D01*
D02*
G37*
G36*
X31344Y146250D02*
X29156D01*
X27134Y145413D01*
X25587Y143865D01*
X24750Y141844D01*
Y139656D01*
X25587Y137634D01*
X27134Y136087D01*
X29156Y135250D01*
X29395D01*
X37073Y127573D01*
X38072Y126905D01*
X39250Y126671D01*
X39250Y126671D01*
X55572D01*
X55587Y126635D01*
X57134Y125087D01*
X59156Y124250D01*
X61344D01*
X63366Y125087D01*
X64913Y126635D01*
X65750Y128656D01*
Y130844D01*
X64913Y132865D01*
X63366Y134413D01*
X61344Y135250D01*
X59156D01*
X57134Y134413D01*
X55587Y132865D01*
X55572Y132829D01*
X40525D01*
X35149Y138205D01*
X35750Y139656D01*
Y141844D01*
X34913Y143865D01*
X33365Y145413D01*
X31344Y146250D01*
D02*
G37*
G36*
X100094Y170250D02*
X97906D01*
X95885Y169413D01*
X94337Y167866D01*
X93500Y165844D01*
Y163656D01*
X94337Y161635D01*
X95885Y160087D01*
X97906Y159250D01*
X100094D01*
X102115Y160087D01*
X102599Y160571D01*
X149075D01*
X189015Y120630D01*
X189000Y120594D01*
Y118406D01*
X189837Y116384D01*
X191385Y114837D01*
X193406Y114000D01*
X195594D01*
X197616Y114837D01*
X199163Y116384D01*
X200000Y118406D01*
Y120594D01*
X199163Y122615D01*
X197616Y124163D01*
X195594Y125000D01*
X193406D01*
X193370Y124985D01*
X152527Y165827D01*
X151528Y166495D01*
X150350Y166729D01*
X104133D01*
X103663Y167866D01*
X102115Y169413D01*
X100094Y170250D01*
D02*
G37*
G36*
X612206Y110370D02*
X610397D01*
X608650Y109902D01*
X607083Y108997D01*
X605804Y107718D01*
X604900Y106152D01*
X604431Y104404D01*
Y102596D01*
X604900Y100848D01*
X605804Y99282D01*
X607083Y98003D01*
X608650Y97098D01*
X610397Y96630D01*
X612206D01*
X613953Y97098D01*
X615520Y98003D01*
X616799Y99282D01*
X617703Y100848D01*
X618171Y102596D01*
Y104404D01*
X617703Y106152D01*
X616799Y107718D01*
X615520Y108997D01*
X613953Y109902D01*
X612206Y110370D01*
D02*
G37*
G36*
X561406D02*
X559597D01*
X557850Y109902D01*
X556283Y108997D01*
X555004Y107718D01*
X554100Y106152D01*
X553631Y104404D01*
Y102596D01*
X554100Y100848D01*
X555004Y99282D01*
X556283Y98003D01*
X557850Y97098D01*
X559597Y96630D01*
X561406D01*
X563153Y97098D01*
X564720Y98003D01*
X565999Y99282D01*
X566903Y100848D01*
X567371Y102596D01*
Y104404D01*
X566903Y106152D01*
X565999Y107718D01*
X564720Y108997D01*
X563153Y109902D01*
X561406Y110370D01*
D02*
G37*
G36*
X447045D02*
X445236D01*
X443489Y109902D01*
X441922Y108997D01*
X440643Y107718D01*
X439739Y106152D01*
X439271Y104404D01*
Y102596D01*
X439739Y100848D01*
X440643Y99282D01*
X441922Y98003D01*
X443489Y97098D01*
X445236Y96630D01*
X447045D01*
X448792Y97098D01*
X450359Y98003D01*
X451638Y99282D01*
X452542Y100848D01*
X453011Y102596D01*
Y104404D01*
X452542Y106152D01*
X451638Y107718D01*
X450359Y108997D01*
X448792Y109902D01*
X447045Y110370D01*
D02*
G37*
G36*
X396245D02*
X394436D01*
X392689Y109902D01*
X391122Y108997D01*
X389843Y107718D01*
X388939Y106152D01*
X388471Y104404D01*
Y102596D01*
X388939Y100848D01*
X389843Y99282D01*
X391122Y98003D01*
X392689Y97098D01*
X394436Y96630D01*
X396245D01*
X397992Y97098D01*
X399559Y98003D01*
X400838Y99282D01*
X401743Y100848D01*
X402211Y102596D01*
Y104404D01*
X401743Y106152D01*
X400838Y107718D01*
X399559Y108997D01*
X397992Y109902D01*
X396245Y110370D01*
D02*
G37*
G36*
X364465D02*
X362656D01*
X360909Y109902D01*
X359342Y108997D01*
X358063Y107718D01*
X357159Y106152D01*
X356690Y104404D01*
Y102596D01*
X357159Y100848D01*
X358063Y99282D01*
X359342Y98003D01*
X360909Y97098D01*
X362656Y96630D01*
X364465D01*
X366212Y97098D01*
X367779Y98003D01*
X369058Y99282D01*
X369962Y100848D01*
X370430Y102596D01*
Y104404D01*
X369962Y106152D01*
X369058Y107718D01*
X367779Y108997D01*
X366212Y109902D01*
X364465Y110370D01*
D02*
G37*
G36*
X281884D02*
X280076D01*
X278328Y109902D01*
X276762Y108997D01*
X275483Y107718D01*
X274578Y106152D01*
X274110Y104404D01*
Y102596D01*
X274578Y100848D01*
X275483Y99282D01*
X276762Y98003D01*
X278328Y97098D01*
X280076Y96630D01*
X281884D01*
X283632Y97098D01*
X285198Y98003D01*
X286477Y99282D01*
X287382Y100848D01*
X287850Y102596D01*
Y104404D01*
X287382Y106152D01*
X286477Y107718D01*
X285198Y108997D01*
X283632Y109902D01*
X281884Y110370D01*
D02*
G37*
G36*
X231084D02*
X229276D01*
X227528Y109902D01*
X225962Y108997D01*
X224683Y107718D01*
X223778Y106152D01*
X223310Y104404D01*
Y102596D01*
X223778Y100848D01*
X224683Y99282D01*
X225962Y98003D01*
X227528Y97098D01*
X229276Y96630D01*
X231084D01*
X232832Y97098D01*
X234398Y98003D01*
X235677Y99282D01*
X236582Y100848D01*
X237050Y102596D01*
Y104404D01*
X236582Y106152D01*
X235677Y107718D01*
X234398Y108997D01*
X232832Y109902D01*
X231084Y110370D01*
D02*
G37*
G36*
X109844Y153250D02*
X107656D01*
X105634Y152413D01*
X104087Y150865D01*
X103250Y148844D01*
Y146656D01*
X104087Y144635D01*
X105634Y143087D01*
X107656Y142250D01*
X109844D01*
X111866Y143087D01*
X113413Y144635D01*
X114049Y146171D01*
X142225D01*
X171263Y117133D01*
X185296Y103099D01*
X183998Y100850D01*
X183230Y97984D01*
Y95016D01*
X183998Y92150D01*
X185482Y89580D01*
X187580Y87482D01*
X190150Y85998D01*
X193016Y85230D01*
X195984D01*
X198850Y85998D01*
X201420Y87482D01*
X203518Y89580D01*
X205002Y92150D01*
X205770Y95016D01*
Y97984D01*
X205002Y100850D01*
X203518Y103420D01*
X201420Y105518D01*
X198850Y107002D01*
X195984Y107770D01*
X193016D01*
X190150Y107002D01*
X190120Y106985D01*
X175617Y121487D01*
X145677Y151427D01*
X144678Y152095D01*
X143500Y152329D01*
X111949D01*
X111866Y152413D01*
X109844Y153250D01*
D02*
G37*
G36*
X99094Y135250D02*
X96906D01*
X94885Y134413D01*
X93337Y132865D01*
X92500Y130844D01*
Y128656D01*
X93337Y126635D01*
X94885Y125087D01*
X96906Y124250D01*
X99094D01*
X101116Y125087D01*
X102663Y126635D01*
X102678Y126671D01*
X106245D01*
X138593Y94323D01*
X138593Y94323D01*
X139592Y93655D01*
X140770Y93421D01*
X148658D01*
X148998Y92150D01*
X150482Y89580D01*
X152580Y87482D01*
X155150Y85998D01*
X158016Y85230D01*
X160984D01*
X163850Y85998D01*
X166420Y87482D01*
X168518Y89580D01*
X170002Y92150D01*
X170770Y95016D01*
Y97984D01*
X170002Y100850D01*
X168518Y103420D01*
X166420Y105518D01*
X163850Y107002D01*
X160984Y107770D01*
X158016D01*
X155150Y107002D01*
X152580Y105518D01*
X150482Y103420D01*
X148998Y100850D01*
X148658Y99579D01*
X142045D01*
X109697Y131927D01*
X108698Y132595D01*
X107520Y132829D01*
X102678D01*
X102663Y132865D01*
X101116Y134413D01*
X99094Y135250D01*
D02*
G37*
G36*
X111484Y107770D02*
X108516D01*
X105650Y107002D01*
X103080Y105518D01*
X100982Y103420D01*
X99498Y100850D01*
X98730Y97984D01*
Y95016D01*
X99498Y92150D01*
X100982Y89580D01*
X103080Y87482D01*
X105650Y85998D01*
X108516Y85230D01*
X111484D01*
X114350Y85998D01*
X116920Y87482D01*
X119018Y89580D01*
X120502Y92150D01*
X121270Y95016D01*
Y97984D01*
X120502Y100850D01*
X119018Y103420D01*
X116920Y105518D01*
X114350Y107002D01*
X111484Y107770D01*
D02*
G37*
G36*
X74365Y95865D02*
X63730D01*
Y95016D01*
X64498Y92150D01*
X65982Y89580D01*
X68080Y87482D01*
X70650Y85998D01*
X73516Y85230D01*
X74365D01*
Y95865D01*
D02*
G37*
G36*
X181094Y478750D02*
X178906D01*
X176884Y477913D01*
X175337Y476366D01*
X174500Y474344D01*
Y472156D01*
X175337Y470135D01*
X176884Y468587D01*
X176921Y468572D01*
Y289185D01*
X177155Y288007D01*
X177823Y287008D01*
X188435Y276396D01*
X187975Y274680D01*
Y272700D01*
X188487Y270787D01*
X189478Y269073D01*
X190878Y267673D01*
X192592Y266682D01*
X194505Y266170D01*
X196485D01*
X198201Y266630D01*
X221921Y242910D01*
Y125250D01*
X222155Y124072D01*
X222823Y123073D01*
X272073Y73823D01*
X272073Y73823D01*
X273072Y73155D01*
X274250Y72921D01*
X274250Y72921D01*
X346540D01*
X347081Y72380D01*
X348651Y71730D01*
X350349D01*
X351919Y72380D01*
X353120Y73581D01*
X353770Y75151D01*
Y76849D01*
X353120Y78419D01*
X351919Y79620D01*
X350349Y80270D01*
X348651D01*
X347081Y79620D01*
X346540Y79079D01*
X275525D01*
X228079Y126525D01*
Y244185D01*
X228079Y244185D01*
X227845Y245363D01*
X227177Y246362D01*
X202555Y270984D01*
X203015Y272700D01*
Y274680D01*
X202502Y276593D01*
X201513Y278307D01*
X200112Y279708D01*
X198398Y280697D01*
X196485Y281210D01*
X194505D01*
X192789Y280750D01*
X183079Y290460D01*
Y468572D01*
X183116Y468587D01*
X184663Y470135D01*
X185500Y472156D01*
Y474344D01*
X184663Y476366D01*
X183116Y477913D01*
X181094Y478750D01*
D02*
G37*
G36*
X674600Y250440D02*
X668885D01*
Y241550D01*
X668250D01*
Y240915D01*
X657455D01*
Y237105D01*
X661544Y233016D01*
Y213148D01*
X644073Y195677D01*
X644073Y195677D01*
X610725Y162329D01*
X454500D01*
X453322Y162095D01*
X452323Y161427D01*
X451655Y160428D01*
X451421Y159250D01*
X451655Y158072D01*
X452323Y157073D01*
X453322Y156405D01*
X454500Y156171D01*
X612000D01*
X613178Y156405D01*
X614177Y157073D01*
X648427Y191323D01*
X648427Y191323D01*
X666800Y209695D01*
X666800Y209696D01*
X667468Y210695D01*
X667702Y211873D01*
Y232660D01*
X674600D01*
X679045Y237105D01*
Y238471D01*
X724925D01*
X778171Y185225D01*
Y114266D01*
X732844Y68939D01*
X106916D01*
X84844Y91011D01*
X85502Y92150D01*
X86270Y95016D01*
Y95865D01*
X75635D01*
Y85230D01*
X76484D01*
X79350Y85998D01*
X80490Y86656D01*
X103463Y63683D01*
X103463Y63683D01*
X104462Y63015D01*
X105640Y62781D01*
X105640Y62781D01*
X306261D01*
X306937Y61511D01*
X306528Y60824D01*
X65170D01*
X42129Y83865D01*
X42250Y84156D01*
Y86344D01*
X41413Y88365D01*
X39866Y89913D01*
X37844Y90750D01*
X35656D01*
X33635Y89913D01*
X32087Y88365D01*
X31250Y86344D01*
Y84156D01*
X32087Y82135D01*
X33635Y80587D01*
X35656Y79750D01*
X37844D01*
X38135Y79871D01*
X62003Y56003D01*
X62003Y56003D01*
X62919Y55391D01*
X64000Y55176D01*
X307906D01*
X309135Y53947D01*
X311156Y53110D01*
X313344D01*
X315366Y53947D01*
X316913Y55494D01*
X317750Y57516D01*
Y59704D01*
X317002Y61511D01*
X317517Y62781D01*
X734119D01*
X735298Y63015D01*
X736297Y63683D01*
X783427Y110813D01*
X783427Y110813D01*
X784095Y111812D01*
X784329Y112991D01*
Y186500D01*
X784329Y186500D01*
X784095Y187678D01*
X783427Y188677D01*
X783427Y188677D01*
X728377Y243727D01*
X727378Y244395D01*
X726200Y244629D01*
X679045D01*
Y245995D01*
X674600Y250440D01*
D02*
G37*
G36*
X279844Y49250D02*
X277656D01*
X275634Y48413D01*
X274087Y46866D01*
X273250Y44844D01*
Y42656D01*
X274087Y40634D01*
X275634Y39087D01*
X277656Y38250D01*
X279844D01*
X281866Y39087D01*
X282699Y39921D01*
X696801D01*
X697885Y38837D01*
X699906Y38000D01*
X702094D01*
X704116Y38837D01*
X705663Y40384D01*
X706500Y42406D01*
Y44594D01*
X705663Y46616D01*
X704116Y48163D01*
X702094Y49000D01*
X699906D01*
X697885Y48163D01*
X696337Y46616D01*
X696115Y46079D01*
X283738D01*
X283413Y46866D01*
X281866Y48413D01*
X279844Y49250D01*
D02*
G37*
G36*
X778974Y48750D02*
X775526D01*
X772145Y48078D01*
X768961Y46758D01*
X766094Y44843D01*
X763657Y42406D01*
X761742Y39539D01*
X760423Y36355D01*
X759750Y32974D01*
Y29526D01*
X760423Y26145D01*
X761742Y22961D01*
X763657Y20094D01*
X766094Y17657D01*
X768961Y15742D01*
X772145Y14423D01*
X775526Y13750D01*
X778974D01*
X782355Y14423D01*
X785539Y15742D01*
X788406Y17657D01*
X790843Y20094D01*
X792758Y22961D01*
X794078Y26145D01*
X794750Y29526D01*
Y32974D01*
X794078Y36355D01*
X792758Y39539D01*
X790843Y42406D01*
X788406Y44843D01*
X785539Y46758D01*
X782355Y48078D01*
X778974Y48750D01*
D02*
G37*
G36*
X28974D02*
X25526D01*
X22145Y48078D01*
X18961Y46758D01*
X16094Y44843D01*
X13657Y42406D01*
X11742Y39539D01*
X10423Y36355D01*
X9750Y32974D01*
Y29526D01*
X10423Y26145D01*
X11742Y22961D01*
X13657Y20094D01*
X16094Y17657D01*
X18961Y15742D01*
X22145Y14423D01*
X25526Y13750D01*
X28974D01*
X32355Y14423D01*
X35539Y15742D01*
X38406Y17657D01*
X40843Y20094D01*
X42758Y22961D01*
X44078Y26145D01*
X44750Y29526D01*
Y32974D01*
X44078Y36355D01*
X42758Y39539D01*
X40843Y42406D01*
X38406Y44843D01*
X35539Y46758D01*
X32355Y48078D01*
X28974Y48750D01*
D02*
G37*
%LPD*%
G36*
X497876Y133171D02*
X497824Y133118D01*
X496919Y131552D01*
X496451Y129804D01*
Y127996D01*
X496868Y126441D01*
X493751Y123324D01*
X426677D01*
X426151Y124594D01*
X426238Y124682D01*
X427142Y126248D01*
X427611Y127996D01*
Y129804D01*
X427270Y131075D01*
X430636Y134441D01*
X497350D01*
X497876Y133171D01*
D02*
G37*
%LPC*%
G36*
X778974Y876000D02*
X775526D01*
X772145Y875328D01*
X768961Y874008D01*
X766094Y872093D01*
X763657Y869656D01*
X761742Y866789D01*
X760423Y863605D01*
X759750Y860224D01*
Y856776D01*
X760423Y853395D01*
X761742Y850211D01*
X763657Y847344D01*
X766094Y844907D01*
X768961Y842992D01*
X772145Y841673D01*
X775526Y841000D01*
X778974D01*
X782355Y841673D01*
X785539Y842992D01*
X788406Y844907D01*
X790843Y847344D01*
X792758Y850211D01*
X794078Y853395D01*
X794750Y856776D01*
Y860224D01*
X794078Y863605D01*
X792758Y866789D01*
X790843Y869656D01*
X788406Y872093D01*
X785539Y874008D01*
X782355Y875328D01*
X778974Y876000D01*
D02*
G37*
%LPD*%
D12*
X728900Y343150D02*
X753000Y367250D01*
X688108Y343150D02*
X728900D01*
X668250D02*
X688108D01*
X753000Y367250D02*
Y399780D01*
X769000Y415779D01*
Y774750D01*
X698750Y845000D02*
X769000Y774750D01*
X253990Y845000D02*
X698750D01*
X229979Y820989D02*
X253990Y845000D01*
X229979Y816560D02*
Y820989D01*
X780500Y402837D02*
Y782750D01*
X170500Y858000D02*
X705250D01*
X780500Y782750D01*
X145250Y832750D02*
X170500Y858000D01*
X771250Y392500D02*
Y393587D01*
X780500Y402837D01*
X145250Y736260D02*
Y832750D01*
X94032Y680613D02*
Y685042D01*
X145250Y736260D01*
D17*
X236350Y431570D02*
D03*
Y473270D02*
D03*
X286350Y514970D02*
D03*
D23*
X326120Y496610D02*
D03*
X286350Y431570D02*
D03*
Y473270D02*
D03*
X236350Y514970D02*
D03*
D31*
X452655Y357910D02*
D03*
X350105Y315800D02*
D03*
Y231580D02*
D03*
X452655Y273690D02*
D03*
X350105Y189470D02*
D03*
X607265D02*
D03*
Y231580D02*
D03*
Y273690D02*
D03*
X504715Y315800D02*
D03*
X607265Y357910D02*
D03*
X298045D02*
D03*
X195495Y315800D02*
D03*
Y273690D02*
D03*
Y231580D02*
D03*
X298045Y189470D02*
D03*
D32*
X350105Y357910D02*
D03*
X452655Y315800D02*
D03*
Y231580D02*
D03*
X350105Y273690D02*
D03*
X452655Y189470D02*
D03*
X504715D02*
D03*
Y231580D02*
D03*
Y273690D02*
D03*
X607265Y315800D02*
D03*
X504715Y357910D02*
D03*
X195495D02*
D03*
X298045Y315800D02*
D03*
Y273690D02*
D03*
Y231580D02*
D03*
X195495Y189470D02*
D03*
D33*
X314860Y496610D02*
X326120D01*
X291520Y473270D02*
X314860Y496610D01*
X286350Y473270D02*
X291520D01*
X619500Y310250D02*
X662800Y266950D01*
X619500Y310250D02*
Y338500D01*
X368000Y553250D02*
X368250Y553000D01*
Y333945D02*
Y553000D01*
X589500Y115250D02*
X591500Y113250D01*
X324510Y115250D02*
X589500D01*
X312760Y103500D02*
X324510Y115250D01*
X201660Y399860D02*
X228750Y372771D01*
Y363500D02*
Y372771D01*
X150350Y163650D02*
X194500Y119500D01*
X100100Y163650D02*
X150350D01*
X75000Y277250D02*
X117560Y319810D01*
X75000Y96500D02*
Y277250D01*
Y96500D02*
X105640Y65860D01*
X734119D01*
X781250Y112991D01*
X279500Y43000D02*
X700500D01*
X278750Y43750D02*
X279500Y43000D01*
X194500Y96500D02*
Y98250D01*
X173440Y119310D02*
X194500Y98250D01*
X781250Y112991D02*
Y186500D01*
X726200Y241550D02*
X781250Y186500D01*
X686900Y241550D02*
X726200D01*
X670680D02*
X686900D01*
X668250D02*
X670680D01*
X117560Y319810D02*
X147220D01*
X107520Y129750D02*
X140770Y96500D01*
X159500D01*
X98000Y129750D02*
X107520D01*
X143500Y149250D02*
X173440Y119310D01*
X110250Y149250D02*
X143500D01*
X108750Y147750D02*
X110250Y149250D01*
X30250Y138750D02*
X39250Y129750D01*
X60250D01*
X30250Y138750D02*
Y140750D01*
X22500Y171250D02*
Y172250D01*
Y171250D02*
X29500Y164250D01*
X56750D01*
X134350Y203900D02*
X163500Y174750D01*
X134350Y203900D02*
Y206780D01*
X612000Y159250D02*
X646250Y193500D01*
X454500Y159250D02*
X612000D01*
X664623Y211873D02*
Y235680D01*
X669371Y240429D01*
X646250Y193500D02*
X664623Y211873D01*
X643000Y267315D02*
Y274594D01*
X607265Y231580D02*
X643000Y267315D01*
X700500Y43000D02*
X701000Y43500D01*
X377750Y160750D02*
X387000Y151500D01*
X513641D01*
X638000D01*
X526980Y137520D02*
X527000Y137500D01*
X429361Y137520D02*
X526980D01*
X664750Y165050D02*
X703200D01*
X703750Y164500D01*
X662800Y266950D02*
X668250D01*
X773350Y292350D02*
X794040Y313040D01*
X688750Y292350D02*
X773350D01*
X415075Y588100D02*
Y637075D01*
X688750Y317750D02*
X724750D01*
X788000Y381000D01*
X668250Y317750D02*
X688750D01*
X788000Y381000D02*
Y786750D01*
X703250Y871500D02*
X788000Y786750D01*
X448750Y871500D02*
X703250D01*
X668250Y292350D02*
X688750D01*
X794040Y313040D02*
Y790960D01*
X702860Y882140D02*
X794040Y790960D01*
X412390Y882140D02*
X702860D01*
X402250Y872000D02*
X412390Y882140D01*
X164250Y336840D02*
Y450450D01*
X144750Y469950D02*
X164250Y450450D01*
X121500Y493200D02*
X144750Y469950D01*
X121500Y493200D02*
Y581429D01*
X216071Y676000D02*
X220500D01*
X477921Y103500D02*
X515000D01*
X520000Y108500D01*
X420741Y128900D02*
X429361Y137520D01*
X512500Y168000D02*
X529500Y185000D01*
X307582Y162000D02*
X313582Y168000D01*
X512500D01*
X274250Y76000D02*
X349500D01*
X225000Y125250D02*
X274250Y76000D01*
X225000Y125250D02*
Y244185D01*
X195495Y273690D02*
X225000Y244185D01*
X306500Y162000D02*
X307582D01*
X121500Y581429D02*
X216071Y676000D01*
X99000Y164750D02*
X100100Y163650D01*
X405250Y373000D02*
Y432650D01*
X390750Y358500D02*
X405250Y373000D01*
X350105Y315800D02*
X368250Y333945D01*
X405250Y432650D02*
X405900D01*
X431300Y425450D02*
Y432650D01*
Y425450D02*
X459849Y396901D01*
X251750Y600250D02*
Y643750D01*
X252250Y644250D01*
X201660Y399860D02*
Y427210D01*
X529500Y185000D02*
Y291015D01*
X504715Y315800D02*
X529500Y291015D01*
X417000Y322255D02*
X452655Y357910D01*
X417000Y198000D02*
Y322255D01*
X607265Y189470D02*
X638500Y220705D01*
Y251250D01*
X452655Y357910D02*
X461000Y366255D01*
X527500Y362500D02*
X581250D01*
X592973Y448777D02*
X609100Y432650D01*
X566028Y448777D02*
X592973D01*
X377940Y541440D02*
X378500Y542000D01*
X377940Y484560D02*
Y541440D01*
X180000Y289185D02*
X195495Y273690D01*
X180000Y289185D02*
Y473250D01*
X551440Y439510D02*
X558300Y432650D01*
X551440Y439510D02*
Y479138D01*
X587650Y479500D02*
X634500Y432650D01*
X551440Y479138D02*
X563052Y490750D01*
X587750D01*
X567500Y479500D02*
X587650D01*
X605850Y508850D02*
X609100D01*
X587750Y490750D02*
X605850Y508850D01*
X531900Y406250D02*
X558300Y432650D01*
X482100Y403455D02*
Y432650D01*
X461000Y373162D02*
X494088Y406250D01*
X461000Y366255D02*
Y373162D01*
X350105Y315800D02*
X394445D01*
X482100Y403455D01*
X494088Y406250D02*
X531900D01*
X437250Y590500D02*
Y644500D01*
Y590500D02*
X437500Y590250D01*
X415075Y637075D02*
X415750Y637750D01*
X484150Y456000D02*
X507500Y432650D01*
X406500Y456000D02*
X484150D01*
X377940Y484560D02*
X406500Y456000D01*
X236350Y584850D02*
X251750Y600250D01*
X236350Y514970D02*
Y584850D01*
X147220Y319810D02*
X164250Y336840D01*
D34*
X607265Y315800D02*
Y357910D01*
X110750Y585000D02*
Y623271D01*
X118332Y630853D01*
X172521Y516979D02*
X249750Y439750D01*
X172521Y516979D02*
Y602124D01*
X64000Y58000D02*
X311640D01*
X36750Y85250D02*
X64000Y58000D01*
X311640D02*
X312250Y58610D01*
X286750Y599250D02*
X287750D01*
X265000Y577500D02*
X286750Y599250D01*
X271750Y299985D02*
Y564500D01*
X265000Y264625D02*
X298045Y231580D01*
X265000Y264625D02*
Y577500D01*
X271750Y564500D02*
X272000Y564750D01*
X260400Y611343D02*
X279739Y630682D01*
X260400Y227115D02*
X298045Y189470D01*
X260400Y402398D02*
Y577682D01*
Y611343D01*
Y227115D02*
Y402398D01*
X271750Y299985D02*
X298045Y273690D01*
X710165Y662335D02*
Y679877D01*
Y662335D02*
X753500Y619000D01*
Y453078D02*
Y619000D01*
X67782Y573718D02*
X87750Y553750D01*
X67782Y573718D02*
Y716250D01*
X529899Y144500D02*
X696750D01*
X712750Y160500D01*
X335250Y156000D02*
X346750Y144500D01*
X529899D01*
X712750Y160500D02*
Y169500D01*
X693250Y189000D02*
X712750Y169500D01*
X669750Y189000D02*
X693250D01*
X581001Y124000D02*
X585901Y128900D01*
X517250Y124000D02*
X581001D01*
X513250Y128000D02*
X517250Y124000D01*
X504221Y128000D02*
X513250D01*
X503321Y128900D02*
X504221Y128000D01*
X346560Y120500D02*
X494921D01*
X338160Y128900D02*
X346560Y120500D01*
X494921D02*
X503321Y128900D01*
X255580D02*
X338160D01*
X89603Y738071D02*
X94032D01*
X758319Y765181D02*
X760711Y420211D01*
X687750Y835750D02*
X758319Y765181D01*
X356750Y835750D02*
X687750D01*
X305215Y784215D02*
X356750Y835750D01*
X734000Y393500D02*
X760711Y420211D01*
X736100Y435678D02*
X753500Y453078D01*
X670250Y674750D02*
X747750Y597250D01*
X741500Y491500D02*
X747750Y497750D01*
Y597250D01*
X641250Y393500D02*
X734000D01*
X659900Y487100D02*
Y508850D01*
Y487100D02*
X687500Y459500D01*
X719250D01*
X730000Y406500D02*
X730250D01*
X723000Y399500D02*
X730000Y406500D01*
X736100Y432650D02*
Y435678D01*
X226726Y605377D02*
Y644976D01*
X496177Y399500D02*
X723000D01*
X736100Y508850D02*
Y573075D01*
X690335Y618840D02*
X736100Y573075D01*
X226726Y644976D02*
X243258Y661508D01*
X305215Y752140D02*
Y784215D01*
Y741324D02*
Y752140D01*
Y741324D02*
X308468Y738071D01*
X607265Y357910D02*
Y359515D01*
X641250Y393500D01*
X249750Y333700D02*
Y439750D01*
X249550Y333500D02*
X249750Y333700D01*
X118332Y630853D02*
X122761D01*
X279739Y630682D02*
Y630853D01*
X280560Y630032D02*
X296218D01*
X279739Y630853D02*
X280560Y630032D01*
X685300Y508850D02*
Y538950D01*
X653000Y571250D02*
X685300Y538950D01*
X355000Y571250D02*
X653000D01*
X296218Y630032D02*
X355000Y571250D01*
X67782Y716250D02*
X89603Y738071D01*
X87750Y553750D02*
X101500D01*
X226726Y605377D02*
X229979Y602124D01*
X617918Y675316D02*
X622250D01*
X604097Y661495D02*
X617918Y675316D01*
X243258Y661508D02*
X604097Y661495D01*
X681489Y627686D02*
X690335Y618840D01*
X681489Y627686D02*
Y630169D01*
X622816Y674750D02*
X670250D01*
X622250Y675316D02*
X622816Y674750D01*
X298045Y292554D02*
X326750Y263849D01*
Y185124D02*
Y263849D01*
X201660Y634660D02*
X202000Y635000D01*
X201660Y517210D02*
Y634660D01*
X326750Y185124D02*
X328533Y183341D01*
X594500Y411500D02*
X714950D01*
X467250Y370573D02*
X496177Y399500D01*
X593750Y412250D02*
X594500Y411500D01*
X714950D02*
X736100Y432650D01*
X475750Y370588D02*
X492912Y387750D01*
X594750D01*
X467250Y288285D02*
Y370573D01*
X475750Y254675D02*
Y370588D01*
X452655Y231580D02*
X475750Y254675D01*
X452655Y273690D02*
X467250Y288285D01*
X320000Y615250D02*
Y637750D01*
X358000Y577250D02*
X657000D01*
X308000Y565250D02*
X493750D01*
X657000Y577250D02*
X710700Y523550D01*
X493750Y565250D02*
X532900Y526100D01*
X320000Y615250D02*
X358000Y577250D01*
X532900Y508850D02*
Y526100D01*
X298045Y292554D02*
Y315800D01*
X710700Y508850D02*
Y523550D01*
X677250Y491500D02*
X741500D01*
X659900Y508850D02*
X677250Y491500D01*
D35*
X144750Y395000D02*
D03*
X668250Y368550D02*
D03*
Y343150D02*
D03*
Y317750D02*
D03*
Y292350D02*
D03*
Y266950D02*
D03*
Y241550D02*
D03*
X144750Y268000D02*
D03*
Y293400D02*
D03*
Y318800D02*
D03*
Y344200D02*
D03*
Y369600D02*
D03*
X668250Y189000D02*
D03*
Y163600D02*
D03*
X144750Y444550D02*
D03*
Y469950D02*
D03*
Y495350D02*
D03*
Y520750D02*
D03*
D36*
X110000Y96500D02*
D03*
X75000D02*
D03*
X194500D02*
D03*
X159500D02*
D03*
X710218Y737387D02*
D03*
X681489Y787147D02*
D03*
X631729Y815876D02*
D03*
X574271D02*
D03*
X524511Y787147D02*
D03*
X495782Y737387D02*
D03*
Y679929D02*
D03*
X524511Y630169D02*
D03*
X574271Y601440D02*
D03*
X631729D02*
D03*
X681489Y630169D02*
D03*
X564500Y708658D02*
D03*
X622250Y675316D02*
D03*
Y742000D02*
D03*
X308468Y737387D02*
D03*
X279739Y787147D02*
D03*
X229979Y815876D02*
D03*
X172521D02*
D03*
X122761Y787147D02*
D03*
X94032Y737387D02*
D03*
Y679929D02*
D03*
X122761Y630169D02*
D03*
X172521Y601440D02*
D03*
X229979D02*
D03*
X279739Y630169D02*
D03*
X162750Y708658D02*
D03*
X220500Y675316D02*
D03*
Y742000D02*
D03*
D37*
X363560Y103500D02*
D03*
X338160Y128900D02*
D03*
X312760Y103500D02*
D03*
X446141D02*
D03*
X420741Y128900D02*
D03*
X395341Y103500D02*
D03*
X528721D02*
D03*
X503321Y128900D02*
D03*
X477921Y103500D02*
D03*
X611301D02*
D03*
X585901Y128900D02*
D03*
X560501Y103500D02*
D03*
X280980D02*
D03*
X255580Y128900D02*
D03*
X230180Y103500D02*
D03*
D38*
X27250Y31250D02*
D03*
X777250D02*
D03*
Y858500D02*
D03*
X27250D02*
D03*
D39*
X326120Y447810D02*
D03*
D40*
X201660Y517210D02*
D03*
D41*
Y427210D02*
D03*
D42*
X736100Y508850D02*
D03*
X710700D02*
D03*
X685300D02*
D03*
X659900D02*
D03*
X634500D02*
D03*
X609100D02*
D03*
X583700D02*
D03*
X558300D02*
D03*
X532900D02*
D03*
X507500D02*
D03*
X482100D02*
D03*
X456700D02*
D03*
X431300D02*
D03*
X405900D02*
D03*
X736100Y432650D02*
D03*
X710700D02*
D03*
X685300D02*
D03*
X659900D02*
D03*
X634500D02*
D03*
X609100D02*
D03*
X583700D02*
D03*
X558300D02*
D03*
X532900D02*
D03*
X507500D02*
D03*
X482100D02*
D03*
X456700D02*
D03*
X431300D02*
D03*
D43*
X405900D02*
D03*
D44*
X134350Y232780D02*
D03*
D45*
Y180780D02*
D03*
Y206780D02*
D03*
D46*
X710218Y679929D02*
D03*
X308468D02*
D03*
D47*
X619500Y338500D02*
D03*
X368000Y553250D02*
D03*
X110750Y585000D02*
D03*
X591500Y113250D02*
D03*
X228750Y363500D02*
D03*
X194500Y119500D02*
D03*
X36750Y85250D02*
D03*
X312250Y58610D02*
D03*
X278750Y43750D02*
D03*
X30250Y140750D02*
D03*
X22500Y172250D02*
D03*
X287750Y599250D02*
D03*
X272000Y564750D02*
D03*
X701000Y43500D02*
D03*
X638000Y151500D02*
D03*
X527000Y137500D02*
D03*
X335250Y156000D02*
D03*
X703750Y164500D02*
D03*
X454500Y159250D02*
D03*
X377750Y160750D02*
D03*
X448750Y871500D02*
D03*
X402250Y872000D02*
D03*
X719250Y459500D02*
D03*
X730250Y406500D02*
D03*
X60250Y129750D02*
D03*
X98000D02*
D03*
X56750Y164250D02*
D03*
X108750Y147750D02*
D03*
X99000Y164750D02*
D03*
X390750Y358500D02*
D03*
X202000Y635000D02*
D03*
X252250Y644250D02*
D03*
X643000Y274594D02*
D03*
X306500Y162000D02*
D03*
X163500Y174750D02*
D03*
X328533Y183341D02*
D03*
X417000Y198000D02*
D03*
X638500Y251250D02*
D03*
X594750Y387750D02*
D03*
X593750Y412250D02*
D03*
X581250Y362500D02*
D03*
X527500D02*
D03*
X566028Y448777D02*
D03*
X378500Y542000D02*
D03*
X180000Y473250D02*
D03*
X567500Y479500D02*
D03*
X459849Y396901D02*
D03*
X437500Y590250D02*
D03*
X437250Y644500D02*
D03*
X415750Y637750D02*
D03*
X320000D02*
D03*
X415250Y588100D02*
D03*
X308000Y565250D02*
D03*
X101500Y553750D02*
D03*
X771250Y392500D02*
D03*
X249550Y333500D02*
D03*
D48*
X520000Y108500D02*
D03*
X349500Y76000D02*
D03*
M02*
