G04*
G04 #@! TF.GenerationSoftware,Altium Limited,Altium Designer,23.3.1 (30)*
G04*
G04 Layer_Color=0*
%FSLAX44Y44*%
%MOMM*%
G71*
G04*
G04 #@! TF.SameCoordinates,649CD447-C1A0-469D-A239-E437E7B1C979*
G04*
G04*
G04 #@! TF.FilePolarity,Positive*
G04*
G01*
G75*
%ADD49C,0.1000*%
D49*
X261350Y426570D02*
Y436570D01*
X256350Y431570D02*
X266350D01*
X261350Y468270D02*
Y478270D01*
X256350Y473270D02*
X266350D01*
X261350Y509970D02*
Y519970D01*
X256350Y514970D02*
X266350D01*
X401380Y352910D02*
Y362910D01*
X396380Y357910D02*
X406380D01*
X401380Y310800D02*
Y320800D01*
X396380Y315800D02*
X406380D01*
X401380Y226580D02*
Y236580D01*
X396380Y231580D02*
X406380D01*
X401380Y268690D02*
Y278690D01*
X396380Y273690D02*
X406380D01*
X401380Y184470D02*
Y194470D01*
X396380Y189470D02*
X406380D01*
X555990Y184470D02*
Y194470D01*
X550990Y189470D02*
X560990D01*
X555990Y226580D02*
Y236580D01*
X550990Y231580D02*
X560990D01*
X555990Y268690D02*
Y278690D01*
X550990Y273690D02*
X560990D01*
X555990Y310800D02*
Y320800D01*
X550990Y315800D02*
X560990D01*
X555990Y352910D02*
Y362910D01*
X550990Y357910D02*
X560990D01*
X246770Y352910D02*
Y362910D01*
X241770Y357910D02*
X251770D01*
X246770Y310800D02*
Y320800D01*
X241770Y315800D02*
X251770D01*
X246770Y268690D02*
Y278690D01*
X241770Y273690D02*
X251770D01*
X246770Y226580D02*
Y236580D01*
X241770Y231580D02*
X251770D01*
X246770Y184470D02*
Y194470D01*
X241770Y189470D02*
X251770D01*
M02*
