G04*
G04 #@! TF.GenerationSoftware,Altium Limited,Altium Designer,23.3.1 (30)*
G04*
G04 Layer_Color=128*
%FSLAX44Y44*%
%MOMM*%
G71*
G04*
G04 #@! TF.SameCoordinates,649CD447-C1A0-469D-A239-E437E7B1C979*
G04*
G04*
G04 #@! TF.FilePolarity,Positive*
G04*
G01*
G75*
%ADD51C,0.1270*%
D51*
X139750Y395000D02*
X149750D01*
X144750Y390000D02*
Y400000D01*
X232850Y431570D02*
X239850D01*
X236350Y428070D02*
Y435070D01*
X103500Y96500D02*
X116500D01*
X110000Y90000D02*
Y103000D01*
X68500Y96500D02*
X81500D01*
X75000Y90000D02*
Y103000D01*
X360110Y103500D02*
X367010D01*
X363560Y100050D02*
Y106950D01*
X334710Y128900D02*
X341610D01*
X338160Y125450D02*
Y132350D01*
X309310Y103500D02*
X316210D01*
X312760Y100050D02*
Y106950D01*
X442691Y103500D02*
X449591D01*
X446141Y100050D02*
Y106950D01*
X417291Y128900D02*
X424191D01*
X420741Y125450D02*
Y132350D01*
X391891Y103500D02*
X398791D01*
X395341Y100050D02*
Y106950D01*
X525271Y103500D02*
X532171D01*
X528721Y100050D02*
Y106950D01*
X499871Y128900D02*
X506771D01*
X503321Y125450D02*
Y132350D01*
X474471Y103500D02*
X481371D01*
X477921Y100050D02*
Y106950D01*
X607851Y103500D02*
X614751D01*
X611301Y100050D02*
Y106950D01*
X582451Y128900D02*
X589351D01*
X585901Y125450D02*
Y132350D01*
X557051Y103500D02*
X563951D01*
X560501Y100050D02*
Y106950D01*
X277530Y103500D02*
X284430D01*
X280980Y100050D02*
Y106950D01*
X252130Y128900D02*
X259030D01*
X255580Y125450D02*
Y132350D01*
X226730Y103500D02*
X233630D01*
X230180Y100050D02*
Y106950D01*
X663250Y368550D02*
X673250D01*
X668250Y363550D02*
Y373550D01*
X663250Y343150D02*
X673250D01*
X668250Y338150D02*
Y348150D01*
X663250Y317750D02*
X673250D01*
X668250Y312750D02*
Y322750D01*
X663250Y292350D02*
X673250D01*
X668250Y287350D02*
Y297350D01*
X663250Y266950D02*
X673250D01*
X668250Y261950D02*
Y271950D01*
X663250Y241550D02*
X673250D01*
X668250Y236550D02*
Y246550D01*
X139750Y268000D02*
X149750D01*
X144750Y263000D02*
Y273000D01*
X139750Y293400D02*
X149750D01*
X144750Y288400D02*
Y298400D01*
X139750Y318800D02*
X149750D01*
X144750Y313800D02*
Y323800D01*
X139750Y344200D02*
X149750D01*
X144750Y339200D02*
Y349200D01*
X139750Y369600D02*
X149750D01*
X144750Y364600D02*
Y374600D01*
X663250Y189000D02*
X673250D01*
X668250Y184000D02*
Y194000D01*
X663250Y163600D02*
X673250D01*
X668250Y158600D02*
Y168600D01*
X139750Y444550D02*
X149750D01*
X144750Y439550D02*
Y449550D01*
X139750Y469950D02*
X149750D01*
X144750Y464950D02*
Y474950D01*
X139750Y495350D02*
X149750D01*
X144750Y490350D02*
Y500350D01*
X139750Y520750D02*
X149750D01*
X144750Y515750D02*
Y525750D01*
X12250Y31250D02*
X42250D01*
X27250Y16250D02*
Y46250D01*
X762250Y31250D02*
X792250D01*
X777250Y16250D02*
Y46250D01*
X762250Y858500D02*
X792250D01*
X777250Y843500D02*
Y873500D01*
X12250Y858500D02*
X42250D01*
X27250Y843500D02*
Y873500D01*
X322620Y447810D02*
X329620D01*
X326120Y444310D02*
Y451310D01*
X322620Y496610D02*
X329620D01*
X326120Y493110D02*
Y500110D01*
X282850Y431570D02*
X289850D01*
X286350Y428070D02*
Y435070D01*
X282850Y473270D02*
X289850D01*
X286350Y469770D02*
Y476770D01*
X232850Y473270D02*
X239850D01*
X236350Y469770D02*
Y476770D01*
X232850Y514970D02*
X239850D01*
X236350Y511470D02*
Y518470D01*
X282850Y514970D02*
X289850D01*
X286350Y511470D02*
Y518470D01*
X195910Y517210D02*
X207410D01*
X201660Y511460D02*
Y522960D01*
X195910Y427210D02*
X207410D01*
X201660Y421460D02*
Y432960D01*
X731600Y508850D02*
X740600D01*
X736100Y504350D02*
Y513350D01*
X706200Y508850D02*
X715200D01*
X710700Y504350D02*
Y513350D01*
X680800Y508850D02*
X689800D01*
X685300Y504350D02*
Y513350D01*
X655400Y508850D02*
X664400D01*
X659900Y504350D02*
Y513350D01*
X630000Y508850D02*
X639000D01*
X634500Y504350D02*
Y513350D01*
X604600Y508850D02*
X613600D01*
X609100Y504350D02*
Y513350D01*
X579200Y508850D02*
X588200D01*
X583700Y504350D02*
Y513350D01*
X553800Y508850D02*
X562800D01*
X558300Y504350D02*
Y513350D01*
X528400Y508850D02*
X537400D01*
X532900Y504350D02*
Y513350D01*
X503000Y508850D02*
X512000D01*
X507500Y504350D02*
Y513350D01*
X477600Y508850D02*
X486600D01*
X482100Y504350D02*
Y513350D01*
X452200Y508850D02*
X461200D01*
X456700Y504350D02*
Y513350D01*
X426800Y508850D02*
X435800D01*
X431300Y504350D02*
Y513350D01*
X401400Y508850D02*
X410400D01*
X405900Y504350D02*
Y513350D01*
X731600Y432650D02*
X740600D01*
X736100Y428150D02*
Y437150D01*
X706200Y432650D02*
X715200D01*
X710700Y428150D02*
Y437150D01*
X680800Y432650D02*
X689800D01*
X685300Y428150D02*
Y437150D01*
X655400Y432650D02*
X664400D01*
X659900Y428150D02*
Y437150D01*
X630000Y432650D02*
X639000D01*
X634500Y428150D02*
Y437150D01*
X604600Y432650D02*
X613600D01*
X609100Y428150D02*
Y437150D01*
X579200Y432650D02*
X588200D01*
X583700Y428150D02*
Y437150D01*
X553800Y432650D02*
X562800D01*
X558300Y428150D02*
Y437150D01*
X528400Y432650D02*
X537400D01*
X532900Y428150D02*
Y437150D01*
X503000Y432650D02*
X512000D01*
X507500Y428150D02*
Y437150D01*
X477600Y432650D02*
X486600D01*
X482100Y428150D02*
Y437150D01*
X452200Y432650D02*
X461200D01*
X456700Y428150D02*
Y437150D01*
X426800Y432650D02*
X435800D01*
X431300Y428150D02*
Y437150D01*
X401400Y432650D02*
X410400D01*
X405900Y428150D02*
Y437150D01*
X188000Y96500D02*
X201000D01*
X194500Y90000D02*
Y103000D01*
X153000Y96500D02*
X166000D01*
X159500Y90000D02*
Y103000D01*
X129850Y232780D02*
X138850D01*
X134350Y228280D02*
Y237280D01*
X129850Y180780D02*
X138850D01*
X134350Y176280D02*
Y185280D01*
X129850Y206780D02*
X138850D01*
X134350Y202280D02*
Y211280D01*
X702718Y737387D02*
X717718D01*
X710218Y729887D02*
Y744887D01*
X673989Y787147D02*
X688989D01*
X681489Y779647D02*
Y794647D01*
X624229Y815876D02*
X639229D01*
X631729Y808376D02*
Y823376D01*
X566771Y815876D02*
X581771D01*
X574271Y808376D02*
Y823376D01*
X517011Y787147D02*
X532011D01*
X524511Y779647D02*
Y794647D01*
X488282Y737387D02*
X503282D01*
X495782Y729887D02*
Y744887D01*
X488282Y679929D02*
X503282D01*
X495782Y672429D02*
Y687429D01*
X517011Y630169D02*
X532011D01*
X524511Y622669D02*
Y637669D01*
X566771Y601440D02*
X581771D01*
X574271Y593940D02*
Y608940D01*
X624229Y601440D02*
X639229D01*
X631729Y593940D02*
Y608940D01*
X673989Y630169D02*
X688989D01*
X681489Y622669D02*
Y637669D01*
X702718Y679929D02*
X717718D01*
X710218Y672429D02*
Y687429D01*
X557000Y708658D02*
X572000D01*
X564500Y701158D02*
Y716158D01*
X614750Y675316D02*
X629750D01*
X622250Y667816D02*
Y682816D01*
X614750Y742000D02*
X629750D01*
X622250Y734500D02*
Y749500D01*
X300968Y737387D02*
X315968D01*
X308468Y729887D02*
Y744887D01*
X272239Y787147D02*
X287239D01*
X279739Y779647D02*
Y794647D01*
X222479Y815876D02*
X237479D01*
X229979Y808376D02*
Y823376D01*
X165021Y815876D02*
X180021D01*
X172521Y808376D02*
Y823376D01*
X115261Y787147D02*
X130261D01*
X122761Y779647D02*
Y794647D01*
X86532Y737387D02*
X101532D01*
X94032Y729887D02*
Y744887D01*
X86532Y679929D02*
X101532D01*
X94032Y672429D02*
Y687429D01*
X115261Y630169D02*
X130261D01*
X122761Y622669D02*
Y637669D01*
X165021Y601440D02*
X180021D01*
X172521Y593940D02*
Y608940D01*
X222479Y601440D02*
X237479D01*
X229979Y593940D02*
Y608940D01*
X272239Y630169D02*
X287239D01*
X279739Y622669D02*
Y637669D01*
X300968Y679929D02*
X315968D01*
X308468Y672429D02*
Y687429D01*
X155250Y708658D02*
X170250D01*
X162750Y701158D02*
Y716158D01*
X213000Y675316D02*
X228000D01*
X220500Y667816D02*
Y682816D01*
X213000Y742000D02*
X228000D01*
X220500Y734500D02*
Y749500D01*
X448905Y357910D02*
X456405D01*
X452655Y354160D02*
Y361660D01*
X346355Y357910D02*
X353855D01*
X350105Y354160D02*
Y361660D01*
X346355Y315800D02*
X353855D01*
X350105Y312050D02*
Y319550D01*
X448905Y315800D02*
X456405D01*
X452655Y312050D02*
Y319550D01*
X346355Y231580D02*
X353855D01*
X350105Y227830D02*
Y235330D01*
X448905Y231580D02*
X456405D01*
X452655Y227830D02*
Y235330D01*
X448905Y273690D02*
X456405D01*
X452655Y269940D02*
Y277440D01*
X346355Y273690D02*
X353855D01*
X350105Y269940D02*
Y277440D01*
X346355Y189470D02*
X353855D01*
X350105Y185720D02*
Y193220D01*
X448905Y189470D02*
X456405D01*
X452655Y185720D02*
Y193220D01*
X603515Y189470D02*
X611015D01*
X607265Y185720D02*
Y193220D01*
X500965Y189470D02*
X508465D01*
X504715Y185720D02*
Y193220D01*
X603515Y231580D02*
X611015D01*
X607265Y227830D02*
Y235330D01*
X500965Y231580D02*
X508465D01*
X504715Y227830D02*
Y235330D01*
X603515Y273690D02*
X611015D01*
X607265Y269940D02*
Y277440D01*
X500965Y273690D02*
X508465D01*
X504715Y269940D02*
Y277440D01*
X500965Y315800D02*
X508465D01*
X504715Y312050D02*
Y319550D01*
X603515Y315800D02*
X611015D01*
X607265Y312050D02*
Y319550D01*
X603515Y357910D02*
X611015D01*
X607265Y354160D02*
Y361660D01*
X500965Y357910D02*
X508465D01*
X504715Y354160D02*
Y361660D01*
X294295Y357910D02*
X301795D01*
X298045Y354160D02*
Y361660D01*
X191745Y357910D02*
X199245D01*
X195495Y354160D02*
Y361660D01*
X191745Y315800D02*
X199245D01*
X195495Y312050D02*
Y319550D01*
X294295Y315800D02*
X301795D01*
X298045Y312050D02*
Y319550D01*
X191745Y273690D02*
X199245D01*
X195495Y269940D02*
Y277440D01*
X294295Y273690D02*
X301795D01*
X298045Y269940D02*
Y277440D01*
X191745Y231580D02*
X199245D01*
X195495Y227830D02*
Y235330D01*
X294295Y231580D02*
X301795D01*
X298045Y227830D02*
Y235330D01*
X294295Y189470D02*
X301795D01*
X298045Y185720D02*
Y193220D01*
X191745Y189470D02*
X199245D01*
X195495Y185720D02*
Y193220D01*
X616500Y338500D02*
X622500D01*
X619500Y335500D02*
Y341500D01*
X365000Y553250D02*
X371000D01*
X368000Y550250D02*
Y556250D01*
X107750Y585000D02*
X113750D01*
X110750Y582000D02*
Y588000D01*
X588500Y113250D02*
X594500D01*
X591500Y110250D02*
Y116250D01*
X225750Y363500D02*
X231750D01*
X228750Y360500D02*
Y366500D01*
X191500Y119500D02*
X197500D01*
X194500Y116500D02*
Y122500D01*
X33750Y85250D02*
X39750D01*
X36750Y82250D02*
Y88250D01*
X309250Y58610D02*
X315250D01*
X312250Y55610D02*
Y61610D01*
X275750Y43750D02*
X281750D01*
X278750Y40750D02*
Y46750D01*
X27250Y140750D02*
X33250D01*
X30250Y137750D02*
Y143750D01*
X19500Y172250D02*
X25500D01*
X22500Y169250D02*
Y175250D01*
X284750Y599250D02*
X290750D01*
X287750Y596250D02*
Y602250D01*
X269000Y564750D02*
X275000D01*
X272000Y561750D02*
Y567750D01*
X698000Y43500D02*
X704000D01*
X701000Y40500D02*
Y46500D01*
X635000Y151500D02*
X641000D01*
X638000Y148500D02*
Y154500D01*
X524000Y137500D02*
X530000D01*
X527000Y134500D02*
Y140500D01*
X332250Y156000D02*
X338250D01*
X335250Y153000D02*
Y159000D01*
X700750Y164500D02*
X706750D01*
X703750Y161500D02*
Y167500D01*
X518500Y108500D02*
X521500D01*
X520000Y107000D02*
Y110000D01*
X451500Y159250D02*
X457500D01*
X454500Y156250D02*
Y162250D01*
X348000Y76000D02*
X351000D01*
X349500Y74500D02*
Y77500D01*
X374750Y160750D02*
X380750D01*
X377750Y157750D02*
Y163750D01*
X445750Y871500D02*
X451750D01*
X448750Y868500D02*
Y874500D01*
X399250Y872000D02*
X405250D01*
X402250Y869000D02*
Y875000D01*
X716250Y459500D02*
X722250D01*
X719250Y456500D02*
Y462500D01*
X727250Y406500D02*
X733250D01*
X730250Y403500D02*
Y409500D01*
X57250Y129750D02*
X63250D01*
X60250Y126750D02*
Y132750D01*
X95000Y129750D02*
X101000D01*
X98000Y126750D02*
Y132750D01*
X53750Y164250D02*
X59750D01*
X56750Y161250D02*
Y167250D01*
X105750Y147750D02*
X111750D01*
X108750Y144750D02*
Y150750D01*
X96000Y164750D02*
X102000D01*
X99000Y161750D02*
Y167750D01*
X387750Y358500D02*
X393750D01*
X390750Y355500D02*
Y361500D01*
X199000Y635000D02*
X205000D01*
X202000Y632000D02*
Y638000D01*
X249250Y644250D02*
X255250D01*
X252250Y641250D02*
Y647250D01*
X640000Y274594D02*
X646000D01*
X643000Y271593D02*
Y277593D01*
X303500Y162000D02*
X309500D01*
X306500Y159000D02*
Y165000D01*
X160500Y174750D02*
X166500D01*
X163500Y171750D02*
Y177750D01*
X325533Y183341D02*
X331533D01*
X328533Y180341D02*
Y186341D01*
X414000Y198000D02*
X420000D01*
X417000Y195000D02*
Y201000D01*
X635500Y251250D02*
X641500D01*
X638500Y248250D02*
Y254250D01*
X591750Y387750D02*
X597750D01*
X594750Y384750D02*
Y390750D01*
X590750Y412250D02*
X596750D01*
X593750Y409250D02*
Y415250D01*
X578250Y362500D02*
X584250D01*
X581250Y359500D02*
Y365500D01*
X524500Y362500D02*
X530500D01*
X527500Y359500D02*
Y365500D01*
X563028Y448777D02*
X569028D01*
X566028Y445777D02*
Y451777D01*
X375500Y542000D02*
X381500D01*
X378500Y539000D02*
Y545000D01*
X177000Y473250D02*
X183000D01*
X180000Y470250D02*
Y476250D01*
X564500Y479500D02*
X570500D01*
X567500Y476500D02*
Y482500D01*
X456849Y396901D02*
X462849D01*
X459849Y393901D02*
Y399901D01*
X434500Y590250D02*
X440500D01*
X437500Y587250D02*
Y593250D01*
X434250Y644500D02*
X440250D01*
X437250Y641500D02*
Y647500D01*
X412750Y637750D02*
X418750D01*
X415750Y634750D02*
Y640750D01*
X317000Y637750D02*
X323000D01*
X320000Y634750D02*
Y640750D01*
X412250Y588100D02*
X418250D01*
X415250Y585100D02*
Y591100D01*
X305000Y565250D02*
X311000D01*
X308000Y562250D02*
Y568250D01*
X98500Y553750D02*
X104500D01*
X101500Y550750D02*
Y556750D01*
X768250Y392500D02*
X774250D01*
X771250Y389500D02*
Y395500D01*
X246550Y333500D02*
X252550D01*
X249550Y330500D02*
Y336500D01*
M02*
